<?xml version="1.0" encoding="UTF-8"?>
<svg version="1.1" xmlns="http://www.w3.org/2000/svg" width="1000" height="1000">
<path d="M0 0 C13.82466809 0 27.52392968 0.05583545 41.3125 0.75 C42.17152924 0.79223694 43.03055847 0.83447388 43.9156189 0.87799072 C69.49554906 2.16240467 95.0054731 4.60631849 120.375 8.125 C121.52782471 8.28339355 122.68064941 8.44178711 123.8684082 8.60498047 C124.90956787 8.75854004 125.95072754 8.91209961 127.0234375 9.0703125 C127.91981934 9.20195801 128.81620117 9.33360352 129.73974609 9.46923828 C132 10 132 10 135 12 C135.61750793 14.11488342 135.61750793 14.11488342 135.96801758 16.77758789 C136.10930588 17.78139999 136.25059418 18.7852121 136.39616394 19.81944275 C136.61191826 21.47309593 136.61191826 21.47309593 136.83203125 23.16015625 C137.17157381 25.55017325 137.51500135 27.93964076 137.86181641 30.32861328 C138.13520844 32.21691864 138.13520844 32.21691864 138.41412354 34.14337158 C139.3818069 40.51330685 140.53550334 46.84699098 141.69921875 53.18359375 C141.94054793 54.50208743 142.18186043 55.82058417 142.42315674 57.13908386 C142.91948966 59.84622462 143.41776674 62.55299956 143.91729736 65.259552 C145.11288267 71.73902317 146.29454684 78.22104319 147.47794342 84.70274925 C147.8779226 86.89305102 148.27825524 89.08328795 148.6786499 91.27351379 C150.99593002 103.95353872 153.29274956 116.63710213 155.54898071 129.32815552 C155.92680651 131.44964489 156.30644414 133.57081255 156.68807983 135.69161987 C158.63858612 146.53707259 160.41383215 157.3302375 161.54003906 168.29492188 C162.03118921 172.25123539 162.7854795 176.04117907 163.625 179.9375 C166.55256614 194.88952186 166.66547026 209.41723743 158.28515625 222.72265625 C152.32898494 230.73807279 143.94305141 236.09864078 136 242 C135.36046387 242.47518066 134.72092773 242.95036133 134.06201172 243.43994141 C132.06446775 244.92142478 130.0640041 246.39887226 128.0625 247.875 C127.43617676 248.33914307 126.80985352 248.80328613 126.16455078 249.28149414 C117.02561446 256 117.02561446 256 113 256 C113 256.66 113 257.32 113 258 C111.03149414 259.60058594 111.03149414 259.60058594 108.28515625 261.484375 C107.28806641 262.17273438 106.29097656 262.86109375 105.26367188 263.5703125 C104.20728516 264.28960938 103.15089844 265.00890625 102.0625 265.75 C101.04091797 266.45382812 100.01933594 267.15765625 98.96679688 267.8828125 C91.7496786 272.84486953 84.47596664 277.7182454 77.15625 282.52734375 C70.93769869 286.61976654 64.86791886 290.75988625 59.046875 295.41015625 C54.48731253 298.95164848 49.66898139 302.07278812 44.625 304.875 C40.61205915 307.11859875 36.9948943 309.85959439 33.296875 312.58203125 C29.34856711 315.4865761 25.36702829 318.34343159 21.375 321.1875 C20.68293457 321.68636719 19.99086914 322.18523437 19.27783203 322.69921875 C15.6973503 325.24353461 12.05658303 327.66636006 8.2890625 329.92578125 C7.5873291 330.34899658 6.8855957 330.77221191 6.16259766 331.20825195 C3.28131633 332.26311709 1.90771453 331.96379302 -1 331 C-3.87158203 329.36108398 -3.87158203 329.36108398 -7.0078125 327.24609375 C-7.57394257 326.86695328 -8.14007263 326.48781281 -8.72335815 326.09718323 C-10.52907759 324.88477338 -12.32687827 323.66114117 -14.125 322.4375 C-15.30942958 321.64188358 -16.49432185 320.84695551 -17.6796875 320.05273438 C-24.07525853 315.75132903 -30.36085011 311.33803443 -36.53222656 306.71728516 C-39.14021817 304.90242436 -41.81041818 303.40798798 -44.625 301.9375 C-48.92022436 299.68130069 -52.50921695 297.13477384 -56.25390625 294.0703125 C-60.77480105 290.66195654 -65.60160147 287.71194816 -70.41259766 284.73168945 C-71.13366699 284.27753662 -71.85473633 283.82338379 -72.59765625 283.35546875 C-73.25258057 282.94965576 -73.90750488 282.54384277 -74.58227539 282.12573242 C-75.05012451 281.75424072 -75.51797363 281.38274902 -76 281 C-76 280.34 -76 279.68 -76 279 C-76.65742187 278.94714844 -77.31484375 278.89429688 -77.9921875 278.83984375 C-82.32355108 277.63043704 -85.49806343 275.16213486 -89.125 272.5625 C-89.84042969 272.05912109 -90.55585937 271.55574219 -91.29296875 271.03710938 C-92.62138133 270.10225454 -93.9473579 269.16392116 -95.27001953 268.22094727 C-96.82848216 267.12105006 -98.41285897 266.05809402 -100 265 C-100 264.34 -100 263.68 -100 263 C-100.99386719 262.65775391 -100.99386719 262.65775391 -102.0078125 262.30859375 C-105.90418504 260.60456659 -109.32314883 258.38797779 -112.875 256.0625 C-113.99394653 255.33377686 -113.99394653 255.33377686 -115.13549805 254.59033203 C-122.02440271 250.06094103 -128.67642174 245.24739285 -135.26416016 240.29345703 C-136.94774458 239.03893801 -138.64754156 237.81094365 -140.35546875 236.58984375 C-152.1259345 228.06539464 -159.3830134 219.28337498 -163 205 C-163.9738707 194.03686646 -162.1894695 183.73693716 -160.04296875 173.05078125 C-159.73493605 171.46129249 -159.42826984 169.87153838 -159.12287903 168.28153992 C-158.32221214 164.12936172 -157.505799 159.98045334 -156.68499756 155.83221436 C-155.38164453 149.2310215 -154.10177499 142.62520394 -152.82187462 136.01943016 C-152.51029148 134.41199877 -152.198126 132.80468015 -151.88538551 131.19747353 C-150.26518283 122.86237296 -148.67518286 114.54037704 -147.5234375 106.125 C-145.36477516 90.42315017 -142.00894506 74.8872498 -138.95715332 59.3404541 C-138.25976728 55.78013208 -137.56792637 52.21874162 -136.87609768 48.65733624 C-136.20496564 45.20555969 -135.5307974 41.75438171 -134.85566902 38.30338478 C-134.5355071 36.66538422 -134.21616977 35.02722224 -133.89770317 33.38889122 C-133.45361504 31.10720947 -133.00554132 28.82634529 -132.55639648 26.5456543 C-132.30341293 25.25362595 -132.05042938 23.9615976 -131.78977966 22.63041687 C-131.00476239 19.02189148 -130.05433544 15.5370075 -129 12 C-119.94286454 9.84095272 -111.30209585 8.50144179 -102 8 C-103.53380228 18.46449445 -105.37436805 28.86112178 -107.265625 39.265625 C-107.58484167 41.02884334 -107.90390977 42.79208859 -108.22283936 44.55535889 C-109.06072174 49.1854356 -109.90065553 53.81513784 -110.74102783 58.44476318 C-111.40968294 62.13010405 -112.07701118 65.81568449 -112.74420929 69.50128937 C-113.40060992 73.12714796 -114.05746353 76.75292445 -114.71427917 80.37870789 C-115.20230192 83.07357994 -115.6898422 85.76853901 -116.17736816 88.46350098 C-117.68472763 96.78953964 -119.20256194 105.11331398 -120.75195312 113.43164062 C-124.14474898 131.68673833 -124.14474898 131.68673833 -126.53369141 150.09423828 C-127.09416495 154.78871775 -127.9047772 159.41048946 -128.76171875 164.05859375 C-128.99630295 165.3366539 -128.99630295 165.3366539 -129.23562622 166.64053345 C-129.87925651 170.12537229 -130.52906613 173.60886875 -131.19458008 177.08959961 C-134.57992696 192.24718914 -134.57992696 192.24718914 -131.5625 207.0625 C-122.63600566 217.29531059 -111.51254469 224.33474802 -100.08984375 231.43359375 C-95.73596999 234.14765584 -91.45580394 236.96619829 -87.1875 239.8125 C-86.39778809 240.33803467 -85.60807617 240.86356934 -84.79443359 241.4050293 C-80.49583925 244.28058908 -76.27283964 247.22124251 -72.125 250.3125 C-67.57181853 253.687293 -62.81204522 256.49545118 -57.890625 259.296875 C-54.37954754 261.36556388 -51.09275356 263.66442075 -47.78125 266.03515625 C-44.29006124 268.50154381 -40.74413271 270.87934248 -37.1875 273.25 C-36.55287842 273.67450439 -35.91825684 274.09900879 -35.2644043 274.53637695 C-31.89110584 276.78212041 -28.48760955 278.93426203 -25 281 C-22.38803906 282.59165802 -19.78716351 284.20085536 -17.1875 285.8125 C-16.51396484 286.22564453 -15.84042969 286.63878906 -15.14648438 287.06445312 C-10.176226 290.15124517 -5.72199496 293.45850378 -1 297 C-0.505 149.985 -0.505 149.985 0 0 Z " fill="#D9B42D" transform="translate(197,411)"/>
<path d="M0 0 C148.0125523 0 148.0125523 0 177 16 C178.06734375 16.5259375 179.1346875 17.051875 180.234375 17.59375 C191.48298964 23.31338457 197.37766763 34.99887878 201.30859375 46.5625 C205.07779714 59.85053906 204.92917868 77.49372683 198.5234375 89.84765625 C188.84581327 105.91074487 177.15294705 112.76746322 160 119 C159.01 119 158.02 119 157 119 C157 119.66 157 120.32 157 121 C158.155 121.09796875 159.31 121.1959375 160.5 121.296875 C165.06010497 121.8709023 168.84784315 123.33780263 173 125.25 C173.69988037 125.56501465 174.39976074 125.8800293 175.12084961 126.20458984 C180.01394496 128.44661674 184.58576675 130.91108028 189 134 C189.57621094 134.3403125 190.15242187 134.680625 190.74609375 135.03125 C201.01172987 141.43298299 206.88391442 153.57997362 209.74609375 164.96875 C213.20137321 183.07918025 211.14301673 202.37678193 201 218 C187.15369613 237.07422222 165.79303509 243.61570962 143.60375977 247.61450195 C135.30017104 248.84388466 127.24756177 249.13858305 118.86108398 249.11352539 C117.55159066 249.11364593 116.24209734 249.11376646 114.8929224 249.11389065 C111.37541112 249.11411487 107.85793439 249.10835157 104.34043121 249.10128021 C101.03038125 249.09555263 97.72033264 249.09531532 94.41027832 249.09460449 C84.75268103 249.08937324 75.09509007 249.07541198 65.4375 249.0625 C43.843125 249.041875 22.24875 249.02125 0 249 C0 166.83 0 84.66 0 0 Z M68 46 C68 63.82 68 81.64 68 100 C76.229375 100.0928125 76.229375 100.0928125 84.625 100.1875 C86.32479004 100.21481201 88.02458008 100.24212402 89.77587891 100.27026367 C101.9632454 100.38352511 114.40094379 99.70499906 125 93 C125.9075 92.443125 126.815 91.88625 127.75 91.3125 C132.90721978 86.01202412 134.28646259 80.29036373 134.625 73 C134.36690892 65.01638263 131.76638339 60.8005456 126.27734375 55.26171875 C114.09806115 44.84080391 96.32939731 45.8370971 81.3125 45.9375 C76.919375 45.958125 72.52625 45.97875 68 46 Z M68 144 C68 163.14 68 182.28 68 202 C77.2503125 202.0928125 77.2503125 202.0928125 86.6875 202.1875 C88.60522217 202.21481201 90.52294434 202.24212402 92.4987793 202.27026367 C106.11487531 202.38346656 120.99034509 201.80709504 131.84375 192.40234375 C138.03104261 185.74493822 139.57318292 178.8427261 139.26953125 169.890625 C138.65725452 163.32417891 136.85577296 159.47383042 132.125 154.8125 C114.58017812 140.50109882 88.75281707 144 68 144 Z " fill="#A32924" transform="translate(429,412)"/>
<path d="M0 0 C21.553125 -0.061875 43.10625 -0.12375 65.3125 -0.1875 C72.08305908 -0.21481201 78.85361816 -0.24212402 85.8293457 -0.27026367 C94.18591309 -0.28381348 94.18591309 -0.28381348 98.11515808 -0.28633118 C100.82199899 -0.29089636 103.5283987 -0.30019744 106.2351532 -0.31672668 C135.76781234 -0.48890299 164.53009202 1.48686472 189 20 C189.53391357 20.4019458 190.06782715 20.8038916 190.61791992 21.21801758 C195.4683156 25.08707723 198.55904059 29.36581291 201.6875 34.6875 C202.16372803 35.48551025 202.63995605 36.28352051 203.13061523 37.10571289 C214.61977909 56.7641522 216.56869253 82.48559243 211.16796875 104.51953125 C207.37433363 115.82431015 202.31989793 126.32375635 194 135 C193.29746094 135.7425 192.59492187 136.485 191.87109375 137.25 C166.06127605 162.40474618 132.40321815 161.34140261 98.6875 161.125 C89.550625 161.08375 80.41375 161.0425 71 161 C71 190.04 71 219.08 71 249 C47.57 249 24.14 249 0 249 C0 166.83 0 84.66 0 0 Z M71 48 C71 68.79 71 89.58 71 111 C80.1575 111.12375 80.1575 111.12375 89.5 111.25 C91.39041016 111.28641602 93.28082031 111.32283203 95.22851562 111.36035156 C108.4699723 111.50883957 122.9360214 111.10125833 133.3046875 101.77734375 C139.57358949 95.20510779 142.098012 87.42701951 142.375 78.4375 C142.04896627 69.52173152 139.48901947 63.49409626 133.30078125 57.01171875 C124.26444373 49.11067661 112.87302522 47.65861436 101.2734375 47.8046875 C100.49718018 47.80670166 99.72092285 47.80871582 98.92114258 47.81079102 C96.07236667 47.82110964 93.22367622 47.84902982 90.375 47.875 C83.98125 47.91625 77.5875 47.9575 71 48 Z " fill="#A32924" transform="translate(661,412)"/>
<path d="M0 0 C23.1 0 46.2 0 70 0 C70 82.17 70 164.34 70 249 C46.9 249 23.8 249 0 249 C0 166.83 0 84.66 0 0 Z " fill="#A32924" transform="translate(895,412)"/>
<path d="M0 0 C4.88242966 2.19709335 8.43898163 5.02323531 10.484375 10.13671875 C11.16757102 15.94388491 10.61824199 20.72093348 8.734375 26.26171875 C8.239375 26.75671875 8.239375 26.75671875 7.734375 27.26171875 C10.5779852 28.20958882 12.52767562 28.38628302 15.484375 28.51171875 C29.00978118 29.68939264 41.56999292 35.81879736 52.734375 43.26171875 C54.67114381 43.78349092 54.67114381 43.78349092 56.8046875 44.0859375 C73.32165831 46.90619004 90.25550432 50.55449145 100.6015625 64.83984375 C105.85512323 73.70068812 106.50473765 83.82156724 104.13671875 93.7734375 C103.21677387 95.8828925 102.16295747 97.45658057 100.734375 99.26171875 C100.13625 100.05707031 99.538125 100.85242188 98.921875 101.671875 C93.15273254 108.70301737 86.60256316 112.90806904 78.734375 117.26171875 C80.41080078 117.83792969 80.41080078 117.83792969 82.12109375 118.42578125 C84.91030152 119.62968508 85.56110329 119.9258382 87.00390625 122.72265625 C87.18308594 123.68429687 87.36226562 124.6459375 87.546875 125.63671875 C87.86011719 127.21839844 87.86011719 127.21839844 88.1796875 128.83203125 C88.36273438 129.96382812 88.54578125 131.095625 88.734375 132.26171875 C89.03988281 134.08316406 89.03988281 134.08316406 89.3515625 135.94140625 C89.847256 139.04458335 90.29944829 142.14961468 90.734375 145.26171875 C82.72350717 144.74101234 74.74831066 144.08352927 66.76855469 143.20825195 C11.70157085 137.22452955 -42.60493531 139.24924923 -97.51708984 145.64013672 C-98.88341553 145.79119873 -98.88341553 145.79119873 -100.27734375 145.9453125 C-101.03877686 146.03224365 -101.80020996 146.1191748 -102.5847168 146.20874023 C-103.41676636 146.2349646 -103.41676636 146.2349646 -104.265625 146.26171875 C-104.595625 145.93171875 -104.925625 145.60171875 -105.265625 145.26171875 C-105.23693668 141.56809723 -104.72909972 137.92231073 -104.265625 134.26171875 C-104.05679688 132.41126953 -104.05679688 132.41126953 -103.84375 130.5234375 C-103.28119857 126.86305218 -102.70086277 123.67895154 -101.265625 120.26171875 C-98.38212204 118.22329215 -95.75712552 117.56914647 -92.265625 117.26171875 C-93.07644531 116.90722656 -93.88726562 116.55273438 -94.72265625 116.1875 C-104.82771035 111.32907469 -112.57864676 104.77460485 -117.61328125 94.515625 C-120.59308274 85.63165871 -119.94085087 76.83262286 -116.265625 68.26171875 C-114.54747536 65.29643868 -112.56016647 62.80058639 -110.265625 60.26171875 C-109.770625 59.66617188 -109.275625 59.070625 -108.765625 58.45703125 C-99.70023941 49.01392126 -84.58381123 46.22226238 -72.13037109 44.45947266 C-66.37193511 43.53719654 -62.55810778 41.39987506 -57.8828125 38.0390625 C-46.92307043 30.59625259 -34.06500446 28.95152447 -21.265625 27.26171875 C-21.74 26.66359375 -22.214375 26.06546875 -22.703125 25.44921875 C-25.86983092 21.01583046 -25.71544096 16.49757647 -25.265625 11.26171875 C-23.97180506 6.54851753 -21.63939443 4.53767571 -17.703125 1.88671875 C-11.73071993 -1.41679497 -6.52584901 -2.12652666 0 0 Z M-48.703125 57.13671875 C-54.73658357 63.57817759 -57.66722227 70.70323658 -57.5390625 79.5078125 C-56.71035049 87.85412635 -52.53105467 94.82187819 -46.265625 100.26171875 C-38.74441769 105.65449056 -30.394295 109.53741442 -21.265625 111.26171875 C-18.98359923 110.94467276 -18.98359923 110.94467276 -17.265625 110.26171875 C-17.66394531 109.31425781 -17.66394531 109.31425781 -18.0703125 108.34765625 C-26.22998108 87.6804665 -24.67177464 64.18847424 -18.265625 43.26171875 C-28.88310579 43.26171875 -41.22956139 50.11734961 -48.703125 57.13671875 Z M4.734375 44.26171875 C5.023125 45.14085937 5.311875 46.02 5.609375 46.92578125 C11.26919767 66.06293076 11.21669101 88.36147207 4.734375 107.26171875 C4.38577989 108.59114357 4.0446072 109.92282187 3.734375 111.26171875 C14.8438065 110.62079001 26.75679228 105.57361818 34.48046875 97.41796875 C39.55629826 91.03837256 43.55317002 83.92383022 43.1171875 75.58203125 C41.74820489 67.28432035 37.5320795 59.19884845 30.9921875 53.83203125 C22.98970996 48.48597779 14.26162469 45.20623057 4.734375 44.26171875 Z M61.734375 58.26171875 C62.023125 58.85855469 62.311875 59.45539063 62.609375 60.0703125 C66.65798047 69.53111625 67.68557907 79.85977548 64.6640625 89.7734375 C60.34763711 99.17286656 53.73099417 104.5759796 44.734375 109.26171875 C44.734375 109.59171875 44.734375 109.92171875 44.734375 110.26171875 C58.56350886 111.06470072 70.60062945 107.85894636 81.40625 98.87109375 C85.09969852 94.39550319 86.36259133 87.03790211 86.07421875 81.328125 C84.85440269 73.91108255 81.92196541 68.41815812 76.03125 63.734375 C71.89269272 61.08091225 66.75627538 58.26171875 61.734375 58.26171875 Z M-91.265625 65.26171875 C-96.80129961 70.79739336 -100.52342804 75.47590859 -100.640625 83.57421875 C-100.48368012 90.06999294 -98.92213423 94.39362914 -94.5 99.16796875 C-84.0688378 108.85991473 -73.13519932 110.68414233 -59.265625 110.26171875 C-61.76767634 107.67050745 -64.27451865 105.41773735 -67.203125 103.32421875 C-74.10020832 98.1929935 -78.47280948 93.0883692 -81.015625 84.82421875 C-81.098125 83.97859375 -81.180625 83.13296875 -81.265625 82.26171875 C-81.32878906 81.65199219 -81.39195313 81.04226563 -81.45703125 80.4140625 C-81.8844185 72.81759877 -79.65592083 65.04231041 -76.265625 58.26171875 C-81.58339839 58.26171875 -87.21535539 62.13963592 -91.265625 65.26171875 Z " fill="#D9B32C" transform="translate(204.265625,257.73828125)"/>
<path d="M0 0 C3.91123504 3.26841632 6.0998419 7.64718194 7.6875 12.41015625 C7.81531786 15.08410589 7.73141871 17.73111482 7.6875 20.41015625 C6.6975 20.41015625 5.7075 20.41015625 4.6875 20.41015625 C5.1825 21.89515625 5.1825 21.89515625 5.6875 23.41015625 C5.78169337 25.19983029 5.81740998 26.99301188 5.8125 28.78515625 C5.81636719 30.18894531 5.81636719 30.18894531 5.8203125 31.62109375 C5.69191441 34.31745372 5.28938709 36.78287134 4.6875 39.41015625 C3.6975 39.41015625 2.7075 39.41015625 1.6875 39.41015625 C1.5946875 41.17359375 1.5946875 41.17359375 1.5 42.97265625 C1.01043417 47.22811312 -0.56174469 49.59437949 -3.3515625 52.76953125 C-4.51418779 54.37104321 -4.51418779 54.37104321 -4.06787109 56.30786133 C-3.17483529 58.79329484 -2.11548908 59.8975718 -0.1875 61.6875 C0.43640625 62.28369141 1.0603125 62.87988281 1.703125 63.49414062 C3.02409473 64.72799916 4.34700896 65.95977923 5.671875 67.18945312 C11.5480412 72.81673212 11.5480412 72.81673212 11.6875 77.41015625 C12.3475 77.41015625 13.0075 77.41015625 13.6875 77.41015625 C14.19410156 78.33248047 14.19410156 78.33248047 14.7109375 79.2734375 C15.15695312 80.08167969 15.60296875 80.88992188 16.0625 81.72265625 C16.50335938 82.52316406 16.94421875 83.32367187 17.3984375 84.1484375 C18.42263335 85.94543568 19.54017138 87.68916333 20.6875 89.41015625 C23.77115871 89.66037195 23.77115871 89.66037195 26.6875 89.41015625 C26.26232955 83.75322742 24.64189397 80.13147459 21.375 75.47265625 C20.55175072 74.24936712 19.73140667 73.02411752 18.9140625 71.796875 C18.52508789 71.21470215 18.13611328 70.6325293 17.73535156 70.03271484 C15.7482275 66.95572823 14.22429169 63.72962629 12.6875 60.41015625 C12.33171875 59.83265625 11.9759375 59.25515625 11.609375 58.66015625 C8.61440227 51.35039229 10.36012701 40.94669838 12.1875 33.47265625 C14.60456415 23.53076973 16.03997315 8.71280577 11.125 -0.52734375 C10.650625 -1.20796875 10.17625 -1.88859375 9.6875 -2.58984375 C14.89738728 -0.9524506 18.29909416 1.96391739 21 6.72265625 C21.226875 7.27953125 21.45375 7.83640625 21.6875 8.41015625 C22.244375 7.60578125 22.80125 6.80140625 23.375 5.97265625 C25.97239785 3.09445863 26.99652107 2.94268555 30.6875 2.41015625 C30.21570313 3.08884766 30.21570313 3.08884766 29.734375 3.78125 C25.29566322 10.8537757 23.72608181 18.3195644 22.09423828 26.39746094 C21.74684287 28.11650524 21.3740578 29.83038588 20.99609375 31.54296875 C19.22279614 40.44665884 19.5068135 49.3758313 19.6875 58.41015625 C20.3475 58.41015625 21.0075 58.41015625 21.6875 58.41015625 C21.955625 57.81203125 22.22375 57.21390625 22.5 56.59765625 C23.68667406 54.41167771 24.78349113 52.99683031 26.6875 51.41015625 C27.3475 51.41015625 28.0075 51.41015625 28.6875 51.41015625 C28.39875 52.11140625 28.11 52.81265625 27.8125 53.53515625 C26.66616412 56.46468128 25.66124346 59.41937278 24.6875 62.41015625 C26.6675 60.76015625 28.6475 59.11015625 30.6875 57.41015625 C30.3575 58.33828125 30.0275 59.26640625 29.6875 60.22265625 C28.53782996 63.33044916 28.53782996 63.33044916 28.6875 66.41015625 C29.6775 65.42015625 30.6675 64.43015625 31.6875 63.41015625 C32.3475 63.74015625 33.0075 64.07015625 33.6875 64.41015625 C33.38714844 65.0134375 33.08679688 65.61671875 32.77734375 66.23828125 C32.39707031 67.0375 32.01679688 67.83671875 31.625 68.66015625 C31.24214844 69.4490625 30.85929687 70.23796875 30.46484375 71.05078125 C29.57741312 73.74428928 29.66564853 74.80230615 30.6875 77.41015625 C31.368125 78.52390625 32.04875 79.63765625 32.75 80.78515625 C34.7191478 84.16805119 35.362654 86.44362653 34.6875 90.41015625 C32.64756092 94.06797805 31.18330738 96.07961799 27.6875 98.41015625 C21.62808154 99.10931992 18.50986826 97.84145674 13.6875 94.41015625 C12.64400161 92.77037307 11.63142019 91.10921259 10.6875 89.41015625 C9.6975 89.41015625 8.7075 89.41015625 7.6875 89.41015625 C4.74602226 95.04798859 3.83142158 100.05071657 4.6875 106.41015625 C6.32223516 109.53490252 6.32223516 109.53490252 8.8125 110.09765625 C9.43125 110.20078125 10.05 110.30390625 10.6875 110.41015625 C10.6875 109.75015625 10.6875 109.09015625 10.6875 108.41015625 C11.3475 108.41015625 12.0075 108.41015625 12.6875 108.41015625 C12.55712493 115.52152372 12.12876274 120.64559758 7.8984375 126.453125 C5.8188732 129.81396923 5.28636953 133.54878856 4.6875 137.41015625 C3.91921875 137.47203125 3.1509375 137.53390625 2.359375 137.59765625 C-0.48419904 138.15900716 -0.48419904 138.15900716 -1.859375 140.66015625 C-2.25640625 141.56765625 -2.6534375 142.47515625 -3.0625 143.41015625 C-5.30219072 148.39984697 -5.30219072 148.39984697 -6.3125 149.41015625 C-7.97867115 149.45079457 -9.64638095 149.45287725 -11.3125 149.41015625 C-11.3125 150.40015625 -11.3125 151.39015625 -11.3125 152.41015625 C-12.3025 152.41015625 -13.2925 152.41015625 -14.3125 152.41015625 C-14.6425 151.75015625 -14.9725 151.09015625 -15.3125 150.41015625 C-16.6325 150.41015625 -17.9525 150.41015625 -19.3125 150.41015625 C-19.8075 147.93515625 -19.8075 147.93515625 -20.3125 145.41015625 C-21.9625 145.41015625 -23.6125 145.41015625 -25.3125 145.41015625 C-25.51390476 141.78487057 -25.17026765 139.54513917 -23.3125 136.41015625 C-23.9725 136.74015625 -24.6325 137.07015625 -25.3125 137.41015625 C-25.3125 136.75015625 -25.3125 136.09015625 -25.3125 135.41015625 C-25.9725 135.41015625 -26.6325 135.41015625 -27.3125 135.41015625 C-26.3125 132.41015625 -26.3125 132.41015625 -24.5 131.16015625 C-21.93423269 130.2804646 -20.82499709 130.48890732 -18.3125 131.41015625 C-17.6525 131.74015625 -16.9925 132.07015625 -16.3125 132.41015625 C-12.89555467 132.78981684 -10.87768734 132.7068796 -7.8125 131.09765625 C-4.0568371 127.06031863 -1.77302519 122.31429581 0.6875 117.41015625 C-0.09625 117.88453125 -0.88 118.35890625 -1.6875 118.84765625 C-3.20198678 119.74913648 -4.7360897 120.6219511 -6.3125 121.41015625 C-6.3125 118.77015625 -6.3125 116.13015625 -6.3125 113.41015625 C-6.9725 113.41015625 -7.6325 113.41015625 -8.3125 113.41015625 C-10.96961071 108.80449768 -11.36580968 104.18290784 -11.34765625 98.94921875 C-10.98956888 88.35017685 -10.98956888 88.35017685 -15.9375 79.47265625 C-18.08771205 77.77519393 -18.08771205 77.77519393 -20.3125 76.41015625 C-20.89644531 75.96542969 -21.48039062 75.52070312 -22.08203125 75.0625 C-26.66453217 71.89660358 -30.99412472 71.97600317 -36.3125 72.41015625 C-35.961875 73.15265625 -35.61125 73.89515625 -35.25 74.66015625 C-34.3125 77.41015625 -34.3125 77.41015625 -35.3125 81.41015625 C-38.2825 81.41015625 -41.2525 81.41015625 -44.3125 81.41015625 C-44.36148438 82.33699219 -44.41046875 83.26382813 -44.4609375 84.21875 C-44.53570312 85.41628906 -44.61046875 86.61382813 -44.6875 87.84765625 C-44.75710937 89.04261719 -44.82671875 90.23757813 -44.8984375 91.46875 C-45.03507812 92.43941406 -45.17171875 93.41007813 -45.3125 94.41015625 C-46.3025 94.90515625 -46.3025 94.90515625 -47.3125 95.41015625 C-47.3125 94.75015625 -47.3125 94.09015625 -47.3125 93.41015625 C-48.9625 93.08015625 -50.6125 92.75015625 -52.3125 92.41015625 C-52.9725 94.06015625 -53.6325 95.71015625 -54.3125 97.41015625 C-56.2925 97.41015625 -58.2725 97.41015625 -60.3125 97.41015625 C-60.3125 95.10015625 -60.3125 92.79015625 -60.3125 90.41015625 C-59.6525 90.41015625 -58.9925 90.41015625 -58.3125 90.41015625 C-58.6425 89.75015625 -58.9725 89.09015625 -59.3125 88.41015625 C-60.240625 88.68859375 -60.240625 88.68859375 -61.1875 88.97265625 C-63.3125 89.41015625 -63.3125 89.41015625 -65.3125 88.41015625 C-64.4375 83.53515625 -64.4375 83.53515625 -63.3125 82.41015625 C-61.64632885 82.36951793 -59.97861905 82.36743525 -58.3125 82.41015625 C-58.3125 81.75015625 -58.3125 81.09015625 -58.3125 80.41015625 C-59.6325 80.41015625 -60.9525 80.41015625 -62.3125 80.41015625 C-62.3125 79.42015625 -62.3125 78.43015625 -62.3125 77.41015625 C-62.9725 77.41015625 -63.6325 77.41015625 -64.3125 77.41015625 C-63.9825 76.42015625 -63.6525 75.43015625 -63.3125 74.41015625 C-59.46704314 74.32072702 -56.06524011 74.59823462 -52.3125 75.41015625 C-51.16454994 73.95348855 -50.01920581 72.49476688 -48.875 71.03515625 C-48.23691406 70.22304688 -47.59882813 69.4109375 -46.94140625 68.57421875 C-45.29026453 66.51617519 -45.29026453 66.51617519 -44.3125 64.41015625 C-44.910625 64.14203125 -45.50875 63.87390625 -46.125 63.59765625 C-48.35487457 62.38715291 -49.76740692 61.41877725 -51.3125 59.41015625 C-51.3125 58.09015625 -51.3125 56.77015625 -51.3125 55.41015625 C-49.91307397 54.52271535 -48.50923271 53.64160017 -47.0859375 52.79296875 C-44.05156207 50.42695795 -42.22672169 47.18463991 -40.1015625 44.015625 C-36.10176047 38.1905858 -32.16501608 32.83708903 -25.3125 30.41015625 C-23.4871875 30.16265625 -23.4871875 30.16265625 -21.625 29.91015625 C-18.39272545 29.67340846 -18.39272545 29.67340846 -16.4375 28.09765625 C-15.18170188 26.21395908 -14.69545049 24.63126911 -14.3125 22.41015625 C-16.78050047 23.5618898 -18.36033565 24.4579919 -20.3125 26.41015625 C-22.17026765 23.27517333 -22.51390476 21.03544193 -22.3125 17.41015625 C-20.6625 17.41015625 -19.0125 17.41015625 -17.3125 17.41015625 C-17.3125 14.44015625 -17.3125 11.47015625 -17.3125 8.41015625 C-21.2839169 9.03857598 -21.2839169 9.03857598 -23.3125 11.41015625 C-24.88989052 8.90488896 -25.38315754 7.82400754 -24.875 4.84765625 C-24.5965625 3.64109375 -24.5965625 3.64109375 -24.3125 2.41015625 C-24.8075 0.92515625 -24.8075 0.92515625 -25.3125 -0.58984375 C-17.21941372 -3.53278422 -7.69025533 -4.46996091 0 0 Z " fill="#FDFCF8" transform="translate(284.3125,479.58984375)"/>
<path d="M0 0 C11.88 0 23.76 0 36 0 C38.5958542 17.8001431 41.14779951 35.60079045 43.42324829 53.44482422 C43.63729265 55.11863634 43.85365737 56.79215375 44.07260132 58.46533203 C44.17650177 59.26181152 44.28040222 60.05829102 44.38745117 60.87890625 C44.52349007 61.91446655 44.52349007 61.91446655 44.66227722 62.97094727 C45.92950255 73.41275433 46.44195711 83.39718501 47 94 C27.86 94 8.72 94 -11 94 C-9.80514558 82.64888297 -8.59020981 71.34613245 -7.08984375 60.0390625 C-6.91542999 58.70734594 -6.7413302 57.37558822 -6.56752014 56.04379272 C-5.84393475 50.50403748 -5.11433537 44.96507833 -4.38354492 39.42626953 C-3.93094377 35.99417489 -3.48176146 32.5616453 -3.03445625 29.12885666 C-2.78619274 27.23168444 -2.53402974 25.33502375 -2.28172302 23.43838501 C-2.12808792 22.25940643 -1.97445282 21.08042786 -1.81616211 19.86572266 C-1.68229599 18.85047516 -1.54842987 17.83522766 -1.4105072 16.78921509 C-0.80562028 11.20576454 -0.43073677 5.59957802 0 0 Z M11 28 C11 29.32 11 30.64 11 32 C15.62 32 20.24 32 25 32 C25 30.68 25 29.36 25 28 C20.38 28 15.76 28 11 28 Z M12 46 C12 47.32 12 48.64 12 50 C16.29 50 20.58 50 25 50 C25 48.68 25 47.36 25 46 C20.71 46 16.42 46 12 46 Z M11 64 C11 65.32 11 66.64 11 68 C15.62 68 20.24 68 25 68 C25 66.68 25 65.36 25 64 C20.38 64 15.76 64 11 64 Z " fill="#D9B32C" transform="translate(121,493)"/>
<path d="M0 0 C23.1 0 46.2 0 70 0 C70 8.58 70 17.16 70 26 C63.4 26 56.8 26 50 26 C50 23.69 50 21.38 50 19 C40.1 19 30.2 19 20 19 C20 21.31 20 23.62 20 26 C13.4 26 6.8 26 0 26 C0 17.42 0 8.84 0 0 Z " fill="#D9B32C" transform="translate(104,589)"/>
<path d="M0 0 C3.96 0 7.92 0 12 0 C12 3.3 12 6.6 12 10 C14.31 10 16.62 10 19 10 C19 6.7 19 3.4 19 0 C22.96 0 26.92 0 31 0 C31.33 2.97 31.66 5.94 32 9 C33.98 9.33 35.96 9.66 38 10 C38 6.7 38 3.4 38 0 C42.29 0 46.58 0 51 0 C51 8.58 51 17.16 51 26 C34.17 26 17.34 26 0 26 C0 17.42 0 8.84 0 0 Z " fill="#D9B32C" transform="translate(114,465)"/>
<path d="M0 0 C2.375 0.4375 2.375 0.4375 5.375 2.4375 C6.07881157 4.42473268 6.7461811 6.42527953 7.375 8.4375 C8.035 9.0975 8.695 9.7575 9.375 10.4375 C9.5 13.5625 9.5 13.5625 9.375 16.4375 C7.725 16.4375 6.075 16.4375 4.375 16.4375 C2.66921233 22.47336405 4.06661331 25.73573226 6.953125 31.203125 C8.263549 33.26236272 9.57341169 34.80547294 11.375 36.4375 C10.7734375 38.3359375 10.7734375 38.3359375 9.375 40.4375 C6.4765625 41.4140625 6.4765625 41.4140625 3 42.0625 C-0.86938768 42.8049333 -4.19449472 43.46031223 -7.625 45.4375 C-7.955 44.7775 -8.285 44.1175 -8.625 43.4375 C-11.09270934 43.86296713 -12.33699641 44.12445262 -14.0625 46 C-15.625 47.4375 -15.625 47.4375 -18.3125 47.625 C-19.4571875 47.5321875 -19.4571875 47.5321875 -20.625 47.4375 C-20.955 48.0975 -21.285 48.7575 -21.625 49.4375 C-21.625 46.1375 -21.625 42.8375 -21.625 39.4375 C-21.955 40.7575 -22.285 42.0775 -22.625 43.4375 C-24.275 43.1075 -25.925 42.7775 -27.625 42.4375 C-26.92558404 39.29012818 -25.86421302 36.41161124 -24.625 33.4375 C-25.615 34.0975 -26.605 34.7575 -27.625 35.4375 C-28.615 34.7775 -29.605 34.1175 -30.625 33.4375 C-28.875 29.5625 -28.875 29.5625 -26.625 28.4375 C-26.625 26.7875 -26.625 25.1375 -26.625 23.4375 C-24.5 23 -24.5 23 -21.625 23.4375 C-20.37890625 24.9609375 -20.37890625 24.9609375 -19.0625 26.875 C-16.96606245 29.61862276 -16.00410876 30.35206704 -12.57421875 31.125 C-9.57803573 31.35032986 -6.62886584 31.47152437 -3.625 31.4375 C-3.9859375 30.9528125 -4.346875 30.468125 -4.71875 29.96875 C-8.27776823 24.82794589 -9.18118754 21.6668004 -8.625 15.4375 C-9.945 15.1075 -11.265 14.7775 -12.625 14.4375 C-12.955 12.7875 -13.285 11.1375 -13.625 9.4375 C-12.738125 8.880625 -11.85125 8.32375 -10.9375 7.75 C-8.55505065 6.18966346 -7.05895466 4.83003671 -5.0625 2.6875 C-2.625 0.4375 -2.625 0.4375 0 0 Z " fill="#FCFAF3" transform="translate(261.625,557.5625)"/>
<path d="M0 0 C1.32 0 2.64 0 4 0 C4 1.32 4 2.64 4 4 C4.74765625 4.18175781 5.4953125 4.36351562 6.265625 4.55078125 C7.25046875 4.80214844 8.2353125 5.05351562 9.25 5.3125 C10.22453125 5.55613281 11.1990625 5.79976563 12.203125 6.05078125 C15.02660469 7.00902925 16.81953327 7.98217881 19 10 C19.5625 12.5 19.5625 12.5 19 15 C16.6167054 16.81883009 15.04181663 18 12 18 C12 18.66 12 19.32 12 20 C5.4 20 -1.2 20 -8 20 C-8 19.34 -8 18.68 -8 18 C-8.78375 17.87625 -9.5675 17.7525 -10.375 17.625 C-13 17 -13 17 -15 15 C-15.3125 12.5625 -15.3125 12.5625 -15 10 C-12.85117331 7.30210403 -10.75115813 6.33661481 -7.5 5.3125 C-6.7265625 5.06113281 -5.953125 4.80976563 -5.15625 4.55078125 C-3 4 -3 4 0 4 C0 2.68 0 1.36 0 0 Z " fill="#F9F3DE" transform="translate(271,455)"/>
<path d="M0 0 C0.99 0.66 1.98 1.32 3 2 C3.046875 4.72265625 3.046875 4.72265625 2.75 8.0625 C2.57963279 13.37913178 3.09099251 15.93963719 6.5625 20 C7.55443359 20.99 7.55443359 20.99 8.56640625 22 C10 24 10 24 9.8359375 26.57421875 C8.77291166 29.65898065 7.22831669 31.63663382 5 34 C4.34 34 3.68 34 3 34 C1.5625 32.28515625 1.5625 32.28515625 0 30.0625 C-2.04816804 27.01367363 -2.04816804 27.01367363 -5 25 C-5.33 25.99 -5.66 26.98 -6 28 C-7.98 28 -9.96 28 -12 28 C-11.34 27.01 -10.68 26.02 -10 25 C-9.34857685 18.48576853 -10.50921294 15.45435478 -14 10 C-14 9.34 -14 8.68 -14 8 C-11.75 7.75 -11.75 7.75 -9 8 C-6.6875 10 -6.6875 10 -5 12 C-5.495 11.278125 -5.99 10.55625 -6.5 9.8125 C-8.07919285 6.85151341 -8.28178312 5.28746971 -8 2 C-5.5625 2.8125 -5.5625 2.8125 -3 4 C-2.67 4.99 -2.34 5.98 -2 7 C-1.34 4.69 -0.68 2.38 0 0 Z " fill="#FDFBF6" transform="translate(233,496)"/>
<path d="M0 0 C-0.33 3.3 -0.66 6.6 -1 10 C-2.74480197 10.41815082 -4.49622557 10.80873982 -6.25 11.1875 C-7.22453125 11.40792969 -8.1990625 11.62835938 -9.203125 11.85546875 C-12 12 -12 12 -14.33203125 10.70703125 C-16 9 -16 9 -16.4375 6.5 C-16 4 -16 4 -14.875 2.3125 C-9.91429264 -1.15999515 -5.80654323 -1.16130865 0 0 Z " fill="#F7EFD4" transform="translate(272,461)"/>
<path d="M0 0 C0.99 0 1.98 0 3 0 C3.33 5.28 3.66 10.56 4 16 C6.97 16.33 9.94 16.66 13 17 C12.67 17.99 12.34 18.98 12 20 C5.4 20 -1.2 20 -8 20 C-8.33 19.01 -8.66 18.02 -9 17 C-6.03 16.67 -3.06 16.34 0 16 C-0.020625 14.906875 -0.04125 13.81375 -0.0625 12.6875 C0 9 0 9 1 6 C-0.32 6 -1.64 6 -3 6 C-3 5.34 -3 4.68 -3 4 C-2.01 4 -1.02 4 0 4 C0 2.68 0 1.36 0 0 Z " fill="#FBF7E9" transform="translate(271,455)"/>
<path d="M0 0 C1.32 0 2.64 0 4 0 C5.4783226 2.95664519 5.06032783 5.74229737 5 9 C2.46053077 9.84648974 1.09437602 10.02071669 -1.5625 9.4375 C-4.24805134 8.66489008 -4.24805134 8.66489008 -7 11 C-9.6875 10.625 -9.6875 10.625 -12 10 C-12 8.35 -12 6.7 -12 5 C-10.6078125 5.2784375 -10.6078125 5.2784375 -9.1875 5.5625 C-5.98656229 6.24123881 -5.98656229 6.24123881 -3 5 C-2.2884375 3.7315625 -2.2884375 3.7315625 -1.5625 2.4375 C-1.046875 1.633125 -0.53125 0.82875 0 0 Z " fill="#DFBF4C" transform="translate(263,488)"/>
<path d="M0 0 C1.14626322 0.97866338 2.29199788 1.95794587 3.4375 2.9375 C4.07558594 3.48277344 4.71367187 4.02804687 5.37109375 4.58984375 C6.26991149 5.36795695 7.15936528 6.15936528 8 7 C8.08651611 8.41570123 8.10704904 9.835595 8.09765625 11.25390625 C8.09443359 12.10791016 8.09121094 12.96191406 8.08789062 13.84179688 C8.07951172 14.73962891 8.07113281 15.63746094 8.0625 16.5625 C8.05798828 17.46419922 8.05347656 18.36589844 8.04882812 19.29492188 C8.03700225 21.53001314 8.0205222 23.76497437 8 26 C7.67 26 7.34 26 7 26 C6.89042969 24.95199219 6.78085937 23.90398438 6.66796875 22.82421875 C6.50849426 21.44523349 6.34830034 20.06633129 6.1875 18.6875 C6.11724609 17.99720703 6.04699219 17.30691406 5.97460938 16.59570312 C5.50182124 12.68101735 5.06305473 10.53034956 2 8 C1.8125 5.3125 1.8125 5.3125 2 3 C1.01 2.67 0.02 2.34 -1 2 C-0.67 1.34 -0.34 0.68 0 0 Z " fill="#E0C254" transform="translate(265,557)"/>
<path d="M0 0 C0.33 0.66 0.66 1.32 1 2 C2.8871875 1.690625 2.8871875 1.690625 4.8125 1.375 C8.4014758 0.78664331 8.75073878 0.83382585 12 3 C11.67 3.66 11.34 4.32 11 5 C4.4 5 -2.2 5 -9 5 C-9.33 4.01 -9.66 3.02 -10 2 C-6.33694766 1.25073929 -3.57644848 0.7619986 0 2 C0 1.34 0 0.68 0 0 Z " fill="#FEFDFB" transform="translate(272,470)"/>
<path d="M0 0 C1.32 0 2.64 0 4 0 C4 2.97 4 5.94 4 9 C0 8 0 8 -2 6 C-1.44444444 1.44444444 -1.44444444 1.44444444 0 0 Z " fill="#DDBA3E" transform="translate(267,462)"/>
<path d="M0 0 C4 1 4 1 6 2 C5.25 6.75 5.25 6.75 3 9 C2.01 9 1.02 9 0 9 C0 6.03 0 3.06 0 0 Z " fill="#DCBA3D" transform="translate(275,462)"/>
<path d="M0 0 C0.86625 0.185625 1.7325 0.37125 2.625 0.5625 C6.05152628 1.00667933 8.64212371 0.71954492 12 0 C9.33570345 3.05610486 7.71866373 4.80651361 3.75 5.875 C2.38875 5.936875 2.38875 5.936875 1 6 C0 5 0 5 -0.0625 2.4375 C-0.041875 1.633125 -0.02125 0.82875 0 0 Z " fill="#F9F2DD" transform="translate(251,493)"/>
<path d="M0 0 C-0.99 0.495 -0.99 0.495 -2 1 C-1.67 2.32 -1.34 3.64 -1 5 C-3.64 5.33 -6.28 5.66 -9 6 C-9 4.68 -9 3.36 -9 2 C-5.5647952 -0.29013653 -4.014669 -0.17842973 0 0 Z " fill="#EEDDA1" transform="translate(278,477)"/>
<path d="M0 0 C0.99 0.33 1.98 0.66 3 1 C2.071875 2.1446875 2.071875 2.1446875 1.125 3.3125 C-1.05597052 5.99625809 -1.05597052 5.99625809 -3 9 C-4.32 9 -5.64 9 -7 9 C-5.66087415 4.61740632 -3.87774964 2.45906075 0 0 Z " fill="#F8F1D9" transform="translate(312,482)"/>
<path d="M0 0 C0.66 0.33 1.32 0.66 2 1 C0.90033225 2.29549899 -0.20491801 3.58626071 -1.3125 4.875 C-1.92738281 5.59429688 -2.54226562 6.31359375 -3.17578125 7.0546875 C-5 9 -5 9 -8 11 C-6.52670958 5.99081256 -3.72484762 3.48192278 0 0 Z " fill="#F7EED2" transform="translate(254,512)"/>
<path d="M0 0 C0.99 0 1.98 0 3 0 C3.625 2.375 3.625 2.375 4 5 C2 7 2 7 -0.625 7.125 C-1.40875 7.08375 -2.1925 7.0425 -3 7 C-2.34 6.34 -1.68 5.68 -1 5 C-0.35232207 2.42938689 -0.35232207 2.42938689 0 0 Z " fill="#DEBD46" transform="translate(284,464)"/>
<path d="M0 0 C0.66 0 1.32 0 2 0 C2.34179688 2.97851562 2.34179688 2.97851562 2.68359375 5.95703125 C2.97170735 8.19396393 2.97170735 8.19396393 4 11 C3.01 11 2.02 11 1 11 C-0.6875 9 -0.6875 9 -2 7 C-1.34 7 -0.68 7 0 7 C0 4.69 0 2.38 0 0 Z " fill="#EDDB9C" transform="translate(269,621)"/>
<path d="M0 0 C0.99 0.66 1.98 1.32 3 2 C0.69 4.97 -1.62 7.94 -4 11 C-4.66 10.34 -5.32 9.68 -6 9 C-4.02 6.03 -2.04 3.06 0 0 Z " fill="#DFBE4A" transform="translate(243,521)"/>
<path d="M0 0 C1.32 0 2.64 0 4 0 C4 1.65 4 3.3 4 5 C2 5 0 5 -2 5 C-1.34 3.35 -0.68 1.7 0 0 Z " fill="#DDBA3E" transform="translate(263,488)"/>
<path d="M0 0 C0.66 0 1.32 0 2 0 C2.66 2.31 3.32 4.62 4 7 C2.35 6.67 0.7 6.34 -1 6 C-1.625 4.125 -1.625 4.125 -2 2 C-1.34 1.34 -0.68 0.68 0 0 Z " fill="#DDBB42" transform="translate(260,464)"/>
<path d="M0 0 C0.33 1.32 0.66 2.64 1 4 C2.65 4.33 4.3 4.66 6 5 C5.67 6.32 5.34 7.64 5 9 C3.68 8.34 2.36 7.68 1 7 C0.67 7.66 0.34 8.32 0 9 C0 6.03 0 3.06 0 0 Z " fill="#F6EDCD" transform="translate(274,455)"/>
<path d="M0 0 C0.99 0.66 1.98 1.32 3 2 C3.1875 5.625 3.1875 5.625 3 9 C2.67 9 2.34 9 2 9 C1.67 7.35 1.34 5.7 1 4 C0.67 5.98 0.34 7.96 0 10 C-0.66 9.67 -1.32 9.34 -2 9 C-1.34 6.03 -0.68 3.06 0 0 Z " fill="#F6EDCE" transform="translate(233,496)"/>
<path d="M0 0 C-2 2 -4 4 -6 6 C-6 5.34 -6 4.68 -6 4 C-6.66 4 -7.32 4 -8 4 C-7 1 -7 1 -5.125 -0.25 C-3 -1 -3 -1 0 0 Z " fill="#F8F1DA" transform="translate(265,611)"/>
<path d="M0 0 C0.99 0.495 0.99 0.495 2 1 C1.95875 1.721875 1.9175 2.44375 1.875 3.1875 C2.00921305 6.20729369 2.75170619 8.26935729 4 11 C2.68 10.34 1.36 9.68 0 9 C0 6.03 0 3.06 0 0 Z " fill="#E7CF78" transform="translate(224,497)"/>
</svg>
