<?xml version="1.0" encoding="UTF-8"?>
<svg version="1.1" xmlns="http://www.w3.org/2000/svg" width="1024" height="378">
<path d="M0 0 C2.0286284 1.31222466 4.05219414 2.4142821 6.234375 3.4453125 C7.11996094 2.81625 8.00554687 2.1871875 8.91796875 1.5390625 C37.73545299 -18.53856366 71.4437898 -26.41005504 106.234375 -20.5546875 C128.51311198 -16.25304204 149.18287278 -6.56826434 166.234375 8.4453125 C167.07613281 9.15429688 167.91789062 9.86328125 168.78515625 10.59375 C192.8490993 31.326914 206.91443306 62.14816046 209.859375 93.5078125 C212.14481868 126.04421986 203.00296766 159.85885499 181.49609375 184.87109375 C180.74972656 185.72058594 180.00335937 186.57007813 179.234375 187.4453125 C178.56019531 188.26386719 177.88601563 189.08242188 177.19140625 189.92578125 C156.62463838 214.19688254 125.03401084 228.23465584 93.71630859 231.04638672 C64.74557764 233.12336354 37.80243746 225.72703835 13.234375 210.4453125 C11.93113281 209.64673828 11.93113281 209.64673828 10.6015625 208.83203125 C8.80239256 207.7193042 7.01616704 206.58565941 5.234375 205.4453125 C4.32558594 206.08597656 3.41679688 206.72664062 2.48046875 207.38671875 C-26.28757957 227.32715224 -60.13920482 235.28336918 -94.765625 229.4453125 C-119.78868086 224.5820689 -140.99056368 213.55610246 -159.765625 196.4453125 C-160.49007812 195.80335938 -161.21453125 195.16140625 -161.9609375 194.5 C-183.83039102 174.04719124 -197.66584474 142.23102786 -198.765625 112.4453125 C-198.8171875 111.31867188 -198.86875 110.19203125 -198.921875 109.03125 C-199.77969419 73.36026889 -186.72864522 42.23748829 -163.36328125 15.71875 C-120.58312173 -29.12567679 -50.52475256 -33.73547143 0 0 Z " fill="#F79D1A" transform="translate(751.765625,84.5546875)"/>
<path d="M0 0 C0.99 0.66 1.98 1.32 3 2 C2.43991823 5.58607913 1.29868576 6.93855609 -1.5 9.1875 C-25.22371106 29.19646627 -40.09661505 58.15192478 -43.625 89 C-46.19269938 123.68816519 -37.16475595 157.53021169 -14.43896484 184.375 C-9.19953046 190.29180951 -3.58720618 196.60852921 3 201 C3 201.99 3 202.98 3 204 C0.84526754 205.74823683 -1.24124474 207.25170938 -3.5625 208.75 C-4.23925781 209.19174561 -4.91601562 209.63349121 -5.61328125 210.08862305 C-34.09170068 228.24691155 -68.9404841 234.13301147 -101.88671875 226.99609375 C-125.04413092 221.51570162 -144.45345355 210.99117391 -162 195 C-162.72445312 194.35804688 -163.44890625 193.71609375 -164.1953125 193.0546875 C-186.06476602 172.60187874 -199.90021974 140.78571536 -201 111 C-201.0515625 109.87335938 -201.103125 108.74671875 -201.15625 107.5859375 C-202.01406919 71.91495639 -188.96302022 40.79217579 -165.59765625 14.2734375 C-121.72685035 -31.71426253 -51.16198739 -34.60682876 0 0 Z " fill="#EB001A" transform="translate(754,86)"/>
<path d="M0 0 C25.89204941 21.18440406 43.81601201 50.04987537 47.80151367 83.61621094 C50.85180695 120.24974547 42.3986399 153.51044365 18.609375 181.84765625 C16.45165823 184.280592 14.25269837 186.65501231 12 189 C11.35933594 189.66902344 10.71867188 190.33804688 10.05859375 191.02734375 C6.87959256 194.27500587 3.63025437 197.24980729 0 200 C-1.03060547 198.96166016 -1.03060547 198.96166016 -2.08203125 197.90234375 C-4.09488337 195.88666161 -6.13753884 193.90705091 -8.19921875 191.94140625 C-32.72304009 168.33819082 -47.48241949 137.09161824 -48.3684082 102.74780273 C-48.47372961 66.83320438 -34.53564633 35.03564482 -9.53515625 9.48046875 C-7.36906548 7.30735662 -5.1892754 5.14971018 -3 3 C-1.99888827 2.00111297 -0.99842891 1.00156862 0 0 Z " fill="#FE5E00" transform="translate(757,89)"/>
<path d="M0 0 C1.01938156 0.00424484 1.01938156 0.00424484 2.05935669 0.00857544 C4.20902858 0.01968286 6.35826864 0.04476859 8.5078125 0.0703125 C9.97395227 0.08035455 11.44009864 0.08947825 12.90625 0.09765625 C16.48192041 0.11788063 20.05730559 0.15578341 23.6328125 0.1953125 C27.24596003 13.93666389 30.1563921 27.80835019 33.0546875 41.71484375 C33.56444953 44.15105531 34.07440157 46.58722712 34.58453369 49.02336121 C35.64546061 54.09335923 36.70416013 59.16381568 37.76123047 64.23461914 C38.84662961 69.44061671 39.93470464 74.64604088 41.02587891 79.85083008 C42.34950598 86.16453062 43.67021495 92.47883334 44.98838043 98.79367638 C45.48988536 101.19450882 45.99227738 103.59515613 46.49556732 105.99561501 C47.19494166 109.333473 47.89047471 112.67210839 48.58496094 116.01098633 C48.79374374 117.00364502 49.00252655 117.99630371 49.21763611 119.01904297 C49.49925346 120.37888054 49.49925346 120.37888054 49.78656006 121.76618958 C49.95097469 122.55382092 50.11538933 123.34145227 50.28478622 124.15295124 C50.6328125 126.1953125 50.6328125 126.1953125 50.6328125 129.1953125 C40.0728125 129.1953125 29.5128125 129.1953125 18.6328125 129.1953125 C17.3128125 123.2553125 15.9928125 117.3153125 14.6328125 111.1953125 C-5.6621875 110.7003125 -5.6621875 110.7003125 -26.3671875 110.1953125 C-27.3571875 113.4953125 -28.3471875 116.7953125 -29.3671875 120.1953125 C-30.6871875 123.1653125 -32.0071875 126.1353125 -33.3671875 129.1953125 C-44.9171875 129.1953125 -56.4671875 129.1953125 -68.3671875 129.1953125 C-67.2422881 122.44591607 -67.2422881 122.44591607 -65.93115234 119.41357422 C-65.49246071 118.38514404 -65.49246071 118.38514404 -65.04490662 117.3359375 C-64.72586868 116.60632813 -64.40683075 115.87671875 -64.078125 115.125 C-63.7431752 114.34398926 -63.4082254 113.56297852 -63.06312561 112.75830078 C-62.3400073 111.07394895 -61.61393802 109.39086156 -60.88522339 107.70892334 C-58.92729212 103.18918889 -56.99108685 98.66013407 -55.05078125 94.1328125 C-54.65470169 93.21047821 -54.25862213 92.28814392 -53.85054016 91.33786011 C-50.41528628 83.33190729 -47.04890764 75.29859037 -43.71047974 67.25186157 C-42.80384812 65.0682909 -41.89442629 62.88590301 -40.98413086 60.70385742 C-38.02698521 53.61227483 -35.08497715 46.51506064 -32.17539978 39.40380859 C-30.74166493 35.90624979 -29.29727797 32.4131467 -27.85110474 28.92071533 C-27.16209494 27.24964203 -26.47778329 25.57662263 -25.79855347 23.90155029 C-24.85307308 21.57109727 -23.89125611 19.24800854 -22.92578125 16.92578125 C-22.65443359 16.24510086 -22.38308594 15.56442047 -22.10351562 14.8631134 C-19.60300245 8.93036451 -16.3721911 3.6648393 -10.45263672 0.77001953 C-6.90048062 0.10838197 -3.61452208 -0.02987208 0 0 Z M-0.3671875 39.1953125 C-3.98701834 47.64324054 -7.29260611 56.17775293 -10.4440918 64.80810547 C-11.1920672 66.85417691 -11.94642111 68.89782568 -12.70117188 70.94140625 C-13.18006637 72.24725695 -13.6585963 73.55324143 -14.13671875 74.859375 C-14.56573486 76.02936035 -14.99475098 77.1993457 -15.43676758 78.40478516 C-16.47262165 81.02127341 -16.47262165 81.02127341 -16.3671875 83.1953125 C-7.7871875 83.1953125 0.7928125 83.1953125 9.6328125 83.1953125 C5.1778125 61.4153125 5.1778125 61.4153125 0.6328125 39.1953125 C0.3028125 39.1953125 -0.0271875 39.1953125 -0.3671875 39.1953125 Z " fill="#1434CB" transform="translate(358.3671875,118.8046875)"/>
<path d="M0 0 C7.68473708 -0.09300645 15.36941521 -0.16391952 23.05458832 -0.20724869 C26.62383519 -0.22805315 30.19269474 -0.25623769 33.76171875 -0.30175781 C37.21120466 -0.345474 40.66031992 -0.36919071 44.11006165 -0.37950897 C46.05539182 -0.39041005 48.00057452 -0.42159466 49.94567871 -0.45318604 C57.12156301 -0.45499174 61.94016491 0.04073326 68 4 C72.11506505 8.6388006 73.07948108 13.45574944 74.1875 19.375 C74.38110107 20.35146484 74.57470215 21.32792969 74.77416992 22.33398438 C75.37930099 25.42251926 75.96807164 28.51377081 76.54968262 31.60681152 C77.06499453 34.34541005 77.58372218 37.0833524 78.10253906 39.82128906 C80.7631038 53.87564534 83.39147362 67.93589879 86 82 C88.27769186 79.72230814 88.93679131 77.98918517 90.10375977 74.99731445 C90.72064415 73.42715324 90.72064415 73.42715324 91.34999084 71.82527161 C91.79265793 70.68281479 92.23532501 69.54035797 92.69140625 68.36328125 C93.15554428 67.17768112 93.61968231 65.99208099 94.09788513 64.77055359 C95.3402795 61.5967837 96.5763425 58.42058435 97.81109619 55.24383545 C99.03249301 52.10447557 100.25968585 48.96739227 101.48632812 45.83007812 C105.23059419 36.24813116 108.96785601 26.66350065 112.68701172 17.07177734 C113.50878046 14.95800447 114.33055736 12.84423476 115.15234375 10.73046875 C115.52911758 9.75491531 115.90589142 8.77936188 116.29408264 7.77424622 C116.80967995 6.44969673 116.80967995 6.44969673 117.33569336 5.09838867 C117.63471054 4.32661789 117.93372772 3.55484711 118.24180603 2.75968933 C119 1 119 1 120 0 C122.6662603 -0.08855161 125.30647114 -0.11524673 127.97265625 -0.09765625 C128.77029892 -0.0962413 129.56794159 -0.09482635 130.38975525 -0.09336853 C132.94737435 -0.08775316 135.50490718 -0.07519812 138.0625 -0.0625 C139.79231645 -0.05748698 141.52213426 -0.05292373 143.25195312 -0.04882812 C147.50133553 -0.03777875 151.75065312 -0.02050386 156 0 C154.1299998 5.86190947 152.0304259 11.54246479 149.5859375 17.1875 C149.09596031 18.33214218 149.09596031 18.33214218 148.59608459 19.49990845 C147.89263038 21.14290874 147.18769838 22.78527698 146.48141479 24.42706299 C144.56097748 28.89298685 142.65338524 33.36438679 140.74609375 37.8359375 C140.35170609 38.76022552 139.95731842 39.68451355 139.55097961 40.6368103 C135.44641583 50.27199113 131.43606608 59.94546065 127.4375 69.625 C122.01389054 82.74330205 116.57208051 95.85359482 111.07449341 108.94110107 C110.36207955 110.63770996 109.65054205 112.33468711 108.93991089 114.03204346 C107.96239805 116.36615389 106.98170134 118.6988987 106 121.03125 C105.56380089 122.07489212 105.56380089 122.07489212 105.11878967 123.13961792 C103.11454949 127.88545051 103.11454949 127.88545051 102 129 C99.3337397 129.08855161 96.69352886 129.11524673 94.02734375 129.09765625 C93.22970108 129.0962413 92.43205841 129.09482635 91.61024475 129.09336853 C89.05262565 129.08775316 86.49509282 129.07519812 83.9375 129.0625 C82.20768355 129.05748698 80.47786574 129.05292373 78.74804688 129.04882812 C74.49866447 129.03777875 70.24934688 129.02050386 66 129 C61.85535131 113.60649457 57.77315448 98.19875766 53.81233215 82.75687408 C53.20090726 80.37417002 52.58816893 77.99180763 51.97497559 75.60955811 C51.7711602 74.8176646 51.56734482 74.0257711 51.35735321 73.20988083 C50.94464467 71.60644232 50.53190969 70.00301062 50.11914825 68.39958572 C49.06846533 64.31565242 48.02122689 60.2308814 46.97998047 56.14453125 C45.94769082 52.09434743 44.90653503 48.04653399 43.85945892 44.00014877 C43.46874196 42.48366648 43.08120625 40.96636037 42.69712067 39.44818497 C40.04119956 26.4082719 40.04119956 26.4082719 32.50390625 16.1171875 C22.85742866 12.04337624 12.9545126 9.22665822 2.83496094 6.5690918 C1 6 1 6 0 5 C-0.04063832 3.33382885 -0.042721 1.66611905 0 0 Z " fill="#1434CB" transform="translate(0,119)"/>
<path d="M0 0 C-0.64700045 9.86675685 -2.87379712 19.3678065 -5 29 C-5.92619141 28.70996094 -5.92619141 28.70996094 -6.87109375 28.4140625 C-9.57356184 27.58316668 -12.28454827 26.78736578 -15 26 C-15.69480469 25.78730469 -16.38960938 25.57460937 -17.10546875 25.35546875 C-26.67952498 22.78139947 -39.15209124 22.1423246 -48 27 C-50.30678602 29.1626119 -50.86964405 30.36451472 -51.5 33.4375 C-50.76837729 37.18706638 -48.83972927 38.48039936 -46 41 C-43.53641681 42.61104461 -40.97330306 43.9946515 -38.375 45.375 C-36.94419766 46.16073372 -35.51451309 46.94850622 -34.0859375 47.73828125 C-33.38952148 48.12193848 -32.69310547 48.5055957 -31.97558594 48.90087891 C-19.89825722 55.62012432 -10.48297905 62.55106284 -6 76 C-5.12834961 88.33170959 -6.00214907 99.05096991 -13.625 109.3125 C-24.148409 121.4056993 -38.99896744 127.03666287 -54.7644043 128.20483398 C-57.55478908 128.3024242 -60.33299045 128.32880791 -63.125 128.3125 C-64.61507568 128.30621582 -64.61507568 128.30621582 -66.13525391 128.29980469 C-78.32817183 128.1155091 -90.07710857 126.75934276 -101 121 C-99.56327384 111.18867268 -97.34881011 101.62328026 -95 92 C-93.24623047 92.63228516 -93.24623047 92.63228516 -91.45703125 93.27734375 C-89.90891921 93.83091109 -88.36073849 94.38428641 -86.8125 94.9375 C-86.04357422 95.21529297 -85.27464844 95.49308594 -84.48242188 95.77929688 C-77.37909682 98.30966589 -71.21539208 99.20313375 -63.6875 99.25 C-62.87087891 99.270625 -62.05425781 99.29125 -61.21289062 99.3125 C-55.09192203 99.35151813 -49.18625766 98.71976008 -44.33081055 94.57519531 C-42.2758669 92.14288997 -42.12553857 90.13846434 -42 87 C-45.23772928 79.44529836 -52.80629491 76.41137153 -59.6875 72.8125 C-70.67810808 66.89691447 -82.29121866 59.66846978 -86.6328125 47.1796875 C-88.64000829 35.26463162 -86.96555355 24.22948903 -79.9375 14.3125 C-70.6222466 3.25681709 -57.52381905 -2.77629818 -43.34765625 -4.71875 C-28.46919992 -5.96874866 -14.18380103 -5.00348809 0 0 Z " fill="#1434CB" transform="translate(298,122)"/>
<path d="M0 0 C1.43352212 0.00015908 2.86704998 0.00585132 4.30053711 0.01586914 C5.43041298 0.01799156 5.43041298 0.01799156 6.58311462 0.02015686 C8.99807646 0.02577163 11.41294687 0.03832656 13.82788086 0.05102539 C15.46134307 0.05603849 17.09480672 0.06060173 18.72827148 0.06469727 C22.74067371 0.07489656 26.75301439 0.09385622 30.76538086 0.11352539 C27.54755715 17.18590674 24.11576605 34.1991911 20.46459961 51.18383789 C19.97826556 53.45591289 19.49217134 55.72803923 19.00630188 58.00021362 C17.74780193 63.882549 16.48612164 69.76419745 15.22369385 75.64569092 C13.92766082 81.68662717 12.63475253 87.72823211 11.34155273 93.76977539 C8.81915719 105.55166895 6.29309946 117.33277271 3.76538086 129.11352539 C-7.78461914 129.11352539 -19.33461914 129.11352539 -31.23461914 129.11352539 C-25.34153453 100.61821699 -19.36296696 72.14097362 -13.3354187 43.67382812 C-12.55745321 39.99905471 -11.78129293 36.32390688 -11.00662231 32.6484375 C-10.08222575 28.26316057 -9.15414308 23.87867976 -8.2232399 19.49477959 C-7.87555733 17.85446764 -7.52916872 16.21388086 -7.18410873 14.57301521 C-6.70956281 12.31761369 -6.23039151 10.06324454 -5.75 7.80908203 C-5.48037949 6.53488907 -5.21075897 5.26069611 -4.93296814 3.94789124 C-3.99480647 0.14020568 -3.99480647 0.14020568 0 0 Z " fill="#1434CB" transform="translate(172.234619140625,118.886474609375)"/>
<path d="M0 0 C0.99 0 1.98 0 3 0 C3.12917365 33.05167728 3.25672297 66.10336037 3.38218227 99.15505195 C3.39719215 103.10898324 3.41221508 107.06291449 3.42724609 111.0168457 C3.43173202 112.1969609 3.43173202 112.1969609 3.43630856 113.40091681 C3.47811244 124.3912208 3.52061513 135.3815219 3.56369197 146.37182097 C3.63796742 165.32209285 3.71085397 184.27236954 3.78125 203.22265625 C3.78399162 203.95984597 3.78673324 204.69703569 3.78955793 205.45656449 C3.96726237 253.30442943 4.0782451 301.15177031 4 349 C3.01 349 2.02 349 1 349 C0.67 233.83 0.34 118.66 0 0 Z " fill="#CFD2D3" transform="translate(475,13)"/>
<path d="M0 0 C3.96 0 7.92 0 12 0 C12 1.98 12 3.96 12 6 C8.66666667 6 5.33333333 6 2 6 C2 4.68 2 3.36 2 2 C1.34 2 0.68 2 0 2 C0 1.34 0 0.68 0 0 Z " fill="#F79E1B" transform="translate(946,262)"/>
</svg>
