<?xml version="1.0" encoding="UTF-8"?>
<svg version="1.1" xmlns="http://www.w3.org/2000/svg" width="1280" height="800">
<path d="M0 0 C1.17900879 0.29003906 1.17900879 0.29003906 2.38183594 0.5859375 C21.95235081 5.56892125 46.95850206 14.50573142 59.89453125 31 C62.54883659 35.80213545 62.20145897 40.33076854 61.5625 45.625 C59.31197332 50.48613763 56.80348232 53.52241438 52 56 C44.6662352 57.54070689 38.60221915 56.91158749 32.25 52.875 C30.48773609 51.60011621 28.73719126 50.30884273 27 49 C3.49692277 33.49634938 -25.85148788 27.78059314 -53.58203125 33.12719727 C-57.10646941 33.9364686 -60.55535089 34.90139103 -64 36 C-64.68449219 36.21430664 -65.36898437 36.42861328 -66.07421875 36.64941406 C-80.77618195 41.38686656 -93.5051865 48.60882443 -105 59 C-105.90363281 59.80953125 -106.80726562 60.6190625 -107.73828125 61.453125 C-128.86978282 81.41895676 -140.12819198 109.07671193 -141.06420898 137.98291016 C-141.51475126 167.88970918 -129.66147231 195.67095185 -109 217 C-108.21238281 217.81339844 -107.42476563 218.62679687 -106.61328125 219.46484375 C-84.24040183 241.1524895 -56.11501594 248.49885697 -25.703125 248.21484375 C-18.1393342 248.04599041 -11.2897778 247.12190715 -4 245 C-2.77796875 244.6596875 -1.5559375 244.319375 -0.296875 243.96875 C11.23935761 240.45565859 21.74147101 235.21137506 31.5 228.125 C37.29194804 223.94563717 42.59397671 222.23253514 49.71875 223.26953125 C54.10322694 224.67346479 57.11917941 227.48680416 60 231 C62.4265745 236.24140092 62.71063208 241.4953962 61 247 C51.76773443 263.70289742 24.3926143 273.30923451 7.30859375 278.5234375 C-6.77360112 282.56143387 -20.66897789 283.27674647 -35.25 283.375 C-35.96135101 283.38312714 -36.67270203 283.39125427 -37.40560913 283.39962769 C-52.30348885 283.5271217 -65.98715837 281.33491613 -79.9375 275.875 C-80.96037109 275.48030518 -81.98324219 275.08561035 -83.03710938 274.67895508 C-107.62143258 264.97431276 -128.79732361 250.0507213 -145 229 C-145.53109375 228.33484375 -146.0621875 227.6696875 -146.609375 226.984375 C-162 207.29099462 -162 207.29099462 -162 200 C-162.66 199.67 -163.32 199.34 -164 199 C-176.85908871 169.12829913 -179.42588248 133.39246813 -171 102 C-170.80164551 101.21061035 -170.60329102 100.4212207 -170.39892578 99.60791016 C-163.05553652 70.88281469 -144.31408976 44.98607756 -121 27 C-120.11054687 26.27167969 -119.22109375 25.54335938 -118.3046875 24.79296875 C-86.21954657 -0.72320879 -39.60623002 -9.8702659 0 0 Z " fill="#017BFD" transform="translate(206,260)"/>
<path d="M0 0 C18.49920673 -0.43399898 41.45627356 2.80509803 55.4765625 16.0234375 C59.78453057 20.95560046 60.80138873 24.06324864 60.70703125 30.62109375 C60.28257864 35.7223853 58.27042093 38.39913009 54.68359375 41.90625 C49.4810313 45.57864702 45.94977303 46.4867438 39.61865234 45.61083984 C36.23860376 44.8869325 33.28689112 43.36433714 30.24609375 41.78125 C15.56545176 34.59815631 1.96834419 33.18640821 -13.859375 37.83203125 C-28.99868784 43.33281051 -39.76676223 53.34131904 -46.75390625 67.73046875 C-53.11107697 82.61840164 -53.02542616 98.00587942 -47.50390625 113.15625 C-45.50349807 117.42346455 -43.19236181 121.29010815 -40.50390625 125.15625 C-40.065625 125.80851562 -39.62734375 126.46078125 -39.17578125 127.1328125 C-30.73289052 138.27132497 -15.9851908 145.02650521 -2.50390625 147.15625 C13.62084699 148.28173613 28.82690566 143.795032 41.3425293 133.4453125 C48.75613475 126.89017438 54.35452757 118.58094855 57.49609375 109.15625 C56.26568359 109.15214111 55.03527344 109.14803223 53.76757812 109.14379883 C49.1750375 109.12192337 44.58334341 109.06754673 39.99121094 109.00366211 C38.00887199 108.98055529 36.02641155 108.96610366 34.04394531 108.96069336 C31.18348113 108.95135013 28.32490857 108.91024319 25.46484375 108.86328125 C24.14873108 108.86918022 24.14873108 108.86918022 22.80603027 108.87519836 C16.64521117 108.73117567 12.17803188 107.27885038 7.49609375 103.15625 C4.06959161 98.37427957 2.74073627 94.09120161 3.49609375 88.15625 C5.19648249 82.96558963 7.2960633 79.65627537 11.49609375 76.15625 C15.42918528 74.20432287 18.66104629 73.89918685 23.02709961 73.8815918 C24.32872543 73.87205978 25.63035126 73.86252777 26.97142029 73.85270691 C28.38459297 73.85296835 29.79776566 73.85390549 31.2109375 73.85546875 C32.66915508 73.8515786 34.12737154 73.84724327 35.58558655 73.84248352 C38.6377429 73.83503423 41.68978355 73.83530322 44.74194336 73.84057617 C48.64360402 73.84636996 52.54478984 73.82943617 56.44637203 73.8062315 C59.45677944 73.79146447 62.46707324 73.79062646 65.47751045 73.79374123 C66.91555281 73.79322953 68.35360177 73.78802035 69.79160881 73.77792931 C71.80626647 73.76552559 73.82102047 73.77431784 75.83569336 73.78393555 C76.97977158 73.78330612 78.12384979 73.7826767 79.30259705 73.7820282 C83.58753733 74.28414804 86.97206699 75.73358369 90.140625 78.69140625 C96.46124794 86.95683625 95.52491628 97.333853 94.19580078 107.43945312 C89.89066437 131.10947699 76.30019593 152.12042276 56.796875 166.05859375 C34.50690254 180.22393719 9.75291987 185.58239777 -16.2578125 180.19921875 C-27.05838991 177.70104147 -37.38990609 173.50550937 -46.50390625 167.15625 C-47.58478516 166.40794922 -47.58478516 166.40794922 -48.6875 165.64453125 C-67.94232015 151.4694141 -81.08744637 131.85897712 -85.50390625 108.15625 C-89.21261289 82.76587381 -84.66849473 57.17586402 -69.30078125 36.140625 C-67.10507988 33.40720085 -64.84445627 30.76621585 -62.50390625 28.15625 C-61.9521875 27.52203125 -61.40046875 26.8878125 -60.83203125 26.234375 C-47.3762767 11.71281811 -25.6749569 1.72277715 -5.9765625 0.25 C-3.98406446 0.17445505 -1.9919501 0.08882721 0 0 Z " fill="#002CB8" transform="translate(169.50390625,308.84375)"/>
<path d="M0 0 C15.1199289 12.59593441 15.1199289 12.59593441 17.75 21.1875 C17.83153833 25.01980152 17.30752015 26.18968218 14.8125 29.125 C8.95543783 33.6989735 2.06857734 38.45738002 -5.375 39.625 C-10.35139888 38.74030687 -12.81668496 35.61290537 -15.8125 31.8125 C-24.8197379 21.05000549 -38.67593776 16.64884852 -52.16015625 15.37890625 C-67.5331932 14.24300354 -82.9376812 18.38781437 -94.88671875 28.3828125 C-105.42909021 38.43667347 -112.55724329 51.32766866 -113.1875 66.125 C-113.22746094 67.02734375 -113.26742187 67.9296875 -113.30859375 68.859375 C-113.66254011 84.93270374 -110.03172542 98.96347171 -99.1875 111.125 C-98.66542969 111.73988281 -98.14335937 112.35476563 -97.60546875 112.98828125 C-87.68721101 123.87181955 -72.76804826 129.39298823 -58.28515625 130.15625 C-41.81102571 129.99005448 -26.63351328 123.91679633 -14.1875 113.125 C-7.81950786 105.59487894 -3.05880897 97.83660345 -1.1875 88.125 C-1.74824722 88.12944122 -2.30899445 88.13388245 -2.88673401 88.13845825 C-8.74322959 88.18283715 -14.5996771 88.21292673 -20.45629883 88.23486328 C-22.63958681 88.24489692 -24.82286143 88.2585269 -27.00610352 88.27587891 C-30.15123805 88.30024313 -33.29619429 88.31150971 -36.44140625 88.3203125 C-37.4114711 88.33063507 -38.38153595 88.34095764 -39.3809967 88.35159302 C-51.41454899 88.35356799 -51.41454899 88.35356799 -56.09765625 84.58984375 C-57.82196996 80.6900518 -57.66015399 76.90278282 -57.625 72.6875 C-57.64498047 71.84123047 -57.66496094 70.99496094 -57.68554688 70.12304688 C-57.68230843 65.98755283 -57.53144888 63.69240611 -55.34765625 60.08984375 C-51.69777076 56.76996599 -48.49046867 56.99881907 -43.74755859 56.99560547 C-43.09833435 56.99385315 -42.44911011 56.99210083 -41.7802124 56.99029541 C-39.63209361 56.98589216 -37.48405715 56.98881158 -35.3359375 56.9921875 C-33.83720891 56.99151353 -32.33848042 56.99054273 -30.8397522 56.98928833 C-27.69410159 56.98781302 -24.54847935 56.98995876 -21.40283203 56.99462891 C-17.39171242 57.00029662 -13.38066016 56.99706502 -9.36954308 56.99105644 C-6.27067571 56.98742108 -3.17182396 56.98860352 -0.07295609 56.99118423 C1.40446353 56.99184683 2.88188461 56.99104865 4.35930252 56.98870468 C25.34438284 56.96274058 25.34438284 56.96274058 29.8125 60.5 C35.82245135 68.38806115 32.71190851 83.22489387 31.49707031 92.54492188 C29.07769741 106.67198402 22.61079026 121.58352605 12.8125 132.125 C11.61173828 133.46111328 11.61173828 133.46111328 10.38671875 134.82421875 C-3.72070802 149.78911574 -25.31332761 161.03023148 -46.07739258 162.30200195 C-73.43648553 162.85998784 -98.27591797 158.90824539 -118.9621582 139.30517578 C-120.38277006 137.92418819 -121.78556342 136.52494236 -123.1875 135.125 C-124.28384766 134.04605469 -124.28384766 134.04605469 -125.40234375 132.9453125 C-141.09433174 116.47649342 -147.91937479 93.96003461 -148.5625 71.5625 C-147.94364386 49.28367907 -140.29401633 27.63975091 -125.1875 11.125 C-124.48882812 10.34511719 -123.79015625 9.56523437 -123.0703125 8.76171875 C-91.72981747 -24.47298203 -35.94788255 -28.00208534 0 0 Z " fill="#002CB8" transform="translate(589.1875,327.875)"/>
<path d="M0 0 C4.05410545 3.38215427 7.0815448 6.78009346 9.74609375 11.33203125 C9.76027344 10.37941406 9.77445313 9.42679687 9.7890625 8.4453125 C9.83675781 7.19105469 9.88445312 5.93679688 9.93359375 4.64453125 C9.96839844 3.40316406 10.00320313 2.16179687 10.0390625 0.8828125 C10.74609375 -2.66796875 10.74609375 -2.66796875 12.546875 -5.5859375 C17.44572703 -8.7740793 22.02621756 -8.39535317 27.74609375 -8.29296875 C29.36644531 -8.32197266 29.36644531 -8.32197266 31.01953125 -8.3515625 C32.58574219 -8.34189453 32.58574219 -8.34189453 34.18359375 -8.33203125 C35.60478516 -8.32357178 35.60478516 -8.32357178 37.0546875 -8.31494141 C39.93646696 -7.62220596 41.6417478 -6.6829615 43.68453598 -4.52521324 C46.1241489 -0.25699743 45.43333761 5.07452767 45.39306641 9.84570312 C45.401828 11.11611954 45.4105896 12.38653595 45.4196167 13.69544983 C45.44237625 17.17289478 45.4335884 20.64959657 45.41772127 24.12705421 C45.40504453 27.76957802 45.41680728 31.41203907 45.4246521 35.05456543 C45.43374357 41.1710958 45.42177423 47.28732411 45.39794922 53.40380859 C45.3707385 60.47101088 45.37955305 67.53749191 45.40708125 74.60467672 C45.42978592 80.67705497 45.43296589 86.74921634 45.4198879 92.82162333 C45.4121007 96.44638291 45.41103119 100.07080369 45.42757034 103.69554138 C45.44472313 107.73691379 45.42093786 111.77704683 45.39306641 115.81835938 C45.40318756 117.01747452 45.41330872 118.21658966 45.42373657 119.45204163 C45.30829651 128.47413636 45.30829651 128.47413636 42.37387085 131.57369995 C39.3740951 133.58094767 37.76812134 133.97475728 34.18359375 133.99609375 C32.61738281 134.00576172 32.61738281 134.00576172 31.01953125 134.015625 C29.93929687 133.99628906 28.8590625 133.97695313 27.74609375 133.95703125 C26.66585937 133.97636719 25.585625 133.99570312 24.47265625 134.015625 C19.58277956 133.98544058 16.65562089 133.95059855 12.546875 131.15625 C10.55897404 128.03856585 10.06618494 126.18788755 9.93359375 122.51953125 C9.86205078 121.05580078 9.86205078 121.05580078 9.7890625 119.5625 C9.77488281 118.82644531 9.76070312 118.09039062 9.74609375 117.33203125 C8.92367187 117.99589844 8.10125 118.65976562 7.25390625 119.34375 C-7.53362605 131.11809989 -21.87252302 137.07635574 -41.25390625 135.33203125 C-59.44254106 132.46422093 -74.97333191 123.66111025 -86.1328125 108.8359375 C-98.67247478 90.17540335 -102.45152551 67.20503109 -98.25390625 45.33203125 C-94.33226061 27.84411862 -86.12700687 11.93442726 -71.25390625 1.33203125 C-49.98527038 -11.67929978 -21.21136498 -15.69714532 0 0 Z M-56.00390625 33.43359375 C-64.09283554 44.87942869 -66.95194222 57.6223713 -64.7578125 71.4609375 C-62.15879166 82.95830087 -56.48241442 93.5564102 -46.43359375 100.1953125 C-37.10485812 105.40696614 -28.71090489 106.84161878 -18.05078125 104.68359375 C-6.74785431 101.29271567 1.1185149 94.69785654 6.74609375 84.33203125 C12.45945385 71.63755363 12.67664841 57.24560901 7.99609375 44.1953125 C3.45944626 33.80355435 -3.95541766 26.2596001 -14.50390625 21.83203125 C-29.7478676 17.00908303 -45.7210298 21.08496087 -56.00390625 33.43359375 Z " fill="#002CB8" transform="translate(918.25390625,355.66796875)"/>
<path d="M0 0 C18.92941677 14.58214969 18.92941677 14.58214969 21.23364258 25.47485352 C19.54324237 32.23645436 12.59251229 35.29152466 7.06958008 38.77172852 C3.15464079 41.02615176 -0.51273043 41.9848509 -5.00073242 41.96313477 C-9.42751918 40.63086932 -11.42618354 36.70505759 -14.08666992 33.11938477 C-21.6533742 23.86702855 -35.03542465 18.55313114 -46.70385742 17.28735352 C-64.36688507 16.58254105 -79.89107165 20.33133368 -93.45385742 32.22485352 C-105.24732809 44.3403302 -109.98893528 59.7309382 -109.87548828 76.36401367 C-109.39713406 91.37770552 -104.04118418 105.16413321 -93.71557617 116.15844727 C-81.50842154 127.31144347 -66.27989122 131.78355872 -50.03198242 131.46704102 C-36.88042447 130.57687006 -23.89415022 125.66514632 -14.45385742 116.22485352 C-12.70752929 113.88300335 -10.99544681 111.53642212 -9.36010742 109.11547852 C-6.70400324 106.48114568 -5.18696694 106.23374187 -1.45385742 106.22485352 C1.38187047 107.13287416 3.92634557 108.44639083 6.54614258 109.84985352 C7.23192383 110.1940332 7.91770508 110.53821289 8.62426758 110.89282227 C13.0976299 113.20633599 16.95002395 115.67883561 20.54614258 119.22485352 C21.54207144 122.45862253 20.71996622 125.1012889 19.54614258 128.22485352 C8.70447564 146.14213467 -11.7044451 157.70501219 -31.45385742 163.03735352 C-56.47291412 167.87975159 -83.31767212 164.51502931 -104.67260742 150.21704102 C-123.93445212 136.41993315 -137.87815492 117.86598313 -142.45385742 94.22485352 C-146.5962507 68.8209927 -143.35512169 43.35734067 -128.73120117 21.67016602 C-127.04404086 19.44880232 -125.27709792 17.33534416 -123.45385742 15.22485352 C-122.89569336 14.51200195 -122.3375293 13.79915039 -121.76245117 13.06469727 C-93.32827244 -21.75642442 -35.50596187 -26.05627318 0 0 Z " fill="#002CB8" transform="translate(783.453857421875,325.775146484375)"/>
<path d="M0 0 C1.64548828 -0.00773437 1.64548828 -0.00773437 3.32421875 -0.015625 C4.46503906 -0.00015625 5.60585937 0.0153125 6.78125 0.03125 C8.49248047 0.00804687 8.49248047 0.00804687 10.23828125 -0.015625 C11.33527344 -0.01046875 12.43226562 -0.0053125 13.5625 0 C15.06393555 0.00676758 15.06393555 0.00676758 16.59570312 0.01367188 C20.05522299 0.6804157 21.0824095 1.81450227 23.28125 4.53125 C23.80023193 7.06231689 23.80023193 7.06231689 23.82714844 9.94238281 C23.84686707 11.02320129 23.86658569 12.10401978 23.88690186 13.21759033 C23.88813049 14.37812927 23.88935913 15.53866821 23.890625 16.734375 C23.90716125 17.92730164 23.92369751 19.12022827 23.94073486 20.3493042 C23.9893253 24.1600046 24.01061138 27.9703056 24.03125 31.78125 C24.05940027 34.36460355 24.08932635 36.9479384 24.12109375 39.53125 C24.19508747 45.86451056 24.24666527 52.19765828 24.28125 58.53125 C25.46207153 57.81461182 25.46207153 57.81461182 26.66674805 57.08349609 C43.38860441 47.09980144 60.68009983 43.9011463 79.86328125 48.5 C93.81023861 52.70799628 105.28029474 61.66944416 112.28125 74.53125 C116.22878041 83.90278974 118.42485994 92.14744822 118.45825195 102.29711914 C118.46482315 103.16924545 118.47139435 104.04137177 118.47816467 104.93992615 C118.49781893 107.81542046 118.50953854 110.69086292 118.51953125 113.56640625 C118.52360678 114.54975889 118.5276823 115.53311153 118.53188133 116.54626274 C118.55270174 121.74446271 118.56702463 126.94263655 118.57641602 132.14086914 C118.58751246 137.51348374 118.62196095 142.88568783 118.66158772 148.25815678 C118.68768879 152.38879686 118.69610172 156.51933772 118.69969749 160.65005302 C118.70457505 162.63123811 118.71622214 164.61241843 118.73473549 166.59352303 C118.75900353 169.36094343 118.75818543 172.12728186 118.7512207 174.89477539 C118.77043579 176.1237706 118.77043579 176.1237706 118.79003906 177.37759399 C118.75681495 180.99266139 118.6050539 183.09683686 116.41299438 186.03768921 C112.24737885 188.95623802 107.25377283 188.14317 102.34375 188.09375 C101.25900391 188.11759766 100.17425781 188.14144531 99.05664062 188.16601562 C98.00798828 188.16408203 96.95933594 188.16214844 95.87890625 188.16015625 C94.92508057 188.16088135 93.97125488 188.16160645 92.98852539 188.16235352 C89.13249225 187.2634586 87.74827882 185.5963575 85.28125 182.53125 C84.80229283 179.75373045 84.62716721 177.59323438 84.68530273 174.82617188 C84.6812442 174.0660379 84.67718567 173.30590393 84.67300415 172.5227356 C84.66749671 170.87658167 84.67346804 169.23035774 84.68966484 167.58427429 C84.71516506 164.96702172 84.71025852 162.35133863 84.69776917 159.73400879 C84.67703152 154.16624972 84.69665108 148.59897686 84.71875 143.03125 C84.73994692 136.60216705 84.74418657 130.17359534 84.71824837 123.74452209 C84.71492435 121.1870125 84.73599115 118.63051151 84.75865173 116.07312012 C84.77867322 104.83477735 84.33017194 92.64034615 76.15625 83.96875 C69.78925372 77.59138402 63.71714769 75.38784686 54.78125 75.03125 C46.34220659 75.32909859 39.03441816 77.88132014 32.8125 83.70703125 C24.07306462 94.11855248 24.00091494 106.9062049 24.03742027 119.77527618 C24.04306344 122.3399062 24.03377644 124.90409241 24.0202179 127.46868896 C23.98327936 134.75356262 23.96458785 142.03827722 23.97583008 149.32324219 C23.98168195 153.79478756 23.96342954 158.26569809 23.92994118 162.73711395 C23.92199742 164.43552628 23.92325031 166.13400798 23.93396568 167.83240509 C23.94830074 170.20440428 23.93202133 172.57440045 23.90893555 174.94628906 C23.92658714 175.99215179 23.92658714 175.99215179 23.94459534 177.05914307 C23.87150853 180.89219308 23.34911568 182.44736354 20.90548706 185.46784973 C17.91858872 187.8164054 16.64543474 188.14506914 12.90234375 188.08984375 C11.39704102 188.07920898 11.39704102 188.07920898 9.86132812 188.06835938 C8.30575195 188.01905273 8.30575195 188.01905273 6.71875 187.96875 C5.67783203 187.96294922 4.63691406 187.95714844 3.56445312 187.95117188 C-5.12900799 187.81140562 -5.12900799 187.81140562 -8.71875 185.53125 C-10.20932294 182.55010411 -9.85509204 179.84918249 -9.86592102 176.52212524 C-9.86959771 175.79228279 -9.8732744 175.06244033 -9.8770625 174.31048143 C-9.88812085 171.85232565 -9.89194678 169.39421211 -9.89575195 166.93603516 C-9.90201489 165.17870448 -9.90866153 163.42137513 -9.91566467 161.66404724 C-9.93308806 156.8809964 -9.94362968 152.09795557 -9.9518702 147.31488085 C-9.95701661 144.32880891 -9.96309244 141.34274011 -9.96938133 138.35667038 C-9.98843554 129.0202671 -10.00266724 119.68387175 -10.0109933 110.34745276 C-10.02077322 99.55802361 -10.04711143 88.76879921 -10.08749419 77.97944224 C-10.11761354 69.64734711 -10.13245812 61.31531082 -10.13577431 52.98316228 C-10.13812923 48.00305252 -10.14714701 43.02316143 -10.17223549 38.04310989 C-10.19544875 33.35961698 -10.19977678 28.67648779 -10.18947411 23.99295235 C-10.18897701 22.27240733 -10.19534825 20.55184482 -10.20903015 18.83135414 C-10.22664588 16.48524324 -10.21969519 14.14045236 -10.20649719 11.79434204 C-10.20888555 10.4806193 -10.2112739 9.16689655 -10.21373463 7.81336403 C-9.27603304 1.59570925 -5.90930561 0.02663563 0 0 Z " fill="#002CB8" transform="translate(1130.71875,301.46875)"/>
<path d="M0 0 C8.54694355 7.6539793 14.0345291 17.72773196 14.66796875 29.171875 C14.35546875 33.109375 14.35546875 33.109375 12.69335938 35.32226562 C9.79751578 37.5358804 8.25235348 37.62432787 4.63671875 37.640625 C3.53972656 37.64578125 2.44273438 37.6509375 1.3125 37.65625 C0.17167969 37.64078125 -0.96914062 37.6253125 -2.14453125 37.609375 C-3.28535156 37.62484375 -4.42617187 37.6403125 -5.6015625 37.65625 C-6.69855469 37.65109375 -7.79554687 37.6459375 -8.92578125 37.640625 C-10.4272168 37.63385742 -10.4272168 37.63385742 -11.95898438 37.62695312 C-15.33568737 36.97617037 -16.49759784 35.73521139 -18.64453125 33.109375 C-19.69921875 31.14453125 -19.69921875 31.14453125 -20.51953125 29.171875 C-22.75227881 24.52464461 -25.58242791 21.34586916 -30.4921875 19.36328125 C-38.98467422 16.91514889 -47.54740367 17.55774684 -55.64453125 21.109375 C-57.62738185 22.66000873 -58.488615 23.59976955 -59.2265625 26.01171875 C-59.30261719 26.68332031 -59.37867188 27.35492188 -59.45703125 28.046875 C-59.59044922 29.05041016 -59.59044922 29.05041016 -59.7265625 30.07421875 C-59.62417209 32.61447618 -59.03463186 33.98488162 -57.64453125 36.109375 C-49.7000841 42.46114062 -38.3592427 44.78434764 -28.72265625 47.51171875 C-13.59207039 51.81823846 3.17354 56.65486363 12.04296875 70.80078125 C17.22637097 80.91725093 17.99556193 92.11639076 15.70703125 103.26953125 C11.5042786 114.60259502 2.99794229 122.53022901 -7.7890625 127.58203125 C-26.98406836 135.39209888 -48.32034024 135.43874874 -67.5390625 127.5859375 C-72.36867873 125.28959167 -76.51215219 122.48912145 -80.64453125 119.109375 C-81.35351562 118.53703125 -82.0625 117.9646875 -82.79296875 117.375 C-90.09045165 110.83242913 -95.64927304 100.92372684 -96.64453125 91.109375 C-96.20703125 87.859375 -96.20703125 87.859375 -94.64453125 85.109375 C-87.47703524 82.01751398 -79.30897171 82.75679395 -71.64453125 83.109375 C-70.80792969 83.14289063 -69.97132813 83.17640625 -69.109375 83.2109375 C-67.08203125 83.484375 -67.08203125 83.484375 -63.64453125 85.109375 C-61.88071519 87.52006737 -60.4815498 89.99320601 -59.078125 92.62890625 C-56.26333289 97.49918687 -52.08238656 100.59183398 -46.64453125 102.109375 C-38.99488977 103.78424387 -29.48999777 103.79438581 -22.515625 99.9296875 C-19.07216133 97.12513154 -17.76516672 95.17498834 -17.26953125 90.796875 C-17.75015966 86.07069561 -19.06423148 85.13070469 -22.64453125 82.109375 C-25.82140026 80.46473811 -25.82140026 80.46473811 -29.45703125 79.234375 C-30.13137207 78.99025879 -30.80571289 78.74614258 -31.50048828 78.49462891 C-38.9103851 75.88449234 -46.47497459 73.74632361 -54.04223633 71.64501953 C-68.47316837 67.5945261 -82.96275199 61.98469121 -90.70996094 48.21582031 C-93.66315055 42.28056546 -94.25930397 37.18011349 -94.14453125 30.609375 C-94.16 29.72378906 -94.17546875 28.83820313 -94.19140625 27.92578125 C-94.13412621 18.17385427 -90.18598885 10.24949279 -83.64453125 3.109375 C-61.68886431 -17.51694492 -23.81894138 -17.02860802 0 0 Z " fill="#002CB8" transform="translate(1080.64453125,357.890625)"/>
<path d="M0 0 C13.47616704 7.21833569 18.06711332 28.10370501 22.24121094 41.71826172 C35.04542747 85.19130996 32.02963887 132.62419353 14.55859375 174.34375 C14.19934814 175.21249756 13.84010254 176.08124512 13.4699707 176.97631836 C10.58715194 183.63090535 7.20526359 189.9473083 1.24609375 194.28125 C-4.50603965 196.0511372 -10.36860949 196.46797333 -15.87890625 193.71875 C-20.79546022 189.8838379 -22.51793562 186.59321919 -23.79296875 180.52734375 C-24.2792563 176.02011143 -22.91435275 172.61453367 -21.00390625 168.59375 C-20.34585798 167.0988523 -19.69376482 165.60132255 -19.046875 164.1015625 C-18.70833496 163.31813477 -18.36979492 162.53470703 -18.02099609 161.72753906 C-1.96267324 123.10430454 0.50799149 78.10567334 -15.515625 39.0078125 C-16.85147332 35.81184032 -18.21003518 32.63024153 -19.61352539 29.46337891 C-25.33097279 16.4462974 -25.33097279 16.4462974 -23.00390625 10.21875 C-21.12912087 5.75745516 -18.00565071 2.90966852 -14.00390625 0.28125 C-9.41328016 -1.2489587 -4.62850487 -1.6601265 0 0 Z " fill="#6CB7F6" transform="translate(340.00390625,302.71875)"/>
<path d="M0 0 C4.95207907 4.26109129 7.47490731 9.58025699 9.6875 15.625 C10.06986816 16.66333984 10.06986816 16.66333984 10.45996094 17.72265625 C22.78486568 52.28834118 21.99796753 92.24469747 6.921875 125.88671875 C4.35033432 130.94028446 1.86899354 134.11889316 -3.5625 136.25 C-8.31034234 137.5592057 -12.59329304 137.87697298 -17.3125 136.3125 C-21.42741234 133.75733539 -24.51647829 130.8652062 -26.3125 126.3125 C-27.6522169 118.222671 -25.65706697 111.69699068 -22.66918945 104.32519531 C-11.73038657 77.29040178 -15.49593395 48.91127927 -25.3125 22.3125 C-25.6425 21.6525 -25.9725 20.9925 -26.3125 20.3125 C-26.84089495 14.09369791 -27.03743456 8.57878679 -23.3125 3.3125 C-16.4707667 -3.34432159 -8.37379375 -4.26589493 0 0 Z " fill="#6CB7F6" transform="translate(298.3125,332.6875)"/>
</svg>
