<?xml version="1.0" encoding="UTF-8"?>
<svg version="1.1" xmlns="http://www.w3.org/2000/svg" width="1630" height="603">
<path d="M0 0 C4.5161263 3.46074045 8.80227828 7.16190585 13 11 C13.61488281 11.56074219 14.22976563 12.12148438 14.86328125 12.69921875 C16 14 16 14 16 16 C16.66 16 17.32 16 18 16 C19.4375 17.93359375 19.4375 17.93359375 21 20.4375 C22.9529916 23.81006651 22.9529916 23.81006651 26 26 C25.48308594 25.03578125 24.96617187 24.0715625 24.43359375 23.078125 C23.7675971 21.80241311 23.10226718 20.52635299 22.4375 19.25 C22.09525391 18.61578125 21.75300781 17.9815625 21.40039062 17.328125 C18.98202904 12.63796919 18.98202904 12.63796919 19.0625 9.78125 C23.91589276 0.55980375 35.87998828 -4.14323666 45 -8 C45.64404785 -8.27537598 46.2880957 -8.55075195 46.95166016 -8.83447266 C62.24768768 -15.06618757 83.53479779 -16.47811235 99.046875 -10.375 C100.02140625 -9.92125 100.9959375 -9.4675 102 -9 C102.60779297 -8.7421875 103.21558594 -8.484375 103.84179688 -8.21875 C117.47264176 -2.4286566 129.99951668 6.29335002 138 19 C138 19.66 138 20.32 138 21 C138.66 21 139.32 21 140 21 C141.27339482 23.51956743 142.54376642 26.04058649 143.8125 28.5625 C144.16892578 29.26697266 144.52535156 29.97144531 144.89257812 30.69726562 C145.24384766 31.39658203 145.59511719 32.09589844 145.95703125 32.81640625 C146.27647705 33.45006104 146.59592285 34.08371582 146.92504883 34.73657227 C154.81302886 51.34558042 154.45176045 68.53972635 154.3984375 86.58203125 C154.40046255 89.01437975 154.40337757 91.44672766 154.40713501 93.8790741 C154.4115271 98.93938056 154.40522115 103.99952678 154.39111328 109.05981445 C154.3739037 115.54854512 154.38395634 122.03690667 154.40183067 128.52562428 C154.41265155 133.53125311 154.409232 138.53679372 154.4014473 143.54242516 C154.39944675 145.93666312 154.40189943 148.3309091 154.40888596 150.72513771 C154.4164853 154.05631569 154.40492239 157.3868851 154.38818359 160.71801758 C154.39729263 162.19925613 154.39729263 162.19925613 154.40658569 163.7104187 C154.39812622 164.61690659 154.38966675 165.52339447 154.38095093 166.45735168 C154.37981985 167.24276242 154.37868877 168.02817316 154.37752342 168.83738422 C153.8909052 171.62494171 152.97647518 172.98995357 151 175 C147.97070747 175.39241025 145.31001004 175.53717773 142.28125 175.49609375 C141.42696411 175.49754898 140.57267822 175.49900421 139.69250488 175.50050354 C137.88692819 175.49884408 136.08133742 175.48727743 134.27587891 175.46655273 C131.51013181 175.43760604 128.746302 175.44594031 125.98046875 175.45898438 C124.22655317 175.45274671 122.47264365 175.44435555 120.71875 175.43359375 C119.89056763 175.43652939 119.06238525 175.43946503 118.20910645 175.44248962 C112.47588033 175.34815668 112.47588033 175.34815668 110.28117275 173.74249649 C108.68231139 171.56791831 108.62611781 170.39888024 108.62818909 167.71600342 C108.62143158 166.84165649 108.61467407 165.96730957 108.60771179 165.06646729 C108.61543106 164.1096405 108.62315033 163.15281372 108.63110352 162.16699219 C108.6254538 160.65165894 108.6254538 160.65165894 108.61968994 159.10571289 C108.6132459 156.90732502 108.6135983 154.70890929 108.61987495 152.51052094 C108.62897773 149.01945951 108.61876612 145.52893623 108.60325623 142.03790283 C108.56315995 132.11023847 108.56193942 122.18261466 108.56420898 112.25488281 C108.56426041 106.18234558 108.54492156 100.11009443 108.51487541 94.0376358 C108.50413453 90.61952012 108.51613752 87.20197136 108.52870178 83.78387451 C108.50188782 60.9238923 108.50188782 60.9238923 98.25 41.109375 C90.06205504 33.49714492 82.00452465 30.65090293 70.90625 30.78515625 C62.61290434 31.3982396 54.25503185 34.58891563 48.40234375 40.65625 C47 42 47 42 45 42 C44.7525 42.66 44.505 43.32 44.25 44 C43.26919165 46.35394005 42.21205257 48.45786599 41 50.6875 C36.08217828 60.69132624 36.70603719 71.56212594 36.69503975 82.44804192 C36.69134822 85.38603174 36.6745511 88.3236924 36.65428162 91.26161194 C36.59909923 99.60704454 36.5680622 107.95252196 36.54370117 116.2980957 C36.52785808 121.41903755 36.4976908 126.53973789 36.45893669 131.66055489 C36.44727603 133.60901905 36.44135625 135.55752626 36.44125557 137.50602531 C36.44106424 140.22034018 36.42285637 142.9339826 36.40063477 145.64819336 C36.40521194 146.45391281 36.40978912 147.25963226 36.414505 148.08976746 C36.34423672 153.46873853 36.34423672 153.46873853 34.70555115 155.99772644 C31.64822846 157.79437364 28.16665635 157.42512943 24.71875 157.3984375 C23.5039093 157.40274277 23.5039093 157.40274277 22.26452637 157.40713501 C20.55313416 157.40917542 18.84171862 157.40364709 17.13037109 157.39111328 C14.5095611 157.37505857 11.89029323 157.39096194 9.26953125 157.41015625 C7.60676743 157.40817381 5.94400456 157.40433013 4.28125 157.3984375 C3.49681519 157.40451019 2.71238037 157.41058289 1.9041748 157.4168396 C-3.40847075 157.34809995 -3.40847075 157.34809995 -5.70654297 155.9957428 C-7.78034171 152.79596979 -7.41304604 149.37160324 -7.38476562 145.67993164 C-7.3901384 144.83070129 -7.39551117 143.98147095 -7.40104675 143.10650635 C-7.4108368 141.26007933 -7.41376521 139.41360625 -7.41069031 137.56715584 C-7.40621244 134.63556686 -7.42021607 131.70458175 -7.43908691 128.77305603 C-7.47591678 122.53621408 -7.48956553 116.29943463 -7.5 110.0625 C-7.5121111 102.86349575 -7.5339263 95.66478375 -7.58000183 88.46590996 C-7.59347158 85.59450862 -7.58941715 82.72348604 -7.58459473 79.85206604 C-7.61317322 70.47278035 -8.05573871 62.00485649 -11 53 C-11.39991332 51.58447967 -11.79633207 50.16796196 -12.1875 48.75 C-12.5896875 47.38875 -12.5896875 47.38875 -13 46 C-13.66 46 -14.32 46 -15 46 C-15.598125 45.0925 -16.19625 44.185 -16.8125 43.25 C-21.2220163 36.69871864 -27.87220657 33.2473011 -35.45703125 31.40234375 C-43.78803651 30.08422771 -51.15120217 31.03243333 -59 34 C-60.051875 34.391875 -61.10375 34.78375 -62.1875 35.1875 C-69.96159107 40.1974698 -75.17383615 48.46082673 -77.64027405 57.29270935 C-79.52970677 67.32366304 -79.29625665 77.45505911 -79.30496025 87.6226368 C-79.30865219 91.09004426 -79.32545032 94.55717294 -79.34571838 98.02452087 C-79.40089913 107.87363527 -79.43194888 117.72278747 -79.45629883 127.57202148 C-79.4721355 133.61595787 -79.50229508 139.65968933 -79.54106331 145.70351982 C-79.55272857 148.00366488 -79.55864379 150.30384644 -79.55874443 152.60402107 C-79.55893561 155.80662784 -79.57713221 159.00866326 -79.59936523 162.21118164 C-79.59478806 163.16337082 -79.59021088 164.11556 -79.585495 165.09660339 C-79.59514282 165.96687164 -79.60479065 166.83713989 -79.61473083 167.73377991 C-79.61774783 168.86771226 -79.61774783 168.86771226 -79.62082577 170.02455235 C-80.11315419 172.58951839 -80.90608733 173.46718659 -83 175 C-85.97739136 175.29841479 -88.74118211 175.42027068 -91.71875 175.3984375 C-93.00017883 175.40274277 -93.00017883 175.40274277 -94.30749512 175.40713501 C-96.11304385 175.40917581 -97.91861469 175.40364483 -99.72412109 175.39111328 C-102.48976012 175.37505944 -105.25393775 175.39096099 -108.01953125 175.41015625 C-109.77344073 175.40817382 -111.5273493 175.40433015 -113.28125 175.3984375 C-114.10943237 175.40451019 -114.93761475 175.41058289 -115.79089355 175.4168396 C-121.51969751 175.34656543 -121.51969751 175.34656543 -123.71741486 173.76078796 C-125.35679497 171.51017655 -125.3817018 170.21068708 -125.39440918 167.43920898 C-125.40575897 166.50332947 -125.41710876 165.56744995 -125.42880249 164.60321045 C-125.42587189 163.57786194 -125.42294128 162.55251343 -125.41992188 161.49609375 C-125.42839142 160.41426819 -125.43686096 159.33244263 -125.44558716 158.21783447 C-125.46906806 154.62427124 -125.46997553 151.03113434 -125.46875 147.4375 C-125.47585267 144.93139475 -125.48355183 142.42529112 -125.49182129 139.91918945 C-125.50529709 134.64986839 -125.50700578 129.38065663 -125.50097656 124.11132812 C-125.4951106 118.73222327 -125.50895092 113.35361475 -125.54199219 107.97460938 C-125.58145191 101.46117015 -125.59575781 94.9481549 -125.59120178 88.43460083 C-125.59288041 85.96621884 -125.60239973 83.49782782 -125.62034607 81.0295105 C-125.79522286 53.96672004 -120.68743206 30.62831586 -101.54052734 10.46289062 C-95.35379317 4.2257266 -88.79842462 -0.89345393 -81 -5 C-80.38253906 -5.36480469 -79.76507813 -5.72960937 -79.12890625 -6.10546875 C-55.29199914 -19.48489403 -21.78081747 -15.65772142 0 0 Z " fill="#00B363" transform="translate(467,251)"/>
<path d="M0 0 C0.94359375 0.5465625 1.8871875 1.093125 2.859375 1.65625 C5.28589527 3.1794671 7.00613591 4.94571578 9 7 C10.07695571 7.88283776 11.16060136 8.75756314 12.25 9.625 C13.1575 10.40875 14.065 11.1925 15 12 C15 12.66 15 13.32 15 14 C16.65 14.66 18.3 15.32 20 16 C19.06652642 14.24784894 18.1280468 12.49836437 17.1875 10.75 C16.66542969 9.77546875 16.14335938 8.8009375 15.60546875 7.796875 C14.11025262 5.03289691 14.11025262 5.03289691 12.33203125 2.890625 C10.8265263 0.75377927 10.54045353 -0.41097378 10.5 -3 C10.45359375 -3.99 10.45359375 -3.99 10.40625 -5 C11.3591774 -8.20986071 13.23130712 -9.20874898 16 -11 C18.7353107 -11.39052183 21.05727493 -11.562564 23.78515625 -11.53125 C24.52326035 -11.5350769 25.26136444 -11.53890381 26.02183533 -11.54284668 C27.57585013 -11.54555873 29.12991113 -11.53824699 30.68383789 -11.52148438 C33.05914077 -11.50003034 35.43143022 -11.52132189 37.80664062 -11.546875 C39.32031915 -11.54423219 40.83399581 -11.53910818 42.34765625 -11.53125 C43.05503433 -11.53934692 43.76241241 -11.54744385 44.4912262 -11.55578613 C47.63365417 -11.49613862 49.61358335 -11.27985123 52.18716526 -9.416008 C54.66671615 -6.11145153 54.5005417 -3.93778092 54.50120544 0.17370605 C54.50950704 1.25878236 54.50950704 1.25878236 54.51797634 2.3657794 C54.53159288 4.79042607 54.51660911 7.21404513 54.50170898 9.63867188 C54.50549182 11.37659645 54.51099156 13.11451802 54.51808167 14.85243225 C54.53205829 19.57351568 54.52085106 24.29423556 54.50437045 29.01529884 C54.49053349 33.95286988 54.49697848 38.89041951 54.50050354 43.82800293 C54.50320673 52.12025826 54.48972066 60.41236893 54.46655273 68.70458984 C54.43994232 78.29540688 54.4381955 87.88598203 54.4499411 97.47682333 C54.46071545 106.69792371 54.4545345 115.91893648 54.44038582 125.14002991 C54.43462304 129.06659513 54.434711 132.9930963 54.43945122 136.91966248 C54.44421898 141.54244268 54.43412768 146.16495757 54.41249657 150.7876873 C54.40692578 152.48563683 54.40646607 154.18361184 54.41144943 155.88156319 C54.41739288 158.19676915 54.40491603 160.51116136 54.38768005 162.82629395 C54.38403521 164.77085857 54.38403521 164.77085857 54.38031673 166.75470734 C53.97629254 170.20229889 53.52423392 171.64751013 51 174 C48.19239792 174.40570625 45.78103314 174.56119271 42.97265625 174.53125 C42.18733017 174.5350769 41.40200409 174.53890381 40.59288025 174.54284668 C38.93275673 174.54556726 37.27259046 174.53819566 35.61254883 174.52148438 C33.07470732 174.50010285 30.53970567 174.52126352 28.00195312 174.546875 C26.38801459 174.54423119 24.77407783 174.53910509 23.16015625 174.53125 C22.4027565 174.53934692 21.64535675 174.54744385 20.86500549 174.55578613 C17.39640003 174.4942544 15.3635636 174.26454031 12.52514648 172.19921875 C10.67765297 169.53518456 10.37951627 167.39743674 10.546875 164.17578125 C11.39887748 160.08470039 13.66743751 156.9042804 16 153.5 C16.47695313 152.77296875 16.95390625 152.0459375 17.4453125 151.296875 C18.61399542 149.52047696 19.80479314 147.75866152 21 146 C20.34 146 19.68 146 19 146 C18.73316406 146.60199219 18.46632813 147.20398438 18.19140625 147.82421875 C16.2345652 151.39785963 13.13707358 153.47577832 10 156 C9.38511719 156.53625 8.77023437 157.0725 8.13671875 157.625 C-5.35911364 168.94577591 -24.20657605 177.56671857 -42 178 C-43.1653125 178.05027344 -44.330625 178.10054687 -45.53125 178.15234375 C-70.04184759 178.90068956 -91.61921685 170.88340609 -111 156 C-111.76183594 155.46890625 -112.52367187 154.9378125 -113.30859375 154.390625 C-113.86675781 153.93171875 -114.42492187 153.4728125 -115 153 C-115 152.34 -115 151.68 -115 151 C-115.85851562 150.65195312 -115.85851562 150.65195312 -116.734375 150.296875 C-130.90163293 142.18734115 -139.05240161 118.94147475 -143.16796875 104.33203125 C-148.58348157 82.64455504 -145.8735333 57.77108374 -135.6875 37.875 C-134.49524305 35.89397918 -133.26565952 33.93494861 -132 32 C-130.99839844 30.39318359 -130.99839844 30.39318359 -129.9765625 28.75390625 C-126.02785764 22.70255169 -121.75067071 17.3858663 -116.6875 12.25 C-116.18387939 11.73622803 -115.68025879 11.22245605 -115.16137695 10.69311523 C-112.4966129 8.0915331 -110.61698071 6.76146962 -107 6 C-106.505 4.515 -106.505 4.515 -106 3 C-103.89276186 1.58132418 -101.84638411 0.3373496 -99.625 -0.875 C-98.98796143 -1.22723633 -98.35092285 -1.57947266 -97.69458008 -1.94238281 C-95.80384757 -2.97623279 -93.90409297 -3.99101109 -92 -5 C-91.08347656 -5.49242187 -90.16695312 -5.98484375 -89.22265625 -6.4921875 C-60.09351613 -20.94454978 -27.04683639 -15.88262574 0 0 Z M-86 41 C-86 41.66 -86 42.32 -86 43 C-86.88171875 43.3403125 -86.88171875 43.3403125 -87.78125 43.6875 C-94.70156671 47.78120848 -98.73297174 58.55293404 -101 66 C-104.29523046 81.22930833 -102.95577954 97.18205801 -95.42578125 110.859375 C-87.19434041 123.52313014 -74.64461644 131.69082209 -60 135 C-56.54901072 135.40601808 -53.15986792 135.47848808 -49.6875 135.4375 C-48.31283569 135.42505249 -48.31283569 135.42505249 -46.91040039 135.41235352 C-34.71181579 135.1102114 -23.82137931 131.40256027 -14 124 C-12.78756051 121.93123866 -12.78756051 121.93123866 -12 120 C-10.67532254 119.3162955 -9.34136367 118.65035814 -8 118 C-5.57714527 115.36553289 -5.57714527 115.36553289 -5 112 C-4.34 112 -3.68 112 -3 112 C-2.014733 109.77335683 -1.03668556 107.54398683 -0.0625 105.3125 C0.21529297 104.68666016 0.49308594 104.06082031 0.77929688 103.41601562 C6.25675114 90.81127146 6.04968685 73.58330835 1.25390625 60.75 C-5.42325327 46.10601151 -15.717961 36.36061533 -30.8125 30.6875 C-50.02926918 23.96021153 -70.3645272 28.20734043 -86 41 Z " fill="#00B363" transform="translate(781,252)"/>
<path d="M0 0 C1.25554687 -0.020625 2.51109375 -0.04125 3.8046875 -0.0625 C22.61107244 -0.14053479 41.14061377 6.46249102 55.875 18.25 C55.875 18.91 55.875 19.57 55.875 20.25 C56.61363281 20.49621094 57.35226562 20.74242187 58.11328125 20.99609375 C61.1558017 22.37749271 62.78785767 23.88826804 65.0625 26.3125 C67.67917081 29.17137806 67.67917081 29.17137806 70.875 31.25 C70.57207031 30.76644043 70.26914063 30.28288086 69.95703125 29.78466797 C68.5824051 27.57310598 67.22868604 25.34943544 65.875 23.125 C65.15957031 21.98417969 65.15957031 21.98417969 64.4296875 20.8203125 C59.7744925 13.10598935 59.7744925 13.10598935 60.875 8.25 C63.60603591 4.74354091 65.0626742 3.38785851 69.50024414 2.63476562 C70.88676525 2.61543415 72.27387483 2.62402724 73.66015625 2.65625 C74.39826035 2.65620972 75.13636444 2.65616943 75.89683533 2.65612793 C77.45092322 2.6614701 79.00501161 2.67899747 80.55883789 2.70800781 C82.93394662 2.74993727 85.30622339 2.74906778 87.68164062 2.7421875 C89.19533215 2.75267874 90.7090091 2.7656165 92.22265625 2.78125 C92.93003433 2.78145142 93.63741241 2.78165283 94.3662262 2.78186035 C97.21626836 2.85013053 99.48931106 3.05950869 102.06216526 4.33023834 C104.78401665 7.21263342 104.37558186 9.47287212 104.37620544 13.3861084 C104.38450704 14.48321207 104.38450704 14.48321207 104.39297634 15.60247946 C104.40662036 18.06019884 104.39159422 20.51690924 104.37670898 22.97460938 C104.38049082 24.7337131 104.38598974 26.49281385 104.39308167 28.25190735 C104.40707132 33.03496249 104.39584196 37.81765933 104.37937045 42.60069466 C104.3655455 47.60013249 104.37197711 52.59954899 104.37550354 57.59899902 C104.37820769 65.99558301 104.36471247 74.39202421 104.34155273 82.78857422 C104.31494172 92.50378951 104.31319514 102.21876602 104.3249411 111.93400526 C104.33571077 121.26990287 104.32953819 130.60571389 104.31538582 139.94160461 C104.30961896 143.91923564 104.30971418 147.89680345 104.31445122 151.87443542 C104.3192146 156.55629394 104.30914593 161.23789013 104.28749657 165.91969872 C104.28191979 167.64064334 104.28147154 169.36161313 104.28644943 171.08255959 C104.29238068 173.42663053 104.27993962 175.76989359 104.26268005 178.1138916 C104.25903521 180.08391018 104.25903521 180.08391018 104.25531673 182.09372711 C103.875 185.25 103.875 185.25 102.57562351 187.17273712 C99.60662931 189.05345159 96.21657427 188.65439358 92.8125 188.61328125 C92.02480225 188.61377975 91.23710449 188.61427826 90.42553711 188.61479187 C88.76120479 188.61245282 87.09686884 188.60273416 85.43261719 188.58618164 C82.88444401 188.56258744 80.33731716 188.56562186 77.7890625 188.57226562 C76.17186876 188.56668875 74.55467943 188.55957881 72.9375 188.55078125 C71.79365845 188.55214836 71.79365845 188.55214836 70.62670898 188.55354309 C66.84690586 188.50285761 65.09669461 188.39779641 61.875 186.25 C60.46999933 182.10524802 59.88671781 179.4493399 61.72412109 175.36035156 C64.1733772 170.81841103 66.98719405 166.52260179 69.875 162.25 C67.23214453 164.33824164 64.63353741 166.45740153 62.078125 168.65234375 C56.31221474 173.60217941 50.71532693 177.87887114 43.875 181.25 C43.15570312 181.65605469 42.43640625 182.06210937 41.6953125 182.48046875 C36.40608429 185.37440674 31.00691712 187.28740453 25.25 189 C24.19329102 189.31614258 24.19329102 189.31614258 23.11523438 189.63867188 C9.43160488 193.5355038 -5.30281325 193.34716092 -19.125 190.25 C-20.30707031 189.99347656 -21.48914062 189.73695313 -22.70703125 189.47265625 C-35.95221096 186.29435875 -47.28449761 180.53361491 -58.125 172.25 C-58.99511719 171.62996094 -59.86523438 171.00992188 -60.76171875 170.37109375 C-79.09467281 156.58868749 -90.31952542 134.28427854 -94.375 112.0625 C-97.7127199 87.0446355 -93.30139835 61.39499856 -78.25 40.66796875 C-76.26352756 38.14220008 -74.21870641 35.68744925 -72.125 33.25 C-71.3928125 32.38375 -70.660625 31.5175 -69.90625 30.625 C-65.87295974 25.94872144 -65.87295974 25.94872144 -64.125 24.25 C-63.465 24.25 -62.805 24.25 -62.125 24.25 C-62.125 23.59 -62.125 22.93 -62.125 22.25 C-59.76607471 20.396775 -57.41463957 18.68288657 -54.9375 17 C-54.21006592 16.50491943 -53.48263184 16.00983887 -52.7331543 15.49975586 C-36.32904454 4.56906285 -19.52196301 0.07871759 0 0 Z M-21.125 46.25 C-21.85976562 46.52714844 -22.59453125 46.80429687 -23.3515625 47.08984375 C-35.41361988 52.30392035 -44.08100154 63.70727371 -49.08984375 75.48046875 C-54.35287622 89.56156317 -53.42081561 105.4829237 -47.90625 119.3046875 C-42.29472051 131.5565269 -34.2304084 139.44371633 -22.125 145.25 C-21.23554687 145.68441406 -20.34609375 146.11882812 -19.4296875 146.56640625 C-7.32334922 151.51586364 8.78037446 151.06804505 20.953125 146.57421875 C35.42587852 140.01504302 45.30409908 131.46619487 51.35546875 116.6171875 C56.94394107 101.2665495 56.0103941 87.24226223 49.875 72.25 C46.24475698 64.82406052 41.10991616 56.64262767 33.875 52.25 C33.215 52.25 32.555 52.25 31.875 52.25 C31.875 51.59 31.875 50.93 31.875 50.25 C14.07754013 42.19937093 -2.34358667 38.70060837 -21.125 46.25 Z " fill="#00B363" transform="translate(1145.125,237.75)"/>
<path d="M0 0 C0.78391113 -0.00428513 1.56782227 -0.00857025 2.37548828 -0.01298523 C4.02961259 -0.01871728 5.68376209 -0.01923708 7.33789062 -0.01489258 C9.8663226 -0.01172961 12.39358733 -0.03521481 14.921875 -0.06054688 C16.53124853 -0.06281972 18.14062519 -0.06352343 19.75 -0.0625 C20.5042627 -0.07170975 21.25852539 -0.08091949 22.03564453 -0.09040833 C24.94990277 -0.0647526 27.39392717 0.08678498 30.07481384 1.27932739 C32.90452424 4.45684822 32.42006466 7.96931335 32.37329102 12.01635742 C32.37880981 12.90793045 32.38432861 13.79950348 32.39001465 14.71809387 C32.39934997 16.6578215 32.39942722 18.59761041 32.39142036 20.53734398 C32.37879328 23.6213409 32.39008348 26.70444197 32.40745544 29.78840637 C32.43968847 36.35507145 32.43918036 42.92155253 32.4375 49.48828125 C32.44000924 57.05712498 32.45620153 64.62569983 32.49394035 72.19445229 C32.5036682 75.20751869 32.4951115 78.22014364 32.48524475 81.23320007 C32.50617376 99.06382254 33.4735815 116.43881025 45.875 130.30078125 C54.46907164 138.87309575 63.39105102 141.33614302 75.1875 141.61328125 C87.95159393 141.38375708 97.98621238 138.23541745 107.68359375 129.7109375 C117.47128848 119.31310077 120.20315474 105.90263981 120.11450195 92.12524414 C120.11651611 91.16299927 120.11853027 90.20075439 120.12060547 89.20935059 C120.12412599 87.13983 120.12341504 85.0702986 120.11882973 83.00078011 C120.11320098 79.72674873 120.12245022 76.45306685 120.1360321 73.17906189 C120.17303418 63.87773901 120.19164149 54.57654107 120.18041992 45.27514648 C120.17458281 39.57057926 120.19274872 33.86651173 120.22630882 28.16204643 C120.23427585 25.99028354 120.2329683 23.81846639 120.22228432 21.64671516 C120.2080232 18.62076999 120.22415461 15.59641307 120.24731445 12.57055664 C120.23554672 11.6713298 120.22377899 10.77210297 120.21165466 9.84562683 C120.24616372 7.55561056 120.31976009 5.5223817 120.875 3.30078125 C124.79990538 -0.19738095 128.83274847 -0.12640549 133.87890625 -0.0625 C134.63920639 -0.0629985 135.39950653 -0.06349701 136.18284607 -0.06401062 C137.78395208 -0.06167819 139.38506232 -0.0519988 140.98608398 -0.03540039 C143.43311397 -0.01176112 145.8790563 -0.01485129 148.32617188 -0.02148438 C149.88542314 -0.01590843 151.44466984 -0.00879908 153.00390625 0 C153.73315811 -0.00091141 154.46240997 -0.00182281 155.21376038 -0.00276184 C158.89077503 0.0484585 161.81143262 0.14299735 164.875 2.30078125 C166.34090636 5.23259397 166.00439601 7.82021242 166.00871277 11.09507751 C166.01097833 11.80208583 166.01324388 12.50909414 166.01557809 13.23752695 C166.02193446 15.61922379 166.02108762 18.00086395 166.02026367 20.38256836 C166.02325456 22.08600437 166.02665693 23.78943971 166.03044128 25.49287415 C166.03930292 30.1343829 166.04162059 34.77587323 166.04225707 39.41738963 C166.04296754 42.32317404 166.04510203 45.22895377 166.04775429 48.13473701 C166.05702208 58.29091819 166.06108829 68.44708622 166.06030273 78.60327148 C166.05970487 88.03464946 166.07019547 97.46596969 166.0860464 106.89733309 C166.09919444 115.0131049 166.10448345 123.12885805 166.10384732 131.24464041 C166.10359402 136.08263362 166.10635048 140.92057577 166.11702538 145.75855827 C166.12682647 150.32629308 166.1267048 154.8939294 166.11950874 159.46166801 C166.1184769 161.12268724 166.12074047 162.78371298 166.1268692 164.44472122 C166.21099833 188.86341817 163.63974852 211.01731068 148.875 231.30078125 C146.875 233.27734375 146.875 233.27734375 144.875 234.92578125 C142.79566383 236.65585392 140.82290341 238.35445334 138.9375 240.296875 C132.03845951 246.99992002 122.86858823 251.20690155 113.875 254.30078125 C112.73675781 254.69523438 111.59851563 255.0896875 110.42578125 255.49609375 C100.59440846 258.49402405 90.69572268 258.6989956 80.5 258.73828125 C79.80039154 258.74445465 79.10078308 258.75062805 78.37997437 258.75698853 C76.37052198 258.76839599 74.36097088 258.75189566 72.3515625 258.734375 C71.17674316 258.72462646 70.00192383 258.71487793 68.79150391 258.70483398 C65.875 258.30078125 65.875 258.30078125 63.98852539 257.29785156 C62.16154373 254.02122144 62.51083952 250.5640105 62.58203125 246.9140625 C62.58627609 246.09705368 62.59052094 245.28004486 62.59489441 244.4382782 C62.61168309 241.82961018 62.64933481 239.22171563 62.6875 236.61328125 C62.70254663 234.8444122 62.71623508 233.07553104 62.72851562 231.30664062 C62.76158714 226.97105629 62.8133701 222.63604989 62.875 218.30078125 C65.80271888 216.63704989 67.9673377 216.03962711 71.32421875 215.95703125 C72.17306641 215.92738281 73.02191406 215.89773438 73.89648438 215.8671875 C74.77626953 215.84527344 75.65605469 215.82335937 76.5625 215.80078125 C91.36223872 215.42385907 106.01320841 212.1165483 116.875 201.30078125 C119.5388836 197.7045384 121.91274973 193.67062517 121.83984375 189.09375 C121.73846906 179.4341899 127.09193797 173.49025038 132.875 166.30078125 C130.35351468 167.78400791 127.88536179 169.29367121 125.47265625 170.94921875 C118.31513451 175.82383294 111.06196378 178.60211541 102.875 181.30078125 C102.01519531 181.65269531 101.15539062 182.00460937 100.26953125 182.3671875 C83.14835353 189.0424917 59.50232922 186.56990814 42.75 180.11328125 C31.75688463 175.1634242 22.5037721 168.66900428 13.875 160.30078125 C13.26269531 159.76195312 12.65039062 159.223125 12.01953125 158.66796875 C-2.26182803 145.66114726 -11.52278295 123.58175945 -12.56314087 104.52191162 C-12.76126787 97.98651404 -12.68914364 91.45486599 -12.61328125 84.91796875 C-12.60393244 82.52231593 -12.59682614 80.12665342 -12.59184265 77.73098755 C-12.57293569 71.48708766 -12.52397844 65.24378806 -12.46832275 59.00012207 C-12.41677507 52.6043306 -12.39425339 46.20844022 -12.36914062 39.8125 C-12.31584146 27.30833292 -12.23073057 14.80460739 -12.125 2.30078125 C-8.09657856 0.06269598 -4.5242196 -0.00546681 0 0 Z " fill="#00B363" transform="translate(868.125,240.69921875)"/>
</svg>
