<?xml version="1.0" encoding="UTF-8"?>
<svg version="1.1" xmlns="http://www.w3.org/2000/svg" width="6596" height="1796">
<path d="M0 0 C2176.68 0 4353.36 0 6596 0 C6596 592.68 6596 1185.36 6596 1796 C4419.32 1796 2242.64 1796 0 1796 C0 1203.32 0 610.64 0 0 Z " fill="#FBFBFC" transform="translate(0,0)"/>
<path d="M0 0 C2.80867436 0.01086228 5.61730124 0.01041489 8.42599297 0.01001453 C31.42237808 0.01063048 54.20488435 0.46419607 77.03649902 3.38311768 C78.33280746 3.5449353 78.33280746 3.5449353 79.65530396 3.71002197 C105.0910041 6.89459448 130.39495189 11.01077956 155.28649902 17.19561768 C156.47219482 17.485979 157.65789063 17.77634033 158.8795166 18.07550049 C204.95661169 29.41128647 249.77749762 44.71124274 292.70593262 64.98321533 C295.05443376 66.08658872 297.41130521 67.16776146 299.77478027 68.23858643 C342.76885854 87.83234623 382.31211821 115.06455738 418.03649902 145.82061768 C418.65057617 146.34695801 419.26465332 146.87329834 419.89733887 147.41558838 C423.66906075 150.68343099 427.23287518 154.09439725 430.73718262 157.64678955 C432.49344512 159.40249855 434.32509102 161.03338117 436.22399902 162.63311768 C442.4010936 167.97546974 448.00698609 173.7590085 453.32165527 179.95343018 C455.21782762 182.11725309 457.16952033 184.22088213 459.13635254 186.32037354 C465.08967481 192.69930385 470.52948872 199.37504561 475.82995605 206.30206299 C477.33162935 208.25428861 478.85232687 210.19048412 480.37634277 212.12530518 C518.83030458 261.2397131 546.69361153 319.14716174 563.28649902 379.19561768 C563.69859619 380.65934814 563.69859619 380.65934814 564.11901855 382.15264893 C572.45928549 412.00501996 578.15937388 442.23517621 582.22399902 472.94561768 C582.37361084 474.06547058 582.52322266 475.18532349 582.67736816 476.33911133 C584.21229158 487.94467665 585.57202773 499.49333047 585.99937439 511.19873047 C586.10780566 514.16236386 586.25422234 517.02017582 586.79145813 519.94035339 C587.36161092 523.68953458 587.42654629 527.3532528 587.41589355 531.13433838 C587.41764587 531.90770035 587.41939819 532.68106232 587.42120361 533.4778595 C587.42559051 536.02572908 587.42269208 538.57352867 587.41931152 541.12139893 C587.41998622 542.9105582 587.42095763 544.69971738 587.42221069 546.48887634 C587.42368403 550.24212516 587.42154759 553.99535015 587.41687012 557.74859619 C587.41121845 562.51103051 587.41442492 567.27340788 587.42044258 572.03584003 C587.42409705 575.7363679 587.42288669 579.43688281 587.42031479 583.13741112 C587.41965657 584.89011835 587.42043438 586.64282684 587.42279434 588.39553261 C587.43891119 603.74965472 586.88316964 618.95249312 584.91149902 634.19561768 C584.63746529 636.36741753 584.3640443 638.53929477 584.09118652 640.71124268 C583.95422363 641.79469971 583.81726074 642.87815674 583.67614746 643.9944458 C583.30881949 647.01224299 582.98069774 650.03097309 582.66931152 653.05499268 C579.22386676 685.72261025 572.60770088 718.91442855 562.86901855 750.28594971 C561.91666612 753.4080372 561.05103557 756.55513918 560.16149902 759.69561768 C549.69587846 795.45813822 536.73202985 830.74175868 520.28649902 864.19561768 C519.67741699 865.44254395 519.67741699 865.44254395 519.05603027 866.71466064 C508.5293424 888.05218702 495.62908106 908.237083 481.28649902 927.19561768 C480.74396484 927.92071533 480.20143066 928.64581299 479.64245605 929.3928833 C473.28351798 937.89136434 466.74745667 946.18355398 459.82165527 954.22686768 C457.48162327 956.96712087 455.22229436 959.75507287 452.97399902 962.57061768 C448.13027893 968.52743682 442.87837688 974.07371262 437.61071777 979.65264893 C435.04853776 982.36903091 432.55709652 985.13426066 430.09899902 987.94561768 C424.57302501 994.15837622 418.59123969 999.93748352 412.67248535 1005.77276611 C411.86448486 1006.57230713 411.05648437 1007.37184814 410.22399902 1008.19561768 C409.49052246 1008.91749268 408.7570459 1009.63936768 408.00134277 1010.38311768 C406.21634837 1012.09437571 406.21634837 1012.09437571 405.28649902 1014.19561768 C405.84853027 1014.42893799 406.41056152 1014.6622583 406.98962402 1014.90264893 C409.85384044 1016.51498844 411.75901923 1018.51497388 414.03649902 1020.88311768 C417.68022781 1024.60698713 421.40054134 1028.10040086 425.35681152 1031.48468018 C428.12620064 1033.94013045 430.68685026 1036.58658106 433.28259277 1039.22296143 C435.86896054 1041.76899597 438.60185182 1044.11583324 441.35290527 1046.48077393 C443.85081458 1048.69609147 446.16674891 1051.06459938 448.50524902 1053.44561768 C450.37039577 1055.27804255 452.30577648 1056.98914902 454.28649902 1058.69561768 C457.51606269 1061.47801099 460.51972555 1064.40581196 463.50524902 1067.44561768 C465.37039577 1069.27804255 467.30577648 1070.98914902 469.28649902 1072.69561768 C471.89297511 1074.94119707 474.37584423 1077.2411328 476.78649902 1079.69561768 C479.17703069 1082.129515 481.63696165 1084.40917327 484.22399902 1086.63311768 C487.75284665 1089.67241419 491.01654929 1092.90578615 494.28259277 1096.22296143 C496.86896054 1098.76899597 499.60185182 1101.11583324 502.35290527 1103.48077393 C504.85081458 1105.69609147 507.16674891 1108.06459938 509.50524902 1110.44561768 C511.37039577 1112.27804255 513.30577648 1113.98914902 515.28649902 1115.69561768 C518.51606269 1118.47801099 521.51972555 1121.40581196 524.50524902 1124.44561768 C526.37039577 1126.27804255 528.30577648 1127.98914902 530.28649902 1129.69561768 C533.51606269 1132.47801099 536.51972555 1135.40581196 539.50524902 1138.44561768 C541.37039577 1140.27804255 543.30577648 1141.98914902 545.28649902 1143.69561768 C547.89297511 1145.94119707 550.37584423 1148.2411328 552.78649902 1150.69561768 C555.17703069 1153.129515 557.63696165 1155.40917327 560.22399902 1157.63311768 C563.75284665 1160.67241419 567.01654929 1163.90578615 570.28259277 1167.22296143 C572.86896054 1169.76899597 575.60185182 1172.11583324 578.35290527 1174.48077393 C580.85081458 1176.69609147 583.16674891 1179.06459938 585.50524902 1181.44561768 C587.37039577 1183.27804255 589.30577648 1184.98914902 591.28649902 1186.69561768 C594.51606269 1189.47801099 597.51972555 1192.40581196 600.50524902 1195.44561768 C602.37039577 1197.27804255 604.30577648 1198.98914902 606.28649902 1200.69561768 C608.89297511 1202.94119707 611.37584423 1205.2411328 613.78649902 1207.69561768 C616.17703069 1210.129515 618.63696165 1212.40917327 621.22399902 1214.63311768 C624.75284665 1217.67241419 628.01654929 1220.90578615 631.28259277 1224.22296143 C633.86896054 1226.76899597 636.60185182 1229.11583324 639.35290527 1231.48077393 C641.84551847 1233.69139452 644.1577463 1236.05241087 646.48571777 1238.43389893 C649.05733508 1240.94973277 651.81077646 1243.23426649 654.58728027 1245.51983643 C656.38292688 1247.29071549 657.29761672 1248.8915721 658.28649902 1251.19561768 C657.45037658 1252.31351033 656.5913632 1253.41428766 655.72399902 1254.50811768 C655.24833496 1255.12300049 654.7726709 1255.7378833 654.28259277 1256.37139893 C647.89689733 1262.20724975 640.44734052 1261.61895229 632.27659607 1261.56983948 C630.9615056 1261.57381388 629.64641514 1261.57778829 628.29147345 1261.58188313 C624.65152347 1261.59244894 621.01181982 1261.5843546 617.37188065 1261.57313263 C613.4418998 1261.56427848 609.51195076 1261.57273789 605.58197021 1261.57899475 C597.88524109 1261.58847956 590.18860578 1261.58188462 582.49188363 1261.56973181 C573.52055835 1261.55609591 564.5492553 1261.55775124 555.57792229 1261.55986514 C539.56092149 1261.5630549 523.54396515 1261.55139063 507.52697754 1261.53179932 C492.00417729 1261.51281758 476.48142919 1261.50570598 460.95861816 1261.5112915 C444.04463387 1261.51735964 427.13067252 1261.51715159 410.21669012 1261.50580567 C408.41012641 1261.50459844 406.60356269 1261.50339246 404.79699898 1261.50218773 C403.90822625 1261.50158419 403.01945351 1261.50098065 402.10374827 1261.50035882 C395.85951155 1261.49648994 389.6152834 1261.49686939 383.37104607 1261.49877357 C375.74937239 1261.50090356 368.12774425 1261.49561155 360.50608336 1261.48116002 C356.62184406 1261.47395249 352.7376708 1261.46980751 348.85342598 1261.47440338 C345.28838932 1261.47851865 341.72348824 1261.47320561 338.15847201 1261.46077731 C336.27729096 1261.45652219 334.39609545 1261.46189683 332.51491874 1261.46776658 C307.41153067 1261.34031075 288.13428821 1253.70616666 270.28649902 1236.19561768 C269.60587402 1235.54206299 268.92524902 1234.8885083 268.22399902 1234.21514893 C265.48662358 1231.54498583 262.92366509 1228.78962127 260.45837402 1225.86749268 C255.32852829 1219.98272164 249.76178672 1214.52181156 244.23498535 1209.01373291 C242.35321628 1207.13732292 240.47685164 1205.25562799 238.60095215 1203.37335205 C233.15715471 1197.92684935 227.72404852 1192.53835744 221.85461426 1187.54547119 C218.98081462 1185.07166795 216.39307525 1182.32085778 213.75524902 1179.60186768 C211.78898818 1177.68538558 209.80215126 1175.91208735 207.71618652 1174.13311768 C204.26706607 1171.14184507 201.02278415 1167.98291145 197.82556152 1164.72686768 C197.34548645 1164.23891724 196.86541138 1163.7509668 196.37078857 1163.24822998 C194.38463576 1161.22583081 192.40137192 1159.20080917 190.42810059 1157.16583252 C179.78104195 1146.2056251 169.02369468 1136.34456634 153.09899902 1135.50811768 C143.55984053 1135.53418392 134.42565218 1137.99784768 125.20324707 1140.20367432 C99.92395215 1146.23251669 74.15528076 1150.70237705 48.28649902 1153.19561768 C46.99373047 1153.32951904 45.70096191 1153.46342041 44.36901855 1153.60137939 C10.67420453 1157.08242683 -22.97027555 1157.38038163 -56.71350098 1154.19561768 C-57.93939941 1154.08266357 -59.16529785 1153.96970947 -60.42834473 1153.85333252 C-144.04444449 1145.79589876 -228.05283806 1121.68595699 -302.71350098 1083.19561768 C-303.43779297 1082.8264624 -304.16208496 1082.45730713 -304.9083252 1082.07696533 C-342.73082965 1062.77649361 -379.03154804 1038.21592504 -410.30725098 1009.39093018 C-412.34690588 1007.53007619 -414.41160384 1005.71032945 -416.49475098 1003.89874268 C-429.02073846 992.96035128 -440.74213082 981.30544524 -451.99182129 969.06573486 C-453.50181628 967.42555313 -455.02242896 965.79649371 -456.54943848 964.17218018 C-461.99924278 958.30977239 -466.98209491 952.17688227 -471.86975098 945.84796143 C-473.75178481 943.41418494 -475.66647619 941.01398699 -477.61975098 938.63702393 C-512.09466756 896.60611737 -536.88360893 847.07359613 -554.72009277 795.98956299 C-555.35447776 794.20536494 -556.00778735 792.4277084 -556.6854248 790.65948486 C-559.99822844 781.97651317 -562.31086006 773.05285303 -564.65100098 764.07061768 C-564.98107147 762.81023178 -564.98107147 762.81023178 -565.31781006 761.52438354 C-568.97853786 747.50612165 -572.22849305 733.47481863 -574.71350098 719.19561768 C-574.89074707 718.19385498 -575.06799316 717.19209229 -575.25061035 716.15997314 C-578.09252484 699.91130143 -580.17046247 683.61622034 -581.71350098 667.19561768 C-581.85306184 665.77031613 -581.99271328 664.34502345 -582.13244629 662.91973877 C-584.30876424 640.31414336 -585.00722569 617.74873559 -585.02402115 595.04814148 C-585.02595791 593.05249695 -585.03123624 591.05685655 -585.03659058 589.06121826 C-585.07601032 562.60869324 -583.65087335 536.3375847 -580.46350098 510.07061768 C-580.35679077 509.17594788 -580.25008057 508.28127808 -580.14013672 507.35949707 C-574.25364057 458.2303913 -564.28857182 410.19600812 -548.71350098 363.19561768 C-548.43425781 362.3432251 -548.15501465 361.49083252 -547.86730957 360.61260986 C-531.56235347 311.08942211 -507.21966234 262.01560488 -475.05871582 220.92169189 C-473.73572758 219.22413711 -472.43448623 217.51209168 -471.13928223 215.79327393 C-465.26689425 208.02176964 -459.07446845 200.56922757 -452.71350098 193.19561768 C-451.75637207 192.08573486 -451.75637207 192.08573486 -450.77990723 190.95343018 C-449.10227112 189.02395493 -447.40941265 187.1090465 -445.71350098 185.19561768 C-445.07759033 184.47487061 -444.44167969 183.75412354 -443.78649902 183.01153564 C-438.10944039 176.63292074 -432.2013087 170.53213876 -426.15100098 164.50811768 C-425.25703613 163.61028564 -424.36307129 162.71245361 -423.4420166 161.78741455 C-418.3607351 156.71356726 -413.17747395 151.85283942 -407.71350098 147.19561768 C-406.6303143 146.24641374 -405.54823318 145.29594632 -404.46740723 144.34405518 C-395.52371755 136.54353342 -386.21838287 129.29704288 -376.71350098 122.19561768 C-376.06204102 121.70674072 -375.41058105 121.21786377 -374.73937988 120.71417236 C-353.12224249 104.52201482 -330.25025262 90.29436234 -306.40148926 77.62774658 C-303.81909807 76.25187858 -301.24803691 74.85674355 -298.67834473 73.45733643 C-255.28957948 50.02409916 -207.32407009 32.40591823 -159.42248535 20.85235596 C-157.09180053 20.28732873 -154.76871893 19.70185424 -152.44787598 19.09796143 C-131.40506585 13.66116843 -110.22468035 9.28674121 -88.71350098 6.19561768 C-87.53916504 6.0228833 -86.3648291 5.85014893 -85.15490723 5.67218018 C-81.40542059 5.12463609 -77.65382511 4.5947674 -73.90100098 4.07061768 C-72.25200806 3.83254395 -72.25200806 3.83254395 -70.56970215 3.58966064 C-47.1280556 0.42371506 -23.61219461 -0.11495646 0 0 Z " fill="#FC2218" transform="translate(2356.7135009765625,261.80438232421875)"/>
<path d="M0 0 C1.53118672 0.06069477 3.06239539 0.1208388 4.59362793 0.18036652 C21.58087361 0.84132123 38.52167539 1.78988474 55.46478271 3.19430923 C56.20078705 3.25476803 56.93679138 3.31522682 57.69509888 3.3775177 C71.63483243 4.5354763 85.4624116 5.99309288 99.16790771 8.87009048 C103.21976955 9.71207453 107.28988712 10.43267559 111.36517334 11.15134048 C147.81373161 17.5966647 183.82873603 28.9607722 217.33978271 44.71774673 C218.1995874 45.11816177 219.05939209 45.51857681 219.94525146 45.93112564 C247.04213409 58.65456731 272.57029587 76.04741468 293.33978271 97.71774673 C294.14415771 98.52212173 294.94853271 99.32649673 295.77728271 100.15524673 C296.62290771 101.00087173 297.46853271 101.84649673 298.33978271 102.71774673 C299.25437256 103.5627272 299.25437256 103.5627272 300.18743896 104.42477798 C323.02011338 126.09717131 339.25596626 155.9923415 351.33978271 184.71774673 C351.62837158 185.4001442 351.91696045 186.08254166 352.21429443 186.78561783 C356.83246815 197.88094043 359.81081174 209.36414538 362.67132568 221.01852798 C363.2594558 223.39338795 363.87307793 225.75914564 364.49993896 228.12399673 C370.23077812 250.25972761 371.52949205 273.36953059 371.47015381 296.1508522 C371.46480334 298.58337043 371.47013235 301.01570286 371.47650146 303.44821548 C371.48613908 324.08964825 370.10109708 344.42488735 365.76947021 364.64255142 C365.29457422 366.9360832 364.86160832 369.23533896 364.43353271 371.53805923 C362.57809565 381.42611156 360.34820674 390.96583257 357.09222412 400.4946022 C356.25828769 402.9585299 355.46193793 405.4333422 354.66400146 407.90915298 C345.36924156 436.21592178 332.04165766 461.83221981 314.33978271 485.71774673 C313.88490479 486.33246841 313.43002686 486.94719009 312.96136475 487.5805397 C305.74287411 497.24651273 297.71127367 506.04385393 289.33978271 514.71774673 C287.99013428 516.12927017 287.99013428 516.12927017 286.61322021 517.56930923 C280.8816189 523.44647503 274.75987023 528.61331918 268.33978271 533.71774673 C267.24044153 534.62847709 266.14285803 535.54133228 265.04681396 536.45602798 C221.99915013 572.09860766 167.80194171 595.5093066 114.33978271 610.71774673 C116.9921254 613.49743201 119.65052783 615.75996904 122.83978271 617.89743423 C123.71682861 618.48943619 124.59387451 619.08143814 125.49749756 619.69137955 C126.43545166 620.31883072 127.37340576 620.94628189 128.33978271 621.59274673 C130.33269093 622.93803386 132.32486286 624.28441225 134.31634521 625.63180923 C135.32342529 626.3127565 136.33050537 626.99370377 137.36810303 627.6952858 C142.68540595 631.31412719 147.94266647 635.01777387 153.20330811 638.71823502 C157.70002358 641.87828329 162.21531833 645.00639779 166.76092529 648.09567642 C191.86223129 665.17635686 215.71476122 685.48304898 235.33978271 708.71774673 C236.64109131 710.20274673 236.64109131 710.20274673 237.96868896 711.71774673 C245.27612273 720.07622474 252.09386342 728.74167221 258.75921631 737.61813736 C260.25211091 739.60128435 261.75668035 741.57487655 263.26556396 743.54587173 C277.96447428 762.8191628 291.31059466 783.05212452 304.6762085 803.2590065 C310.11146824 811.46307151 315.62486995 819.59703819 321.29681396 827.63962173 C327.76940559 836.82478677 333.98186038 846.16383163 340.1293335 855.56882095 C350.57189173 871.5389465 361.14075363 887.41847406 371.83978271 903.21774673 C382.8528702 919.4867086 393.71886415 935.84666305 404.50653076 952.26584244 C412.99682066 965.18501629 421.55851808 978.05471696 430.15228271 990.90524673 C437.90638412 1002.50112312 445.58097071 1014.12739982 453.02508545 1025.92526627 C461.06045211 1038.56423946 469.54331993 1050.91206913 477.96453857 1063.29562759 C483.88497091 1072.01575279 489.73393079 1080.75392338 495.23989868 1089.74339676 C496.7815394 1092.25728416 498.30912269 1094.67910846 500.14398193 1096.99142838 C500.53859619 1097.56111343 500.93321045 1098.13079849 501.33978271 1098.71774673 C500.65512902 1101.83672467 499.7707628 1103.3284744 497.40228271 1105.46774673 C494.16470357 1107.42991592 491.5615725 1107.8436757 487.85831833 1107.85196781 C486.4733595 1107.85865458 486.4733595 1107.85865458 485.06042171 1107.86547643 C483.53638882 1107.86519989 483.53638882 1107.86519989 481.98156738 1107.86491776 C480.90336267 1107.86859444 479.82515795 1107.87227113 478.71428037 1107.87605923 C475.08260713 1107.88711764 471.45096248 1107.89094365 467.8192749 1107.89474869 C465.2225129 1107.90101195 462.62575181 1107.90765862 460.0289917 1107.91466141 C452.21994366 1107.93442921 444.41089432 1107.9444953 436.6018275 1107.9533892 C432.92082248 1107.95777414 429.23981889 1107.96314065 425.558815 1107.96837807 C413.31397678 1107.98539546 401.06913946 1107.99988611 388.82429123 1108.00712681 C385.64618682 1108.00903661 382.46808241 1108.01095695 379.28997803 1108.01291275 C378.10516947 1108.01363836 378.10516947 1108.01363836 376.8964254 1108.01437863 C364.12238178 1108.02266557 351.34843222 1108.04797752 338.5744296 1108.08049343 C325.44690626 1108.11363528 312.31943058 1108.13158224 299.19186521 1108.13477105 C291.82656862 1108.13693025 284.46140893 1108.14559129 277.09615326 1108.17123222 C270.15879748 1108.19532785 263.22169083 1108.1987203 256.28430176 1108.18847084 C253.74597607 1108.18797685 251.20763805 1108.19425666 248.66934967 1108.20802689 C227.05650229 1108.31865831 209.52244197 1106.61773992 192.92181396 1091.35446548 C186.025172 1084.31175243 180.30536379 1077.04487091 175.02728271 1068.71774673 C174.37775635 1067.70736343 173.72822998 1066.69698013 173.059021 1065.65597916 C171.75185684 1063.6217714 170.44775207 1061.58559403 169.14691162 1059.54733658 C166.6875866 1055.69654261 164.20121894 1051.86356029 161.71478271 1048.03024673 C160.83176243 1046.66449564 159.94895115 1045.29860939 159.06634521 1043.93259048 C143.95660242 1020.56263454 128.71263386 997.27927311 113.47943115 973.98971939 C111.39309574 970.79927356 109.30767989 967.60822884 107.22259521 964.41696548 C96.40770515 947.86612875 85.56521451 931.33351907 74.71221924 914.80765152 C73.35129849 912.7352826 71.99053989 910.6628073 70.62982178 908.59030533 C57.95826327 889.29107762 45.2703046 870.00267181 32.55438232 850.73263931 C26.85392415 842.09273122 21.15922484 833.44928683 15.49182129 824.78764725 C12.91676767 820.85289368 10.33777659 816.92072804 7.75854492 812.98871231 C6.54740918 811.13999104 5.3381332 809.29004966 4.13098145 807.43872452 C-4.06027831 794.87797091 -12.63664478 782.69448842 -21.66021729 770.71774673 C-22.08299957 770.15439621 -22.50578186 769.59104568 -22.94137573 769.01062393 C-25.22822428 765.96370924 -27.53199616 762.93025996 -29.84771729 759.90524673 C-30.8496814 758.59535782 -30.8496814 758.59535782 -31.87188721 757.2590065 C-33.79895265 754.743418 -35.72947474 752.23051323 -37.66021729 749.71774673 C-38.18776611 749.02745377 -38.71531494 748.3371608 -39.2588501 747.62594986 C-60.16019811 720.30301981 -84.68817455 698.9730213 -117.84332275 688.30661392 C-119.33303119 687.82378985 -120.81272667 687.31017284 -122.28912354 686.78805923 C-139.88406195 680.85168001 -158.34435837 681.27050209 -176.66021729 681.71774673 C-177.68131592 681.73853287 -178.70241455 681.759319 -179.75445557 681.78073502 C-199.03634189 681.59815276 -199.03634189 681.59815276 -215.66021729 689.71774673 C-219.16636897 696.35439099 -219.78273995 702.86307311 -219.79329586 710.27155018 C-219.79753691 711.55525991 -219.80177795 712.83896964 -219.80614752 714.16157967 C-219.80584189 715.57373975 -219.80544873 716.98589981 -219.80497742 718.39805984 C-219.80811383 719.90792621 -219.81168926 721.41779172 -219.81566483 722.92765611 C-219.82533793 727.06919101 -219.82890925 731.21071211 -219.8315078 735.35225666 C-219.83540948 739.82211581 -219.84504656 744.29196288 -219.85406494 748.76181412 C-219.86899233 756.50682262 -219.88054219 764.25183016 -219.89001274 771.99684715 C-219.90390208 783.21006559 -219.92509287 794.42326162 -219.94844127 805.63646393 C-219.9863503 823.84966944 -220.02131515 842.06287901 -220.05303955 860.27609634 C-220.05494004 861.36602111 -220.05684054 862.45594587 -220.05879862 863.57889866 C-220.08561341 879.03607204 -220.10949287 894.49324857 -220.13218362 909.95042848 C-220.13457957 911.58213212 -220.13457957 911.58213212 -220.13702393 913.24679947 C-220.13861739 914.33327214 -220.14021086 915.41974481 -220.14185261 916.53914089 C-220.16865078 934.67614566 -220.2030631 952.81312655 -220.24367768 970.95010561 C-220.26840752 982.12954377 -220.28675942 993.30895629 -220.29683328 1004.48841744 C-220.30424325 1012.15550846 -220.31879813 1019.82256504 -220.33889752 1027.48963321 C-220.35024985 1031.90853587 -220.35842553 1036.32738309 -220.35788918 1040.74630165 C-220.35745836 1044.79985007 -220.36628049 1048.8532741 -220.38213897 1052.90679055 C-220.3862597 1054.36509233 -220.38711357 1055.82340825 -220.38417488 1057.2817129 C-220.35905876 1071.50243595 -220.84491448 1084.82375421 -228.78521729 1096.96774673 C-237.67645445 1105.47240837 -249.3872847 1107.03246473 -261.23017883 1106.97844315 C-262.13892161 1106.98226869 -263.04766439 1106.98609424 -263.98394483 1106.99003571 C-266.99987543 1107.00027563 -270.01561244 1106.99639086 -273.03155518 1106.99240494 C-275.20559361 1106.9967563 -277.37963052 1107.00194086 -279.55366516 1107.00789261 C-285.43780453 1107.02124557 -291.32187952 1107.02186559 -297.20603108 1107.01932931 C-302.12415437 1107.01825746 -307.04226475 1107.02314824 -311.96038526 1107.02793473 C-323.56322001 1107.03901629 -335.16602238 1107.03947438 -346.76885986 1107.03342056 C-358.72952724 1107.02737599 -370.69007713 1107.03970722 -382.65072447 1107.06099063 C-392.93209331 1107.07861154 -403.21342476 1107.08460736 -413.49480814 1107.08135289 C-419.6301728 1107.07954128 -425.76545357 1107.08216448 -431.90080452 1107.09606743 C-437.66861887 1107.10864967 -443.43624995 1107.10669777 -449.20406151 1107.09365654 C-451.31757799 1107.0912924 -453.4311074 1107.09401959 -455.54460907 1107.10227966 C-458.43569752 1107.11276206 -461.32617261 1107.10463442 -464.21723938 1107.09196854 C-465.04799313 1107.09934282 -465.87874688 1107.10671711 -466.73467499 1107.11431485 C-473.12001092 1107.05570044 -479.62108811 1106.07964823 -484.78131104 1102.06930923 C-485.2157251 1101.49954361 -485.65013916 1100.92977798 -486.09771729 1100.34274673 C-486.55017822 1099.77813736 -487.00263916 1099.21352798 -487.46881104 1098.63180923 C-490.40569201 1093.91354144 -490.9486835 1089.70935754 -490.91091561 1084.23982692 C-490.91372025 1083.4908229 -490.91652488 1082.74181889 -490.9194145 1081.97011778 C-490.92640292 1079.44714425 -490.91908626 1076.92441361 -490.91189957 1074.40144348 C-490.91398496 1072.57182507 -490.9169468 1070.74220749 -490.9207083 1068.91259176 C-490.92853456 1063.85581457 -490.92381655 1058.79911321 -490.91715239 1053.74233718 C-490.91209917 1048.25190283 -490.91859079 1042.7614805 -490.92363906 1037.27104783 C-490.93087993 1027.63861723 -490.93063259 1018.00620903 -490.92554474 1008.37377739 C-490.91835214 994.71967006 -490.92126272 981.06558137 -490.92710282 967.41147403 C-490.93768741 942.64743033 -490.93839624 917.88339542 -490.93280792 893.11935043 C-490.93255954 892.01812944 -490.93255954 892.01812944 -490.93230613 890.89466156 C-490.93214027 890.15934217 -490.93197441 889.42402278 -490.93180353 888.66642099 C-490.92676061 866.27990556 -490.92545277 843.89339377 -490.92784882 821.5068779 C-490.92800377 820.00876923 -490.92815809 818.51066057 -490.92831176 817.0125519 C-490.92893267 810.99248906 -490.92957 804.97242622 -490.93023128 798.95236338 C-490.93206549 782.12257223 -490.93320655 765.29278105 -490.93380356 748.46298981 C-490.93383085 747.69653587 -490.93385814 746.93008194 -490.93388626 746.14040212 C-490.93470506 721.71034077 -490.9324498 697.28028068 -490.9281044 672.85021973 C-490.9279639 672.05762446 -490.9278234 671.2650292 -490.92767865 670.44841589 C-490.92538866 657.57658406 -490.92294978 644.70475227 -490.9204983 631.83292047 C-490.9107873 580.78948014 -490.91123441 529.7460503 -490.92095947 478.70261002 C-490.92340181 465.84208935 -490.92582389 452.98156867 -490.9281044 440.12104797 C-490.9282453 439.32920299 -490.92838619 438.53735802 -490.92853136 437.72151773 C-490.93284334 413.32090372 -490.93467234 388.92029059 -490.93380356 364.51967621 C-490.93377639 363.75372868 -490.93374922 362.98778115 -490.93372123 362.19862309 C-490.93309628 345.38518147 -490.93182903 328.57173994 -490.92998255 311.75829841 C-490.92932425 305.74230268 -490.9286981 299.72630695 -490.92808113 293.71031122 C-490.92792635 292.21365023 -490.92776889 290.71698923 -490.92760874 289.22032824 C-490.92522068 266.84188716 -490.92725616 244.46345018 -490.93230613 222.08500961 C-490.93247172 221.35119346 -490.93263731 220.61737731 -490.93280792 219.86132431 C-490.93297329 219.12885837 -490.93313865 218.39639243 -490.93330903 217.64173055 C-490.93882351 192.94576526 -490.93680032 168.24981053 -490.92624643 143.55384675 C-490.92036238 129.30961981 -490.92000702 115.06541788 -490.92753878 100.82119157 C-490.9320118 91.31507792 -490.92925375 81.8089844 -490.92052925 72.30287374 C-490.9157563 66.8808717 -490.91417686 61.45891949 -490.92134121 56.03691897 C-490.92778964 51.10661125 -490.92507458 46.17639767 -490.91497989 41.24609684 C-490.91296176 39.47145749 -490.91430775 37.69681039 -490.91939177 35.92217717 C-490.97961034 13.3010184 -490.97961034 13.3010184 -484.66021729 5.71774673 C-473.66734098 -1.99461386 -455.55357107 0.30225447 -442.68756104 0.12009048 C-440.40918308 0.08147282 -438.1308171 0.04214263 -435.85246277 0.0021553 C-429.71650524 -0.10299305 -423.58042406 -0.19658015 -417.44423676 -0.28720474 C-413.5654459 -0.34523608 -409.68671274 -0.40622759 -405.8079834 -0.46822739 C-388.64285895 -0.74256417 -371.4775424 -0.99463972 -354.31186676 -1.23167801 C-350.848772 -1.27964179 -347.38568845 -1.32834125 -343.92260742 -1.377285 C-257.49212349 -2.59336811 -171.01839567 -2.8473952 0 0 Z " fill="#FC2218" transform="translate(3594.6602172851563,284.28225326538086)"/>
<path d="M0 0 C0.80671071 -0.00260729 1.61342142 -0.00521457 2.4445779 -0.00790086 C5.15902219 -0.0142179 7.87323661 -0.00622695 10.58767414 0.00165081 C12.54923965 0.00006308 14.51080462 -0.00240016 16.47236806 -0.0056656 C21.87225572 -0.01209273 27.27206865 -0.00600017 32.67195141 0.00209868 C38.49314023 0.00866638 44.31432057 0.00372895 50.13551044 0.00021648 C61.54897618 -0.00483225 72.96241299 0.00082621 84.37587514 0.01006678 C97.00766978 0.01992528 109.63945958 0.02043509 122.27125708 0.01996698 C147.42475094 0.01906026 172.57822976 0.02901156 197.7317184 0.04439665 C220.03415445 0.0579879 242.33657981 0.06425933 264.63901997 0.06358624 C266.06806722 0.06354582 267.49711447 0.06350546 268.92616173 0.06346516 C269.63268005 0.0634448 270.33919837 0.06342445 271.06712633 0.06340349 C274.62434328 0.06330268 278.18156022 0.0632121 281.73877716 0.06313324 C282.44069407 0.06311653 283.14261098 0.06309981 283.8657981 0.06308259 C302.53284346 0.06271622 321.19988749 0.06726972 339.86693174 0.0734598 C340.86505818 0.07379021 340.86505818 0.07379021 341.88334879 0.07412729 C345.22421969 0.07523637 348.56509059 0.07635805 351.90596148 0.07749609 C361.1611959 0.08050072 370.41642939 0.08157429 379.67166424 0.08202839 C390.98062236 0.08271448 402.28957206 0.08723285 413.59852662 0.0963612 C419.35961833 0.10094309 425.12069937 0.10403826 430.88179302 0.10276699 C485.16919077 0.09346576 485.16919077 0.09346576 510.03916645 2.12388897 C511.08951069 2.2077586 512.13985493 2.29162823 513.22202778 2.37803936 C529.96895473 3.77372054 546.55022863 5.66744341 562.97666645 9.24888897 C564.57227534 9.56517231 566.16869027 9.87740626 567.76572895 10.18638897 C629.19548716 22.07241495 688.96118089 46.44633349 736.97666645 87.24888897 C737.96537739 88.06486553 738.95408833 88.88084209 739.9727602 89.72154522 C757.89462593 104.55793105 774.68894052 120.84728333 788.97666645 139.24888897 C789.42719379 139.82687237 789.87772114 140.40485577 790.34190083 141.00035381 C825.82982204 186.73428699 847.37860183 239.91703281 854.97666645 297.24888897 C855.06849201 297.93127636 855.16031757 298.61366375 855.25492573 299.31672955 C857.09270263 313.3471225 857.3757388 327.29929455 857.35166645 341.43638897 C857.35145496 342.5873103 857.35124348 343.73823162 857.35102558 344.92402935 C857.29852161 373.76015664 855.48793248 402.51401392 848.61777973 430.60924053 C847.95344038 433.34451741 847.33433074 436.08730161 846.7227602 438.83482647 C841.09478723 463.8259432 832.13133565 488.74021035 819.98789692 511.33531475 C818.89557272 513.40234447 817.85824931 515.49191669 816.8243227 517.58873272 C807.83998322 535.56885185 796.48143 552.52024106 783.97666645 568.24888897 C783.25479145 569.16154522 782.53291645 570.07420147 781.78916645 571.01451397 C777.16092049 576.76768083 772.30598796 582.27126684 767.30479145 587.70201397 C765.35866053 589.83100283 763.47093213 591.9904555 761.60166645 594.18638897 C754.37156185 602.49331766 746.36862669 610.13203223 737.97666645 617.24888897 C737.02018208 618.09451397 736.0636977 618.94013897 735.07822895 619.81138897 C689.11433783 660.27615189 632.25551531 690.43336717 573.26475239 706.60704327 C571.47157824 707.11005808 569.68430473 707.63411612 567.89951801 708.1661253 C559.37035432 710.6848005 550.83657942 712.65196106 542.10166645 714.31138897 C541.43801075 714.4389558 540.77435505 714.56652264 540.09058857 714.69795513 C527.45446864 717.1178865 514.77470581 718.92836051 501.97666645 720.24888897 C501.27320624 720.328862 500.56974604 720.40883504 499.84496886 720.4912315 C494.0368869 721.12338441 488.32231598 721.39639649 482.48263264 721.3936491 C481.13176912 721.39893937 481.13176912 721.39893937 479.75361544 721.40433651 C476.76537899 721.41492783 473.77717452 721.41868759 470.78892231 721.42247295 C468.63458849 721.42878545 466.48025596 721.43555201 464.32592487 721.44273663 C459.70106941 721.45735555 455.07621881 721.4691006 450.45135021 721.47868443 C443.13477844 721.49418983 435.8182492 721.51813721 428.50170612 721.54358196 C407.70131336 721.6146497 386.90089689 721.67460393 366.10044575 721.72569561 C354.60160434 721.75401426 343.10280596 721.78939799 331.60400969 721.83234936 C324.33413486 721.85908072 317.06430863 721.87701054 309.79439437 721.88838661 C305.26957144 721.89752565 300.74480759 721.91489288 296.22001934 721.93456554 C294.12586364 721.94202488 292.03169278 721.94612113 289.93752384 721.94656086 C287.07280488 721.94764794 284.20838433 721.96093625 281.34371662 721.9771452 C280.52074477 721.97452834 279.69777291 721.97191149 278.84986252 721.96921533 C270.93457196 722.03888533 263.10239931 722.83545063 256.97666645 728.24888897 C251.76996798 735.90874345 251.82639855 744.33938967 251.63535786 753.28843975 C251.61070768 754.29002369 251.58605751 755.29160763 251.56066036 756.32354259 C251.47891372 759.69700892 251.4034381 763.07058346 251.32822895 766.44420147 C251.27081501 768.89817603 251.21317065 771.35214521 251.15531635 773.80610943 C251.01403373 779.86090276 250.87753899 785.91578761 250.74363661 791.97074735 C250.63324926 796.96185463 250.52087643 801.95291404 250.40763569 806.94395733 C249.02977141 867.818794 248.02595267 928.70004265 247.0705843 989.58277607 C246.96575499 996.26309706 246.85976266 1002.94339953 246.75363588 1009.62370002 C246.6832741 1014.06298636 246.61381362 1018.50228272 246.54666615 1022.94161892 C246.39054752 1033.25491978 246.22149832 1043.56784095 246.02232742 1053.88040829 C245.99125546 1055.49214217 245.96066014 1057.1038853 245.93048668 1058.71563625 C245.83698128 1063.67990429 245.73312819 1068.64377795 245.61531472 1073.60753059 C245.5798517 1075.15116458 245.54724258 1076.69486741 245.51782203 1078.23862839 C245.06021613 1101.80547894 245.06021613 1101.80547894 239.00010395 1108.81138897 C232.79272354 1113.2212654 226.41482123 1113.68485015 219.0710268 1113.6298399 C218.10203402 1113.63451987 217.13304124 1113.63919984 216.13468504 1113.64402163 C212.90283457 1113.65594317 209.67141035 1113.64652535 206.43955708 1113.63707256 C204.11640902 1113.64113951 201.7932629 1113.64648209 199.47012043 1113.65300274 C193.1706228 1113.66666732 186.87127275 1113.66138112 180.57177258 1113.65186548 C174.6446953 1113.64503531 168.71763616 1113.65025177 162.7905584 1113.65464707 C150.3361941 1113.66319297 137.88189616 1113.65337941 125.42754275 1113.63724597 C114.75101301 1113.6238435 104.07458114 1113.62617182 93.39805317 1113.64000225 C80.98695977 1113.65607222 68.57592445 1113.66236907 56.1648221 1113.65316546 C49.59966368 1113.64849098 43.03457261 1113.647858 36.46941853 1113.65777493 C30.29698515 1113.66644753 24.12473641 1113.66041703 17.95232296 1113.64309216 C15.68842405 1113.63912893 13.42450957 1113.64025854 11.16061687 1113.64688015 C8.06763758 1113.65509195 4.97524795 1113.64477797 1.8823061 1113.6298399 C0.98891104 1113.63653206 0.09551599 1113.64322423 -0.82495165 1113.65011919 C-7.80181345 1113.58487377 -13.42145364 1112.45483063 -18.89833355 1107.81138897 C-24.36880809 1101.21464026 -24.17663535 1093.64860214 -24.15213472 1085.35875082 C-24.15390973 1084.60162175 -24.15568474 1083.84449268 -24.15751353 1083.06442031 C-24.16223778 1080.53191019 -24.15988436 1077.99945741 -24.15755463 1075.46694469 C-24.15950859 1073.62329527 -24.16189782 1071.77964626 -24.1646826 1069.9359979 C-24.1710801 1064.85427583 -24.17124442 1059.77256957 -24.17040519 1054.69084423 C-24.17057473 1049.16814739 -24.17648135 1043.64545622 -24.18164605 1038.1227622 C-24.19097351 1027.16250142 -24.19489433 1016.20224468 -24.19716501 1005.24198042 C-24.19997461 992.79055619 -24.20791816 980.33913685 -24.21623267 967.88771532 C-24.23782137 935.49441853 -24.24870869 903.10112092 -24.2577089 870.70781859 C-24.26064317 860.20541627 -24.26401309 849.70301416 -24.26767612 839.20061207 C-24.26793441 838.45962844 -24.2681927 837.71864481 -24.26845882 836.95520713 C-24.26950505 833.95741163 -24.27055347 830.95961614 -24.27160464 827.96182065 C-24.28956661 776.69090924 -24.30494664 725.41999751 -24.31236367 674.1490834 C-24.31294764 670.12276032 -24.31354491 666.09643724 -24.31414128 662.07011417 C-24.3142594 661.27142034 -24.31437752 660.47272651 -24.31449922 659.64982983 C-24.31569661 651.55794448 -24.31690537 643.46605913 -24.31813176 635.37417379 C-24.31837699 633.75172806 -24.31862085 632.12928233 -24.31886332 630.5068366 C-24.32665616 578.37908167 -24.34904814 526.25134924 -24.38153975 474.12360415 C-24.4048806 436.66422479 -24.42643455 399.20484988 -24.43354607 361.74546337 C-24.43369309 360.97536806 -24.43384011 360.20527276 -24.43399158 359.41184123 C-24.43717613 342.50778742 -24.43922722 325.60373366 -24.44021913 308.69967959 C-24.44063388 301.89859308 -24.44118877 295.09750659 -24.44178104 288.2964201 C-24.44184171 287.55208269 -24.44190238 286.80774528 -24.44196489 286.04085219 C-24.44398189 262.05205757 -24.45822753 238.06328949 -24.47872605 214.07450414 C-24.49929335 189.91968269 -24.5072081 165.76489195 -24.49764828 141.61006262 C-24.49172337 126.61866215 -24.49656418 111.62736121 -24.51938693 96.63597512 C-24.53283863 87.08072408 -24.53186812 77.52554604 -24.51898497 67.97029435 C-24.51205084 62.51941313 -24.51154606 57.06873424 -24.52854506 51.61787063 C-24.5438735 46.6625251 -24.54090839 41.7075458 -24.52313478 36.75221152 C-24.51997586 34.9674256 -24.52357196 33.18261219 -24.53462652 31.39785772 C-24.63773581 13.5962276 -24.63773581 13.5962276 -18.2772398 6.22545147 C-17.71907574 5.77943584 -17.16091167 5.33342022 -16.58583355 4.87388897 C-16.03024761 4.41240459 -15.47466167 3.95092022 -14.9022398 3.47545147 C-10.07907433 0.32685696 -5.64068088 -0.03746942 0 0 Z " fill="#063EA1" transform="translate(4373.0233335494995,285.7511110305786)"/>
<path d="M0 0 C1.22133698 -0.00467997 1.22133698 -0.00467997 2.46734744 -0.00945449 C5.18157891 -0.01739858 7.89558457 -0.01112477 10.6098175 -0.00482178 C12.56179942 -0.00753334 14.51378032 -0.0110952 16.46575928 -0.01544189 C21.75939566 -0.02455151 27.05295398 -0.0210267 32.34659171 -0.01468372 C37.89566489 -0.00961277 43.44473148 -0.01431856 48.99380493 -0.01745605 C58.31731869 -0.02109402 67.64080075 -0.01630262 76.96430969 -0.0067749 C87.72343611 0.00409335 98.48248663 0.00059523 109.24161118 -0.01042771 C118.49282531 -0.01952448 127.74401667 -0.02077371 136.99523383 -0.01555037 C142.5142372 -0.01244175 148.033205 -0.01199047 153.55220604 -0.01862335 C158.74706226 -0.02443041 163.94182143 -0.02033876 169.13666725 -0.00883484 C171.03606124 -0.00620546 172.9354635 -0.00692365 174.83485413 -0.01136017 C202.99845703 -0.07104229 202.99845703 -0.07104229 210.83369446 7.31646729 C216.40879872 16.35198108 214.93710711 28.40677887 214.92466736 38.65414429 C214.92967446 40.53131185 214.93555147 42.40847725 214.94222009 44.28563964 C214.95798387 49.4279702 214.96144878 54.57024605 214.96286869 59.71259785 C214.96656906 65.26395529 214.98172773 70.81528294 214.9954834 76.36662292 C215.01774002 85.97941907 215.03276292 95.59220459 215.04285049 105.2050209 C215.05744586 119.10347821 215.08298512 133.00189852 215.11118178 146.9003341 C215.15663416 169.45049436 215.19327243 192.00065874 215.22431946 214.55084229 C215.25449694 236.45417212 215.28884176 258.35748897 215.32881165 280.26080322 C215.33004265 280.93629529 215.33127365 281.61178736 215.33254196 282.30774888 C215.34490911 289.09149299 215.35736081 295.87523694 215.36987444 302.65898078 C215.47476247 359.52395799 215.56539834 416.38895106 215.64619446 473.25396729 C217.57261025 471.17252009 219.49828354 469.09039428 221.42353821 467.00787354 C221.9660321 466.42187378 222.508526 465.83587402 223.06745911 465.2321167 C225.82147698 462.2519993 228.55256402 459.25980074 231.20869446 456.19146729 C239.57339101 446.58682747 248.34120904 437.45547349 257.33369446 428.44146729 C257.83078918 427.94178436 258.32788391 427.44210144 258.84004211 426.92727661 C264.59473949 421.14899636 270.42695277 415.53330395 276.64619446 410.25396729 C278.10992493 408.96812744 278.10992493 408.96812744 279.60322571 407.65631104 C312.81650653 378.98657068 351.40146796 357.29297867 393.64619446 345.25396729 C394.40819153 345.03112061 395.1701886 344.80827393 395.95527649 344.57867432 C420.7532705 337.47489199 447.94196966 335.01949674 473.64619446 336.25396729 C474.63667786 336.29795654 475.62716125 336.3419458 476.6476593 336.38726807 C541.69250188 339.60178357 604.1860964 366.36129518 651.79072571 410.62115479 C654.30923345 412.94328094 656.86927187 415.19935265 659.45869446 417.44146729 C663.57907335 421.09830355 667.10124967 425.04739234 670.64619446 429.25396729 C671.51888977 430.23881104 672.39158508 431.22365479 673.29072571 432.23834229 C718.96279184 483.92411363 736.67356113 547.00451222 741.24433899 614.48101807 C741.34097064 615.90613815 741.34097064 615.90613815 741.43955445 617.36004853 C743.06336458 641.97740375 743.20873955 666.59702422 743.30848932 691.25933313 C743.32627275 695.27182927 743.34912739 699.28426301 743.37418747 703.2967186 C743.80997002 773.40989465 743.79961459 843.52553976 743.77565846 913.63978371 C743.77109693 927.22163032 743.77204214 940.80346844 743.77656555 954.38531494 C743.78192103 970.47136792 743.78402976 986.55741595 743.78095329 1002.64346969 C743.78063491 1004.35293889 743.78032054 1006.06240809 743.78001022 1007.77187729 C743.77985595 1008.61157166 743.77970167 1009.45126603 743.77954272 1010.31640569 C743.77868743 1016.16725882 743.78011687 1022.01810871 743.78248978 1027.86896133 C743.78529465 1034.9321847 743.78453096 1041.99539694 743.77920903 1049.05861904 C743.77659599 1052.64178996 743.77552737 1056.22494234 743.77885818 1059.8081131 C743.78241898 1063.69633502 743.77814961 1067.58452697 743.7731781 1071.4727478 C743.77540882 1072.58557322 743.77763954 1073.69839863 743.77993786 1074.84494603 C743.7136484 1101.67044388 743.7136484 1101.67044388 737.86163902 1108.26494312 C729.4547436 1115.81264637 714.50782117 1113.6693071 703.98750305 1113.62628174 C701.90198587 1113.62871277 699.81646985 1113.6324351 697.73095703 1113.63734436 C692.09269137 1113.64671315 686.45460051 1113.63736229 680.81634855 1113.62401223 C674.90421253 1113.61265757 668.9920846 1113.61680827 663.0799408 1113.61875916 C653.15570739 1113.61964072 643.23154248 1113.60858927 633.30732727 1113.59014893 C621.84482532 1113.56897179 610.38242357 1113.56547476 598.91990602 1113.57171088 C587.87543505 1113.57741116 576.83099925 1113.57175179 565.78653336 1113.56053734 C561.09377515 1113.55590135 556.40103852 1113.55501315 551.70827866 1113.55712318 C546.18095882 1113.55901086 540.65374055 1113.5508653 535.12644386 1113.53506279 C533.10162209 1113.53083132 531.07678999 1113.52996171 529.05196571 1113.53275299 C526.28145626 1113.53599203 523.51124703 1113.52684984 520.74076843 1113.5146637 C519.94571534 1113.51844302 519.15066224 1113.52222234 518.33151662 1113.52611619 C511.37628806 1113.4722531 503.11212938 1112.93905437 497.64619446 1108.25396729 C492.72554747 1101.03145832 492.52273024 1093.14543002 492.51590919 1084.63791466 C492.51396577 1083.91167111 492.51202234 1083.18542757 492.51002002 1082.43717664 C492.50472482 1080.01454739 492.50645806 1077.59197571 492.50816345 1075.16934204 C492.50574358 1073.41015358 492.50288075 1071.65096568 492.49961412 1069.89177859 C492.49187761 1065.06509217 492.49024258 1060.23841999 492.48956299 1055.41172814 C492.48772004 1050.20197129 492.48011083 1044.99222269 492.4730835 1039.7824707 C492.46156323 1030.75192748 492.45331557 1021.72138611 492.44696426 1012.69083786 C492.43661798 998.39144418 492.4160463 984.09207358 492.3938446 969.79269409 C492.38636467 964.89437683 492.37895086 959.99605947 492.37155724 955.09774208 C492.36970667 953.87348502 492.3678561 952.64922797 492.36594946 951.38787221 C492.34502418 937.45277725 492.32619836 923.51767973 492.30830383 909.58258057 C492.30584656 907.67222403 492.30584656 907.67222403 492.30333965 905.72327442 C492.27711654 885.13523396 492.25843924 864.54719171 492.24171193 843.95914166 C492.22423153 822.78455031 492.19531933 801.60999371 492.15682256 780.43543017 C492.13354089 767.39880612 492.11943871 754.36223879 492.11749493 741.32559378 C492.11536967 732.36699967 492.10230936 723.40846166 492.0810156 714.4498928 C492.06910425 709.29785998 492.06175513 704.14593842 492.06772804 698.99389267 C492.12192394 644.91866973 487.65593257 593.14488963 448.02119446 552.56646729 C447.23744446 551.80334229 446.45369446 551.04021729 445.64619446 550.25396729 C444.9539679 549.49406494 444.9539679 549.49406494 444.24775696 548.71881104 C426.0710006 529.25638166 396.66648724 517.40962519 370.37812805 516.08990479 C333.86375444 514.87864706 301.96426038 525.35713507 274.89619446 550.19146729 C258.22962224 565.90367569 245.43082527 584.10219167 234.64619446 604.25396729 C234.30894348 604.88302979 233.9716925 605.51209229 233.6242218 606.16021729 C216.58037836 638.62807154 213.87617463 672.91505727 214.01064146 708.77852237 C214.02420734 713.89688457 214.0084658 719.01517507 213.99647522 724.13352966 C213.97957133 732.97121653 213.98036784 741.80875304 213.99347878 750.64644432 C214.01224417 763.43243556 214.00126182 776.218273 213.98300221 789.00425879 C213.95395742 809.76776227 213.94548072 830.53121765 213.95161438 851.29473877 C213.95748989 871.42658028 213.95852737 891.55840561 213.94966125 911.69024658 C213.94911868 912.93316797 213.94857611 914.17608935 213.9480171 915.45667502 C213.94185075 929.02623834 213.93312032 942.5957976 213.92066479 956.16535664 C213.9195723 957.3575183 213.91847981 958.54967995 213.91735422 959.77796772 C213.91293528 964.54313767 213.90846127 969.30830752 213.90362861 974.07347707 C213.889519 988.01008937 213.88347358 1001.9466473 213.89216449 1015.883265 C213.89734401 1024.61022463 213.89598084 1033.3371662 213.88946144 1042.0641249 C213.88601279 1047.09811148 213.88596767 1052.13204186 213.89468956 1057.16602325 C213.90265266 1061.77356678 213.90149535 1066.3810147 213.89312365 1070.98855666 C213.89174494 1072.65477271 213.89376079 1074.32099577 213.89952175 1075.98720243 C213.90689128 1078.25348802 213.90191174 1080.51943219 213.89394093 1082.78570843 C213.89437297 1084.04389501 213.89480501 1085.3020816 213.89525014 1086.59839505 C213.52030489 1092.10174045 212.87266129 1096.7692969 209.27119446 1101.12896729 C203.51779209 1105.78648348 197.92805946 1106.31875105 190.63642883 1106.53521729 C189.46214325 1106.57200089 188.28785767 1106.60878448 187.07798767 1106.64668274 C185.81143341 1106.68208664 184.54487915 1106.71749054 183.23994446 1106.75396729 C181.89572738 1106.79426125 180.55151976 1106.83487203 179.20732117 1106.8757782 C175.60311672 1106.98431594 171.99877664 1107.08749599 168.39438629 1107.18964767 C165.37513399 1107.27602693 162.3559932 1107.36601482 159.33684349 1107.45589733 C145.65741695 1107.86225533 131.978073 1108.25541194 118.29463196 1108.50006104 C116.92295868 1108.52467659 116.92295868 1108.52467659 115.52357483 1108.54978943 C113.73477838 1108.58157043 111.9459804 1108.61326482 110.15718079 1108.64486694 C109.2873053 1108.66024506 108.41742981 1108.67562317 107.52119446 1108.69146729 C106.64584045 1108.70676483 105.77048645 1108.72206238 104.86860657 1108.73782349 C92.78721436 1108.95938545 80.72317269 1109.39962931 68.65400696 1109.98052979 C67.95410519 1110.01410898 67.25420341 1110.04768818 66.5330925 1110.08228493 C60.22966383 1110.38584265 53.9264721 1110.69366539 47.62464905 1111.02908325 C33.15477204 1111.79901588 18.69874614 1112.41070465 4.20869446 1112.53131104 C2.96450745 1112.55101456 1.72032043 1112.57071808 0.43843079 1112.59101868 C-7.53865692 1112.60557013 -13.21546716 1111.7934022 -20.10380554 1107.56646729 C-26.12090459 1101.3822266 -27.50693492 1094.21202888 -27.48260671 1085.86062312 C-27.48438172 1085.1086064 -27.48615673 1084.35658967 -27.48798553 1083.58178456 C-27.49274526 1081.04257661 -27.49034775 1078.50342498 -27.48802662 1075.96421432 C-27.48997877 1074.12522689 -27.49236732 1072.28623988 -27.49515459 1070.44725353 C-27.50157479 1065.3598273 -27.50171461 1060.27241682 -27.50087718 1055.18498732 C-27.50104628 1049.66306045 -27.50694791 1044.14113929 -27.51211804 1038.61921525 C-27.52145946 1027.6519669 -27.52536867 1016.68472259 -27.52763701 1005.71747077 C-27.53044333 993.26074117 -27.53838458 980.80401648 -27.54670466 968.34728958 C-27.56831044 935.936299 -27.57918399 903.52530758 -27.5881809 871.11431144 C-27.59111423 860.60591285 -27.59448403 850.09751446 -27.59814811 839.5891161 C-27.5984064 838.84793155 -27.59866469 838.106747 -27.59893081 837.34310231 C-27.59997701 834.34462022 -27.60102544 831.34613813 -27.60207663 828.34765604 C-27.62004108 777.05986918 -27.6354211 725.77208199 -27.64283566 674.48429242 C-27.64341964 670.45527218 -27.6440169 666.42625195 -27.64461328 662.39723171 C-27.6447314 661.59799448 -27.64484952 660.79875724 -27.64497122 659.9753007 C-27.64616862 651.87777575 -27.64737738 643.78025081 -27.64860375 635.68272586 C-27.64884898 634.05913655 -27.64909284 632.43554724 -27.64933532 630.81195792 C-27.65712671 578.65716525 -27.67951392 526.50239507 -27.71201175 474.34761224 C-27.73535249 436.8761274 -27.75690672 399.40464703 -27.76401806 361.93315506 C-27.76416508 361.16279128 -27.7643121 360.39242749 -27.76446358 359.59871935 C-27.76764816 342.68857448 -27.76969922 325.77842964 -27.77069112 308.86828451 C-27.77110587 302.06460716 -27.77166077 295.26092983 -27.77225304 288.4572525 C-27.77231371 287.71262293 -27.77237437 286.96799337 -27.77243688 286.20079926 C-27.77445404 262.20073328 -27.78870097 238.20069383 -27.80919804 214.2006371 C-27.82976603 190.03188915 -27.83767982 165.86317189 -27.82812028 141.69441607 C-27.8221953 126.69374152 -27.82703637 111.69316643 -27.84985892 96.69250626 C-27.86331068 87.13120318 -27.86234005 77.56997306 -27.84945696 68.00866934 C-27.84252278 62.55426098 -27.84201819 57.10005482 -27.85901705 51.64566407 C-27.87434547 46.68706868 -27.8713804 41.72883929 -27.85360677 36.77025514 C-27.85044784 34.98428345 -27.85404402 33.19828429 -27.86509852 31.41234402 C-27.97060337 13.18489775 -27.97060337 13.18489775 -21.45927429 6.23052979 C-20.8263446 5.78451416 -20.19341492 5.33849854 -19.54130554 4.87896729 C-18.91611023 4.41748291 -18.29091492 3.95599854 -17.64677429 3.48052979 C-12.00025692 0.46007586 -6.2889314 -0.03742953 0 0 Z " fill="#063EA1" transform="translate(5365.353805541992,285.74603271484375)"/>
<path d="M0 0 C1.13466705 -0.00190338 2.26933411 -0.00380676 3.43838501 -0.00576782 C21.24652582 -0.0023827 38.45970544 1.02104487 55.9375 4.625 C56.99420898 4.84115967 58.05091797 5.05731934 59.13964844 5.2800293 C120.55904945 18.24912143 179.52350497 54.01787826 217.5625 104.375 C218.32949219 105.33664062 219.09648437 106.29828125 219.88671875 107.2890625 C234.81914411 126.07520795 247.24932364 146.80923109 257.61962891 168.42431641 C258.55477794 170.35902401 259.51537493 172.27930327 260.48046875 174.19921875 C271.21981981 195.87445449 278.4610275 219.02745621 284.5625 242.375 C284.80838867 243.31053711 285.05427734 244.24607422 285.30761719 245.20996094 C305.65106005 324.17502231 306.35573455 417.40154786 281.5625 495.375 C281.26119171 496.32959106 281.26119171 496.32959106 280.95379639 497.3034668 C260.50562564 562.02046461 228.65429978 624.20295858 173.5625 666.375 C172.58539062 667.15746094 171.60828125 667.93992187 170.6015625 668.74609375 C135.11982841 696.99934751 93.46940616 713.51049049 49.5625 723.375 C48.80259766 723.5517627 48.04269531 723.72852539 47.25976562 723.91064453 C39.4441665 725.61969472 31.5193028 726.30858371 23.5625 727 C22.81705933 727.0657019 22.07161865 727.13140381 21.30358887 727.19909668 C7.36372225 728.40715402 -6.44624499 728.75123543 -20.4375 728.375 C-21.33694336 728.35953125 -22.23638672 728.3440625 -23.16308594 728.328125 C-83.98758498 727.24879932 -146.76483621 710.10378228 -196.4375 674.375 C-197.30036621 673.7564917 -197.30036621 673.7564917 -198.18066406 673.12548828 C-218.2408414 658.63890995 -237.94273017 641.54291001 -253.31640625 622.05078125 C-255.51412214 619.2783404 -257.81380947 616.615784 -260.125 613.9375 C-288.23211248 580.10486461 -308.15918994 539.73549342 -322.4375 498.375 C-322.91239831 497.02982002 -323.38762872 495.68475722 -323.86328125 494.33984375 C-332.96949278 467.97975774 -338.13502978 440.02422893 -341.4375 412.375 C-341.54046387 411.59141113 -341.64342773 410.80782227 -341.74951172 410.00048828 C-343.62362806 395.43093612 -343.62104828 380.85261137 -343.625 366.1875 C-343.62599701 365.21152863 -343.62699402 364.23555725 -343.62802124 363.23001099 C-343.62591213 344.96263712 -343.22367912 326.8023502 -340.6875 308.6875 C-340.5119458 307.41277832 -340.3363916 306.13805664 -340.15551758 304.82470703 C-338.41154755 292.56272786 -336.15895541 280.45587935 -333.4375 268.375 C-333.19161133 267.27510742 -332.94572266 266.17521484 -332.69238281 265.04199219 C-327.04299714 240.18327755 -319.14149458 216.0524405 -308.56298828 192.84472656 C-307.81082468 191.19420877 -307.06703164 189.53985146 -306.33154297 187.88183594 C-292.10227111 155.83953157 -272.46448685 126.42065944 -248.62109375 100.74609375 C-246.72484197 98.68701534 -244.92025216 96.58390173 -243.125 94.4375 C-238.04355101 88.60632903 -232.20645048 83.50921677 -226.4375 78.375 C-225.91913574 77.9119043 -225.40077148 77.44880859 -224.86669922 76.97167969 C-211.78923995 65.3705054 -197.56749035 55.11929415 -182.37109375 46.47851562 C-180.34141494 45.32016358 -178.32742001 44.13693741 -176.3125 42.953125 C-140.86031127 22.39566805 -100.66332332 10.99667541 -60.4375 4.375 C-59.28330566 4.17745117 -58.12911133 3.97990234 -56.93994141 3.77636719 C-37.95888052 0.63726089 -19.21979157 0.00348795 0 0 Z " fill="#FCFBFC" transform="translate(2371.4375,477.625)"/>
<path d="M0 0 C3.30787579 0.01606947 6.61452424 0.00004919 9.92236328 -0.01904297 C28.99321727 -0.03830146 47.76658093 1.86139272 66.44189453 5.76611328 C67.48474609 5.98106445 68.52759766 6.19601562 69.60205078 6.41748047 C77.30110126 8.05126287 84.76676641 9.99440412 92.20019531 12.60742188 C94.82358018 13.52454945 97.45917542 14.40264363 100.09423828 15.28564453 C133.73506076 26.76932075 163.99154414 43.91029066 191.44189453 66.39111328 C192.27986572 67.07246338 192.27986572 67.07246338 193.13476562 67.76757812 C207.21021445 79.27869035 220.27783104 92.02573939 231.44189453 106.39111328 C232.35393425 107.49413135 233.26953284 108.59421293 234.18798828 109.69189453 C264.02128996 145.61472846 283.96383712 189.87334064 293.44189453 235.39111328 C293.6077002 236.17969727 293.77350586 236.96828125 293.94433594 237.78076172 C301.8982925 276.2092221 300.70607437 314.6998021 294.50439453 353.26611328 C294.35905273 354.17361328 294.21371094 355.08111328 294.06396484 356.01611328 C289.72948227 381.16161047 280.79690515 406.58445365 269.44189453 429.39111328 C269.0503418 430.18517578 268.65878906 430.97923828 268.25537109 431.79736328 C256.77787165 454.88184241 242.21782392 476.67960866 224.44189453 495.39111328 C223.31002853 496.69769685 222.18459301 498.0098899 221.06689453 499.32861328 C212.96102254 508.61421312 204.09067011 516.74201148 194.44189453 524.39111328 C193.16958984 525.46425781 193.16958984 525.46425781 191.87158203 526.55908203 C179.69495086 536.82743518 166.31580499 545.59400035 152.44189453 553.39111328 C151.62398437 553.85130859 150.80607422 554.31150391 149.96337891 554.78564453 C135.8910465 562.61163717 121.51264437 568.84984805 106.37792969 574.32666016 C104.44072904 575.02898802 102.50793224 575.74359999 100.58007812 576.47119141 C94.64276293 578.69755456 88.7468858 580.47878425 82.56689453 581.89111328 C81.66688721 582.09978027 80.76687988 582.30844727 79.83959961 582.5234375 C70.08565128 584.75053674 60.30542711 586.71658146 50.44189453 588.39111328 C49.59014648 588.54354492 48.73839844 588.69597656 47.86083984 588.85302734 C11.81123579 595.12546879 -27.05829334 592.58953301 -62.55810547 584.39111328 C-63.36763672 584.20822754 -64.17716797 584.0253418 -65.01123047 583.83691406 C-110.56719679 573.44177316 -157.00258362 551.94361647 -191.25732422 519.55126953 C-193.22314685 517.70559905 -195.22683943 515.94346468 -197.26904297 514.18408203 C-208.63473101 504.2736035 -219.41725867 493.39406476 -228.55810547 481.39111328 C-229.35087891 480.39208984 -230.14365234 479.39306641 -230.96044922 478.36376953 C-261.27312956 440.02921856 -281.3975404 393.86157819 -289.24560547 345.70361328 C-289.40849564 344.71559219 -289.40849564 344.71559219 -289.57467651 343.70761108 C-297.25197278 296.78788171 -293.40908687 247.22026117 -277.55810547 202.39111328 C-277.13754883 201.18358398 -277.13754883 201.18358398 -276.70849609 199.95166016 C-264.72436853 165.90403947 -246.93201704 134.87340863 -223.55810547 107.39111328 C-222.648693 106.29652481 -221.73987261 105.20144424 -220.83154297 104.10595703 C-211.30234702 92.70247869 -201.01845397 81.87828874 -189.55810547 72.39111328 C-188.52806054 71.50060049 -187.49812356 70.60996281 -186.46826172 69.71923828 C-148.11186019 37.06926597 -102.44295245 16.31619651 -53.55810547 5.39111328 C-52.5667308 5.15983734 -52.5667308 5.15983734 -51.55532837 4.92388916 C-34.48519521 1.00156573 -17.47661437 -0.10048474 0 0 Z " fill="#FCF301" transform="translate(882.55810546875,524.60888671875)"/>
<path d="M0 0 C6.59118754 -0.00279531 13.18237369 -0.00703692 19.77356029 -0.01150417 C38.09791637 -0.02364381 56.42227138 -0.03396621 74.74663138 -0.03737926 C75.90875763 -0.03759883 77.07088389 -0.0378184 78.26822608 -0.03804462 C79.43264665 -0.03826289 80.59706722 -0.03848117 81.79677325 -0.03870606 C84.15525226 -0.03914949 86.51373126 -0.03959606 88.87221026 -0.04004574 C90.62693039 -0.04037788 90.62693039 -0.04037788 92.41709941 -0.04071674 C111.47196334 -0.04468517 130.52678953 -0.06222465 149.58163882 -0.08540526 C169.23972509 -0.10912431 188.89779232 -0.12158068 208.55589312 -0.12274718 C219.55673975 -0.12366147 230.55753656 -0.12935543 241.5583694 -0.1475668 C250.89446417 -0.16297236 260.23049353 -0.16808395 269.5665986 -0.15982869 C274.32187889 -0.15592937 279.07702739 -0.15681823 283.83229136 -0.17088604 C288.19019261 -0.18366122 292.54786348 -0.18239614 296.90576457 -0.17029533 C298.47527223 -0.16834514 300.04479643 -0.17138517 301.61428089 -0.18013969 C326.44725532 -0.30981615 344.88129155 8.26321179 363.97011065 23.41112614 C368.70554659 27.1605746 373.54071356 30.75952525 378.41542315 34.32518864 C384.25626348 38.60135941 390.07438562 42.90267004 395.85292315 47.26268864 C402.13356355 51.99374385 408.48768576 56.61522994 414.87098956 61.20653629 C422.75038256 66.87842051 430.56069791 72.64233101 438.36854815 78.4121027 C440.84062943 80.23725625 443.31513516 82.05907434 445.79042315 83.87987614 C454.48849541 90.27878186 463.17036351 96.69643106 471.79042315 103.20018864 C470.40963679 106.43264268 468.9414496 108.15292576 466.14979815 110.26659489 C465.41599933 110.82886784 464.6822005 111.39114079 463.92616534 111.97045231 C463.13887042 112.5618903 462.3515755 113.15332829 461.54042315 113.76268864 C459.89433254 115.02016442 458.24850185 116.27798052 456.60292315 117.53612614 C455.78565753 118.157132 454.9683919 118.77813786 454.12636065 119.41796207 C450.90527671 121.87551985 447.72028736 124.37717301 444.54042315 126.88768864 C443.40509471 127.78102993 442.26967865 128.6742599 441.13417315 129.56737614 C440.01954261 130.44492034 438.90495906 131.32252424 437.79042315 132.20018864 C430.14163398 138.2233862 422.47817408 144.22676246 414.79042315 150.20018864 C402.92745522 159.42223098 391.12789473 168.70104774 379.4818294 178.19628239 C375.72312412 181.25960331 371.93884261 184.2897593 368.14198565 187.30565739 C366.4550285 188.66475077 364.78498167 190.0449364 363.12636065 191.43846989 C345.30276031 206.37514905 329.3324448 211.52994785 306.26532245 211.45174503 C304.71233212 211.45388705 303.15934281 211.45691502 301.60635573 211.46074545 C297.36385749 211.46874354 293.12144807 211.46449868 288.87895024 211.45822668 C284.29312456 211.45367576 279.70731532 211.46074224 275.1214931 211.4665308 C267.1795791 211.47514958 259.23768737 211.47697524 251.29576945 211.47458363 C239.78925508 211.47147872 228.28278967 211.48315117 216.77628765 211.49913342 C198.07421676 211.52508005 179.37214584 211.54510493 160.67006183 211.55858707 C159.55160079 211.55939744 158.43313975 211.56020781 157.28078596 211.56104274 C141.42853595 211.57225069 125.57628945 211.57754252 109.72403602 211.58042987 C108.60891008 211.58063385 107.49378414 211.58083784 106.34486651 211.58104801 C105.23111101 211.58124795 104.11735551 211.58144788 102.96984985 211.58165388 C84.34902448 211.58539628 65.72825218 211.60454772 47.10745341 211.63614237 C35.64213392 211.65498448 24.17695101 211.66106333 12.71162037 211.65032519 C4.84124976 211.6439711 -3.0290235 211.65214447 -10.89937279 211.67137931 C-15.42872536 211.68198471 -19.95784103 211.68634459 -24.48719144 211.67290783 C-42.01655191 211.62487419 -59.04916398 211.63970647 -76.21783888 215.72800469 C-79.03366994 216.39555747 -81.87280015 216.94204055 -84.70957685 217.51268864 C-99.9206253 221.58942497 -113.24495647 230.51163392 -121.20957685 244.20018864 C-130.90679114 261.95639575 -131.51272037 282.34291052 -131.46786237 302.09053898 C-131.47072151 304.0809506 -131.47446195 306.07136111 -131.47900087 308.0617696 C-131.48892941 313.4988708 -131.48662247 318.93590708 -131.48227394 324.37301302 C-131.47978826 330.2489198 -131.48887787 336.12480993 -131.4966557 342.00071049 C-131.50867683 352.17218536 -131.51380735 362.34364459 -131.5145371 372.51512623 C-131.51586475 387.2299427 -131.53094471 401.94472558 -131.55003227 416.65952803 C-131.55892878 423.52333697 -131.56719911 430.38714668 -131.57535386 437.25095654 C-131.57658049 438.28139562 -131.57658049 438.28139562 -131.5778319 439.33265166 C-131.59714631 455.66251728 -131.61070228 471.99238665 -131.62290692 488.32225895 C-131.62344372 489.0362718 -131.62398051 489.75028466 -131.62453357 490.48593427 C-131.63703652 507.15515011 -131.64781816 523.82436641 -131.65659833 540.49358463 C-131.65966872 546.28250473 -131.66276095 552.07142481 -131.66587567 557.86034489 C-131.66625749 558.57487991 -131.6666393 559.28941493 -131.66703268 560.02560253 C-131.67579612 576.34046737 -131.68695155 592.65532426 -131.70700669 608.97017956 C-131.70827069 609.99872126 -131.70827069 609.99872126 -131.70956022 611.04804159 C-131.71804307 617.89343559 -131.72703816 624.73882876 -131.73675199 631.58422113 C-131.7415133 634.95173548 -131.74612879 638.31925002 -131.75064015 641.68676472 C-131.75152803 642.34946971 -131.75241592 643.0121747 -131.7533307 643.69496166 C-131.76811709 655.01555484 -131.76960957 666.33611188 -131.76762987 677.65671284 C-131.76659593 687.70884019 -131.77621343 697.76092089 -131.7942689 707.81303196 C-131.80432603 713.61451622 -131.80942877 719.41589729 -131.80150151 725.2173872 C-131.79433268 730.52680295 -131.8008828 735.83601748 -131.81838692 741.14540757 C-131.82227493 743.06705336 -131.82108453 744.98871746 -131.81433003 746.91035531 C-131.80587909 749.52146524 -131.81586145 752.13188846 -131.83040261 754.74295712 C-131.82355422 755.4896293 -131.81670583 756.23630148 -131.80964991 757.00560009 C-131.88945769 764.33628204 -134.05388835 771.18844969 -139.25282884 776.53820992 C-147.78798151 783.78760639 -159.77616669 782.77704485 -170.28208661 782.7336359 C-172.090128 782.7407046 -173.89816347 782.74945359 -175.70618939 782.75974369 C-180.58838315 782.78213732 -185.47025121 782.77932203 -190.3524766 782.77042222 C-194.43798773 782.76529295 -198.52343871 782.77262034 -202.60894364 782.77989429 C-212.2495571 782.79686046 -221.89001213 782.79335943 -231.53062177 782.77660465 C-241.45840146 782.75967343 -251.38574177 782.77553916 -261.31347352 782.80782753 C-269.85733828 782.83455674 -278.40106653 782.84179082 -286.94496888 782.83331245 C-292.03916136 782.8283946 -297.13308938 782.83053751 -302.22724843 782.85109997 C-307.01687373 782.86951036 -311.80586837 782.8634331 -316.59546018 782.83890057 C-318.34734084 782.83391029 -320.09927001 782.83733586 -321.85111165 782.85004902 C-332.10283782 782.91853053 -340.86729061 782.64299963 -349.02400804 775.64308357 C-356.79760441 767.53505891 -356.64441639 757.44190673 -356.58379865 746.8167963 C-356.58654298 745.36129001 -356.59059826 743.9057857 -356.5958423 742.45028627 C-356.60639951 738.46330729 -356.59831688 734.47655353 -356.5870918 730.48958445 C-356.57822247 726.17619569 -356.58670526 721.86283557 -356.59295392 717.54944706 C-356.60245931 709.06775499 -356.59580906 700.58614795 -356.58369098 692.10446216 C-356.56993736 682.09056767 -356.57172316 672.07669257 -356.57382431 662.06279103 C-356.57702226 644.02165921 -356.56534268 625.98056658 -356.54575849 607.93944645 C-356.52711915 590.76267608 -356.51967007 573.58595273 -356.52525067 556.40917301 C-356.5509934 472.9673772 -356.50120479 389.5326401 -355.2525456 306.09862614 C-355.23073442 304.63018783 -355.20892333 303.16174952 -355.18711233 301.69331121 C-355.04570996 292.21805659 -354.89333911 282.74302728 -354.73374677 273.26805973 C-354.71473994 272.10367862 -354.69573311 270.93929751 -354.67615032 269.73963213 C-354.47424113 257.57926176 -354.18915976 245.4244984 -353.75103498 233.27016544 C-353.71535545 232.22408536 -353.67967592 231.17800528 -353.64291519 230.10022581 C-352.44122913 198.92648606 -344.14086905 167.67749383 -329.28672528 140.19384098 C-328.14236125 138.07578189 -327.02437073 135.94477228 -325.90488935 133.81346989 C-318.14720801 119.25762641 -308.81860055 105.82904495 -298.20957685 93.20018864 C-297.77177899 92.67360661 -297.33398114 92.14702457 -296.88291669 91.60448551 C-287.76468473 80.65643577 -278.20172228 70.31381176 -267.20957685 61.20018864 C-266.72633954 60.79252262 -266.24310224 60.38485661 -265.74522138 59.96483707 C-222.58560296 23.68949544 -169.25866443 1.23504194 -112.63169599 0.52538395 C-110.70272503 0.49230796 -108.77375774 0.45901782 -106.84479356 0.42554951 C-71.23620614 -0.13053968 -35.61177871 0.01493998 0 0 Z " fill="#1D4584" transform="translate(617.2095768451691,198.79981136322021)"/>
<path d="M0 0 C0.78912791 -0.00297112 1.57825581 -0.00594224 2.39129668 -0.0090034 C5.04430712 -0.01769785 7.69727246 -0.01919929 10.35029602 -0.02069092 C12.24906511 -0.02531863 14.14783327 -0.03034323 16.04660034 -0.03573608 C21.21208401 -0.04886816 26.37755468 -0.05530682 31.54305243 -0.05974674 C34.77020744 -0.06267667 37.99735888 -0.06678136 41.2245121 -0.07125092 C51.32124747 -0.08492908 61.41797471 -0.0945937 71.51471871 -0.09845281 C83.17001424 -0.10293199 94.8251924 -0.12047212 106.48045224 -0.1494534 C115.48863359 -0.17107488 124.49678194 -0.18115737 133.50498897 -0.18249393 C138.88534702 -0.18354178 144.26559479 -0.18944532 149.64592552 -0.20731354 C154.7094149 -0.22380181 159.77271121 -0.22594599 164.83621788 -0.21717453 C166.69214393 -0.21640452 168.5480804 -0.22074217 170.40398026 -0.23063278 C172.94329566 -0.24336899 175.481929 -0.23746653 178.02124023 -0.22705078 C178.75073511 -0.23510719 179.48022999 -0.24316359 180.23183078 -0.25146413 C185.78482883 -0.19841924 191.55804512 0.70953272 195.8615486 4.48617435 C199.88208894 9.06935849 201.5789505 13.38577047 201.57531738 19.41738892 C201.58161289 20.98836916 201.58161289 20.98836916 201.58803558 22.59108639 C201.57960255 24.3042698 201.57960255 24.3042698 201.57099915 26.05206299 C201.57287483 27.26789598 201.57475052 28.48372896 201.57668304 29.73640537 C201.57971512 33.09062864 201.57374695 36.44460939 201.56369758 39.79880404 C201.55499698 43.37236348 201.55739313 46.94591793 201.55825806 50.51948547 C201.5579841 57.44234137 201.5463881 64.36513466 201.53066331 71.28797096 C201.51808678 76.93078014 201.51025894 82.57357933 201.50532532 88.21640015 C201.47151499 125.67303654 201.31650844 163.12413961 200.82807922 200.57794189 C200.30447471 240.9514283 200.18130324 281.32344519 200.14870679 321.69984895 C200.14348224 327.6605178 200.13301389 333.62116102 200.12007141 339.58181763 C200.018527 388.18196831 200.46135032 436.74586121 203.01428509 485.29170418 C203.42133581 493.22040143 203.47972483 501.14326892 203.45845032 509.08111572 C203.45303743 511.47139705 203.45847642 513.86149387 203.46479797 516.25177002 C203.47252767 530.14514868 203.02542536 543.92034979 200.64057922 557.64044189 C200.46687805 558.6503418 200.29317688 559.6602417 200.11421204 560.70074463 C190.98581826 611.80472035 169.19812492 657.35966649 133.82807922 695.41778564 C131.86541412 697.55525061 129.98372996 699.71411478 128.14057922 701.95294189 C125.53652847 705.03045642 122.63851153 707.60723655 119.56636047 710.21075439 C117.08593111 712.34920484 114.71601377 714.58679193 112.32807922 716.82794189 C95.94131169 731.72500329 76.885423 743.85048088 57.32807922 754.14044189 C56.54384583 754.55761475 55.75961243 754.9747876 54.95161438 755.40460205 C17.17995134 775.23454147 -24.45395796 785.53930986 -67.04692078 785.39044189 C-67.93631725 785.3875201 -68.82571373 785.38459831 -69.74206161 785.38158798 C-81.23166359 785.33113461 -92.7054382 785.15284588 -104.18608093 784.68511963 C-147.98176732 782.91394813 -191.74104566 782.86442911 -235.56682742 782.93984663 C-242.6471114 782.95146471 -249.72736994 782.95558838 -256.80766296 782.95513916 C-300.72515604 782.95261239 -344.622887 783.11709693 -388.53281021 783.97114277 C-401.48871866 784.22048722 -414.44357125 784.35907605 -427.40190125 784.38067627 C-429.82738617 784.38740532 -432.2528581 784.4015143 -434.67826843 784.42169189 C-451.62644067 784.56127278 -468.2235925 784.52579543 -484.29692078 778.45294189 C-484.9916449 778.19657959 -485.68636902 777.94021729 -486.40214539 777.67608643 C-500.41830134 772.32188619 -511.94265735 764.36877299 -523.67192078 755.14044189 C-526.6077628 752.8466488 -529.54630278 750.5563186 -532.48442078 748.26544189 C-533.23256042 747.68069092 -533.98070007 747.09593994 -534.75151062 746.49346924 C-542.47928187 740.47125091 -550.36741166 734.67573232 -558.27641296 728.89483643 C-561.47459773 726.55258655 -564.6619652 724.19583227 -567.84989929 721.83966064 C-575.49094481 716.19434638 -583.16774431 710.6020117 -590.87846375 705.05230713 C-597.35987772 700.3812683 -603.79436725 695.64797528 -610.21684265 690.89630127 C-614.67273506 687.60180567 -619.15326576 684.3483877 -623.67192078 681.14044189 C-619.1389584 672.74606712 -614.0037553 667.43977952 -606.56645203 661.49591064 C-603.85204643 659.28702188 -601.25473314 657.00081108 -598.67192078 654.64044189 C-594.42540392 650.77510844 -590.04178968 647.12645943 -585.57817078 643.51544189 C-583.01835004 641.42354538 -580.49482436 639.29864171 -577.98173523 637.15142822 C-571.24845985 631.39901222 -564.36219632 625.87576904 -557.35990906 620.45489502 C-555.77604964 619.22152807 -554.20588466 617.97063187 -552.63676453 616.71856689 C-539.10926866 606.03620887 -524.81947588 596.51986814 -509.54692078 588.51544189 C-508.62411316 588.03091553 -507.70130554 587.54638916 -506.75053406 587.04718018 C-470.27171678 568.43661123 -426.61072812 568.81747617 -386.61312139 568.8677448 C-382.77475436 568.8702807 -378.93641064 568.86107892 -375.09805298 568.85336304 C-368.48189283 568.84146029 -361.86575648 568.83621778 -355.24958611 568.83548164 C-345.66148739 568.83414023 -336.07344536 568.81889461 -326.48536695 568.79998647 C-310.88959962 568.76932201 -295.29383085 568.74507263 -279.69804382 568.72711182 C-278.76950189 568.72603914 -277.84095996 568.72496646 -276.88428039 568.72386127 C-266.51550118 568.7120304 -256.14672139 568.70182088 -245.77793884 568.69342041 C-242.00944518 568.69034554 -238.24095152 568.68725689 -234.47245789 568.68414307 C-233.07729375 568.68299506 -233.07729375 568.68299506 -231.65394448 568.68182386 C-216.09598836 568.66870267 -200.538074 568.64401928 -184.98014885 568.61039966 C-175.4244804 568.59023767 -165.86890151 568.57980239 -156.31321163 568.58238887 C-149.76479601 568.58343089 -143.21645108 568.57367676 -136.66806018 568.55574984 C-132.90428038 568.54579991 -129.14065716 568.54047294 -125.3768692 568.54851723 C-78.86885158 568.64882065 -78.86885158 568.64882065 -38.73442078 547.55450439 C-21.62477772 527.52844491 -21.19427683 499.13138926 -21.29338074 474.11637878 C-21.29007854 472.11264839 -21.28545685 470.10891982 -21.27965307 468.10519511 C-21.26758933 462.67313224 -21.27373644 457.24122807 -21.28315806 451.80916584 C-21.29001576 445.92322704 -21.27939128 440.03731547 -21.27087402 434.15138245 C-21.25836583 423.97677853 -21.25631433 413.80221711 -21.26123047 403.62760735 C-21.26806307 388.91068211 -21.25553115 374.19381211 -21.23772329 359.47689945 C-21.22943251 352.60381766 -21.2220939 345.73073484 -21.21500397 338.85765171 C-21.21429347 338.16995657 -21.21358297 337.48226144 -21.21285095 336.77372705 C-21.19620673 320.44992341 -21.18888279 304.12611775 -21.18315125 287.80230713 C-21.18289734 287.08908389 -21.18264343 286.37586065 -21.18238183 285.64102459 C-21.1782721 274.06059083 -21.17473184 262.4801569 -21.17126954 250.89972293 C-21.16801181 240.02057121 -21.16454928 229.14141959 -21.16069031 218.26226807 C-21.16044002 217.5468566 -21.16018973 216.83144513 -21.15993186 216.09435453 C-21.15416719 199.76214769 -21.14572237 183.42994824 -21.12883759 167.09774876 C-21.12812932 166.41161946 -21.12742106 165.72549016 -21.12669133 165.01856906 C-21.11955998 158.16971712 -21.11195794 151.32086586 -21.10365362 144.47201524 C-21.08513291 129.10826363 -21.07712194 113.74456984 -21.08451426 98.38080788 C-21.08868534 88.33345684 -21.08237058 78.28614838 -21.06771553 68.23880725 C-21.05963986 62.43953063 -21.0565766 56.64035956 -21.06653786 50.84108353 C-21.07557396 45.53645364 -21.07095075 40.23202038 -21.05532342 34.92740745 C-21.05212451 33.00539142 -21.0540371 31.08335891 -21.06148881 29.16135465 C-21.07087774 26.55468133 -21.06191775 23.94869514 -21.0483017 21.34205532 C-21.05900305 20.21561843 -21.05900305 20.21561843 -21.0699206 19.06642523 C-21.01088862 13.49928511 -19.75615069 9.3999366 -15.95317078 5.27716064 C-15.36535828 4.79891846 -14.77754578 4.32067627 -14.17192078 3.82794189 C-13.58410828 3.33680908 -12.99629578 2.84567627 -12.39067078 2.33966064 C-8.5343828 -0.35097665 -4.49524368 -0.00525897 0 0 Z " fill="#FC2218" transform="translate(1325.6719207763672,662.8595581054688)"/>
<path d="M0 0 C1.57279724 -0.0076664 1.57279724 -0.0076664 3.17736816 -0.01548767 C6.65362247 -0.02940524 10.12967809 -0.0284205 13.60595703 -0.02612305 C16.05746533 -0.03001824 18.50897296 -0.03435458 20.96047974 -0.03910828 C26.12374032 -0.046582 31.28693263 -0.04627771 36.45019531 -0.04101562 C41.66512811 -0.03644 46.87982471 -0.0430819 52.09472656 -0.06152344 C101.96392337 -0.23639057 101.96392337 -0.23639057 126.15283203 1.64575195 C126.93927975 1.70678289 127.72572746 1.76781384 128.53600693 1.8306942 C149.13948974 3.48515166 170.03015199 6.04531643 189.48876953 13.2746582 C190.81487086 13.73248284 192.14172157 14.18814151 193.46923828 14.6418457 C228.15242787 26.74941679 254.64634532 51.29441974 270.93798828 84.1027832 C278.27959855 99.5003475 283.25685256 115.67110096 287.30126953 132.2121582 C287.49624023 133.00291748 287.69121094 133.79367676 287.89208984 134.60839844 C291.14599731 148.60106136 291.83658088 162.34235693 291.80444336 176.64355469 C291.80128544 179.57240147 291.82482678 182.50023233 291.85009766 185.42895508 C291.90541571 201.41629439 290.15199066 216.4915835 285.30126953 231.7746582 C284.84844604 233.22110718 284.84844604 233.22110718 284.38647461 234.69677734 C271.55039412 274.54752608 244.83476692 305.84815883 207.84375 325.32226562 C198.38224519 330.17201599 188.53135698 333.82361993 178.48876953 337.2746582 C177.75916016 337.53102051 177.02955078 337.78738281 176.27783203 338.05151367 C142.15074164 349.81456394 105.16859433 348.76928801 69.56317139 348.94421387 C64.13268794 348.97408798 58.70234887 349.02076679 53.27197266 349.06567383 C44.03992259 349.14052543 34.80800805 349.18912999 25.57573128 349.22472954 C20.57684023 349.24752468 15.58003161 349.29657405 10.58201694 349.39331722 C8.56835021 349.4317828 6.55451854 349.46129791 4.54069519 349.49043274 C2.24718941 349.5246546 -0.04617837 349.57364273 -2.33891296 349.64225769 C-10.21486358 349.73208456 -15.3075854 347.97995848 -21.32373047 342.8996582 C-26.22378471 337.01959311 -27.63114199 331.33027089 -27.64545155 323.83034992 C-27.64990939 322.74322564 -27.65436723 321.65610137 -27.65896016 320.53603393 C-27.6587758 319.34733441 -27.65859144 318.1586349 -27.65840149 316.93391418 C-27.66207818 315.66671293 -27.66575487 314.39951168 -27.66954297 313.0939104 C-27.67954103 309.57862223 -27.68327621 306.06335113 -27.68593228 302.54805076 C-27.68984177 298.7558119 -27.69941956 294.96358647 -27.70814514 291.1713562 C-27.72788981 282.01499276 -27.73797255 272.85862824 -27.74687293 263.70224884 C-27.75125851 259.38851619 -27.75662456 255.07478477 -27.7618618 250.76105309 C-27.77887096 236.41871426 -27.79336522 222.07637618 -27.80061054 207.73402882 C-27.80252037 204.0137666 -27.80444072 200.29350438 -27.80639648 196.57324219 C-27.80688022 195.64861161 -27.80736396 194.72398102 -27.80786236 193.77133133 C-27.8161631 178.79219156 -27.84150215 163.81313164 -27.87397716 148.83402673 C-27.90705815 133.44982973 -27.92506018 118.06567329 -27.92825478 102.68144053 C-27.93041875 94.04593145 -27.93915105 85.41053886 -27.96471596 76.77506447 C-27.98643704 69.4211045 -27.99446641 62.06728933 -27.98474918 54.71330092 C-27.98020873 50.96314563 -27.98207555 47.21328902 -28.00151062 43.46317482 C-28.02242681 39.39201396 -28.01214362 35.32151363 -27.99897766 31.25032043 C-28.00994691 30.07277453 -28.02091615 28.89522862 -28.0322178 27.6819995 C-27.9717828 19.9335804 -27.12611593 12.35328721 -21.79047948 6.33315688 C-15.35816547 0.27315453 -8.44852762 -0.0213235 0 0 Z " fill="#FBFBFC" transform="translate(4651.51123046875,474.725341796875)"/>
<path d="M0 0 C0.96650482 -0.00563965 1.93300964 -0.0112793 2.92880249 -0.01708984 C3.97807922 -0.01304138 5.02735596 -0.00899292 6.10842896 -0.00482178 C7.22313568 -0.00832642 8.33784241 -0.01183105 9.48632812 -0.01544189 C13.17959801 -0.02425593 16.87267656 -0.01840389 20.56594849 -0.01165771 C23.14929236 -0.01300616 25.73263599 -0.0149482 28.315979 -0.01745605 C33.74486933 -0.02040829 39.17368848 -0.01630522 44.60256958 -0.0067749 C50.81715685 0.00401107 57.03161185 0.00065703 63.24619567 -0.01042771 C69.27374843 -0.02073704 75.30123844 -0.019465 81.3288002 -0.01366425 C83.86642603 -0.01234585 86.4040553 -0.01391063 88.94167709 -0.01862335 C146.89416873 -0.10250079 211.70057067 10.07048151 255.03860474 52.12896729 C278.7571827 76.03477747 286.5289668 108.5310531 286.51126099 141.31646729 C286.51166382 142.0906601 286.51206665 142.86485291 286.51248169 143.6625061 C286.38407439 186.99166595 272.79878689 226.36006797 242.07376099 257.25396729 C241.36679077 257.96697998 241.36679077 257.96697998 240.64553833 258.69439697 C223.77344142 275.46672844 202.72405022 287.74087909 181.07376099 297.25396729 C180.02059692 297.72705322 178.96743286 298.20013916 177.88235474 298.68756104 C150.31704338 310.2240212 120.09685864 310.41700623 90.76516724 310.49224854 C89.40729187 310.4963071 88.04941668 310.5004243 86.69154167 310.50459862 C80.32172417 310.52354452 73.95191766 310.53781138 67.58207756 310.54621059 C60.26793732 310.55602125 52.95409656 310.58248401 45.64006191 310.62271148 C39.95220558 310.6529096 34.26443526 310.66768189 28.57650036 310.6709916 C25.19266886 310.67333251 21.80916141 310.68217141 18.42541695 310.70745277 C14.65894523 310.73178396 10.89326564 310.73089128 7.1267395 310.72393799 C6.01957581 310.73674805 4.91241211 310.74955811 3.771698 310.76275635 C-4.38509393 310.70790921 -9.90068894 309.27951736 -15.73873901 303.44146729 C-20.72876343 296.17028885 -21.36358951 290.65080696 -21.31391907 281.99472046 C-21.31930461 280.86802913 -21.32469014 279.74133779 -21.33023888 278.5805043 C-21.34453477 274.80894954 -21.33741043 271.03774495 -21.33029175 267.26617432 C-21.3343514 264.56055797 -21.34285784 261.85495946 -21.35108948 259.14935303 C-21.36826944 252.56523917 -21.36911912 245.98122078 -21.36387657 239.39709033 C-21.3598319 234.04406351 -21.36128196 228.69106487 -21.36662483 223.3380394 C-21.36737325 222.57558663 -21.36812168 221.81313386 -21.36889278 221.02757647 C-21.37042429 219.47854678 -21.37196264 217.9295171 -21.37350775 216.38048743 C-21.38723005 201.85972723 -21.38179715 187.33902093 -21.37032253 172.81826197 C-21.3603919 159.5424881 -21.37332833 146.26685364 -21.39725672 132.99110128 C-21.42165705 119.35044202 -21.43125322 105.70984766 -21.424604 92.06916702 C-21.42111366 84.414622 -21.4233315 76.76018416 -21.44085503 69.10565567 C-21.45558876 62.58905003 -21.45619733 56.07262703 -21.43878412 49.55602492 C-21.43028077 46.23323472 -21.43028169 42.911038 -21.44343567 39.5882225 C-21.45662481 35.98090143 -21.44511479 32.37446453 -21.42744446 28.7671814 C-21.43704946 27.72427008 -21.44665447 26.68135876 -21.45655054 25.60684407 C-21.38372583 18.37193177 -20.25603702 11.8363846 -15.17624372 6.3712064 C-10.64910866 2.2002468 -6.2415114 0.00563177 0 0 Z " fill="#FCFBFC" transform="translate(3397.926239013672,468.74603271484375)"/>
<path d="M0 0 C0.33 0 0.66 0 1 0 C1 83.82 1 167.64 1 254 C-82.82 254 -166.64 254 -253 254 C-253 253.67 -253 253.34 -253 253 C-252.26813477 252.91548584 -251.53626953 252.83097168 -250.78222656 252.74389648 C-199.8869143 246.70432998 -152.22662967 229.9329693 -111 199 C-110.38044434 198.5373877 -109.76088867 198.07477539 -109.12255859 197.59814453 C-100.24666469 190.9252347 -91.98406385 183.71226593 -84 176 C-83.06873291 175.101604 -83.06873291 175.101604 -82.11865234 174.18505859 C-74.21228094 166.51617519 -66.70789299 158.75916431 -60 150 C-59.08214289 148.83454748 -58.16416659 147.66918883 -57.24609375 146.50390625 C-34.9375124 117.83249749 -18.71657561 84.9796722 -9 50 C-8.67008057 48.82002441 -8.67008057 48.82002441 -8.33349609 47.61621094 C-4.06016995 31.9713852 -1.98548314 16.06405739 0 0 Z " fill="#000000" transform="translate(6594,1542)"/>
<path d="M0 0 C0.33 0 0.66 0 1 0 C1.08451416 0.73186523 1.16902832 1.46373047 1.25610352 2.21777344 C8.08950912 59.80275269 29.05373268 114.3533211 68 158 C68.69867188 158.80824219 69.39734375 159.61648438 70.1171875 160.44921875 C80.44432907 172.23774827 91.57112329 183.43792989 104 193 C105.43279297 194.15822266 105.43279297 194.15822266 106.89453125 195.33984375 C149.56268409 229.31335412 200.50339361 246.38793386 254 253 C254 253.33 254 253.66 254 254 C170.18 254 86.36 254 0 254 C0 170.18 0 86.36 0 0 Z " fill="#000000" transform="translate(0,1542)"/>
<path d="M0 0 C83.82 0 167.64 0 254 0 C254 83.82 254 167.64 254 254 C253.67 254 253.34 254 253 254 C252.91548584 253.26813477 252.83097168 252.53626953 252.74389648 251.78222656 C245.91049088 194.19724731 224.94626732 139.6466789 186 96 C185.30132812 95.19175781 184.60265625 94.38351563 183.8828125 93.55078125 C173.55567093 81.76225173 162.42887671 70.56207011 150 61 C148.56720703 59.84177734 148.56720703 59.84177734 147.10546875 58.66015625 C104.43731591 24.68664588 53.49660639 7.61206614 0 1 C0 0.67 0 0.34 0 0 Z " fill="#000000" transform="translate(6341,0)"/>
<path d="M0 0 C83.82 0 167.64 0 254 0 C254 0.33 254 0.66 254 1 C253.26813477 1.08451416 252.53626953 1.16902832 251.78222656 1.25610352 C194.19724731 8.08950912 139.6466789 29.05373268 96 68 C95.19175781 68.69867188 94.38351563 69.39734375 93.55078125 70.1171875 C81.76416233 80.44265531 70.55484499 91.56784374 61 104 C60.21625 104.97839844 59.4325 105.95679687 58.625 106.96484375 C24.63659573 149.65106801 7.61639142 200.46839884 1 254 C0.67 254 0.34 254 0 254 C0 170.18 0 86.36 0 0 Z " fill="#000000" transform="translate(0,0)"/>
</svg>
